UniversElse-Light.sfdir

StartChar: uni0021
Encoding: 33 33 2
Width: 475
GlyphClass: 2
Flags: W
LayerCount: 2
Fore
SplineSet
232 90 m 0
 234.292 93.0557 235.416 94.3613 238.049 94.3613 c 0
 238.862 94.3613 239.819 94.2363 241 94 c 0
 245 93 253 92 261 91 c 0
 272 90 274 90 279 84 c 0
 283 79 284 77 283 72 c 0
 282 67 283 63 284 60 c 1
 286.093 56.8613 288.375 46.0859 288.375 40.25 c 0
 288.375 35.9375 287.25 32.75 285 29 c 0
 283 25 282 21 282 20 c 0
 282 19 279 16 276 12 c 0
 273 9 269 7 267 7 c 0
 265 7 252 6 239 6 c 0
 225 6 211 6 207 7 c 0
 202 8 199 10 197 14 c 0
 195 17 194 22 194 25 c 0
 194 29 195 33 196 35 c 0
 197 37 196 41 194 49 c 0
 191.856 54.3594 190.861 57.1338 190.861 59.3242 c 0
 190.861 61.2207 191.607 62.6797 193 65 c 2
 194 68 196 73 197 76 c 0
 198 79 201 81 202 81 c 0
 204 81 207 82 209 83 c 1
 211 85 216 86 221 86 c 0
 228 86 230 87 232 90 c 0
255.999 731.001 m 1
 257.999 731.001 260.999 732 261.999 732 c 0
 263.999 732 267.999 731 270.999 730 c 0
 275.999 729 279.999 726 283.999 721 c 0
 287.454 716.854 288.521 715.573 288.521 704.95 c 0
 288.521 700.199 288.308 693.58 287.999 684 c 0
 287.999 666 286.999 651 286.999 649 c 0
 286.999 647 287.999 631 287.999 613 c 0
 287.999 593 286.999 578 285.999 574 c 2
 281.999 562 l 2
 280.999 558 279.999 553 279.999 551 c 0
 279.999 548 281.999 543 284.999 540 c 0
 287.666 536 288.555 534.223 288.555 527.853 c 0
 288.555 524.667 288.332 520.334 287.999 514.001 c 0
 286.999 499.001 285.999 493.001 283.999 490.001 c 0
 280.999 487.001 280.999 480.001 280.999 404.001 c 0
 280.999 329.001 280.999 322.001 277.999 318.001 c 1
 276.999 315.001 274.999 310.001 273.999 305.001 c 0
 272.999 299.001 273.999 296.001 276.999 292.001 c 0
 278.999 289.001 279.999 284.001 279.999 278.001 c 0
 279.999 272.001 278.999 268.001 276.999 264.001 c 1
 272.999 259.001 272.999 256.001 272.999 233.001 c 0
 272.999 209.001 272.999 207.001 269.999 203.001 c 0
 266.999 200.001 265.999 197.001 265.999 192.001 c 0
 265.999 188.001 264.999 184.001 263.999 183.001 c 0
 262.999 182.001 259.999 181.001 257.999 181.001 c 0
 255.999 181.001 253.999 180.001 251.999 178.001 c 0
 250.65 177.102 249.908 176.606 249.046 176.606 c 0
 247.989 176.606 246.752 177.349 243.999 179 c 1
 240.999 182 237.999 182 230.999 181 c 0
 222.999 180 221.999 181 215.999 187 c 0
 208.999 193 208.999 193 208.999 230 c 0
 208.999 265 208.999 268 204.999 275 c 0
 201.999 281 201.999 284 202.999 287 c 0
 203.999 290 203.999 292 203.999 293 c 1
 202.999 294 201.999 313 201.999 334 c 0
 201.999 368 200.999 374 198.999 378 c 0
 196.999 381 195.999 386 195.999 392 c 2
 195.999 407 l 2
 195.999 410 194.999 413 193.999 413 c 1
 192.999 414 192.999 419 193.999 425 c 2
 193.999 431 195.999 440 198.999 445 c 1
 201.999 453 201.999 455 201.999 496 c 0
 200.999 520 200.999 541 200.999 543 c 2
 200.999 566 l 2
 200.999 583 200.999 588 197.999 590 c 1
 195.999 593 194.999 599 194.999 638 c 0
 194.999 680 193.999 683 190.999 687 c 0
 189.097 689.536 188.4 691.269 188.4 694.235 c 0
 188.4 695.948 188.633 698.072 188.999 701.001 c 0
 189.999 707.001 190.999 711.001 192.999 712.001 c 0
 194.999 713.001 198.999 716.001 201.999 719.001 c 0
 205.999 722.001 210.999 724.001 215.999 725.001 c 1
 236.999 725.001 l 2
 244.999 725.001 249.999 726.001 250.999 727.001 c 0
 251.999 728.001 253.999 730.001 255.999 731.001 c 1
EndSplineSet
Validated: 33
EndChar

StartChar: uni0022
Encoding: 34 34 3
Width: 656
GlyphClass: 2
Flags: W
LayerCount: 2
Fore
SplineSet
155 717 m 1
 174 717 l 2
 181 717 190 716 194 714 c 0
 197 712 202 711 204 711 c 0
 206 711 211 706 218 699 c 0
 224 692 231 686 233 686 c 1
 236 685 240 683 243 681 c 0
 246 679 249 675 250 672 c 2
 252 669 253 659 253 649 c 0
 253 634 253 630 256 625 c 0
 259 621 260 616 260 608 c 0
 260 603 260 592 259 584 c 0
 258 576 257 569 256 567 c 0
 255 565 254 558 253 551 c 0
 253 546.333 252.556 535.444 252.556 523.074 c 0
 252.556 516.889 252.667 510.333 253 504 c 0
 253 470 253 470 246 463 c 0
 240 456 239 454 239 448 c 1
 240 442 239 440 235 437 c 0
 233.098 435.098 231.195 434.401 227.765 434.401 c 0
 225.784 434.401 223.294 434.634 220 435 c 0
 213 435 205 437 201 438 c 1
 197 440 192 442 190 443 c 0
 188 444 186 446 185 448 c 1
 178 455 l 1
 174 457 172 461 170 466 c 0
 168 471 167 476 167 478 c 0
 167 480 165 483 162 485 c 1
 160 488 158 491 158 492 c 0
 158 494 157 497 156 499 c 0
 154 502 153 511 152 529 c 0
 151 543 151 559 151 565 c 1
 152 572 152 581 152 586 c 0
 152 593 150 600 147 608 c 0
 142 619 142 621 144 627 c 0
 145 631 146 637 145 641 c 2
 145 645 144 653 143 658 c 0
 142 662 141 668 139 669 c 1
 137 672 137 675 137 685 c 1
 138 692 139 698 141 701 c 0
 143 703 144 706 144 708 c 0
 144 709 145 712 147 713 c 1
 149 715 153 716 155 717 c 1
435 723 m 1
 435 724 438 725 442 725 c 0
 445 725 450 724 453 721 c 0
 457 717 460 716 465 717 c 0
 469 718 472 717 475 715 c 0
 477 713 481 711 483 711 c 0
 484 711 490 707 495 702 c 0
 500 697 505 691 506 689 c 0
 507 686 511 681 514 677 c 0
 517 672 520 667 520 665 c 0
 520 663 518 656 516 651 c 0
 514 645 512 636 512 630 c 0
 512 625 512 616 513 609 c 1
 513 603 513 593 512 587 c 0
 511 578 511 575 514 570 c 0
 517 565 518 559 518 553 c 0
 518 548 516 542 515 539 c 1
 513 536 512 528 511 500 c 0
 511 471 510 465 507 459 c 0
 505 456 504 451 505 450 c 1
 505 448 505 445 503 444 c 2
 502 442 496 441 489 440 c 0
 486.95 439.707 484.985 439.586 483.182 439.586 c 0
 478.828 439.586 475.414 440.293 474 441 c 0
 472 442 468 442 465 442 c 1
 462 443 457 444 455 446 c 0
 452 448 449 449 448 449 c 0
 447 449 445 452 444 454 c 0
 443 457 440 461 438 463 c 0
 436 466 434 470 434 472 c 0
 434 475 432 480 430 484 c 0
 428 488 427 494 427 499 c 0
 427 505 426 509 423 512 c 1
 421 516 420.19 521.008 419 546 c 0
 418 567 417 576 415 580 c 0
 413 585 412 592 412 612 c 0
 412 635 411 639 408 647 c 1
 404 654 404 657 405 670 c 0
 405.924 682.006 405 685 402 689 c 0
 400 692 399 696 399 699 c 0
 399 701 400 707 403 711 c 0
 405 715 407 719 409 719 c 0
 410 719 413 719 416 718 c 0
 420 717 424 717 428 719 c 0
 431 720 434 722 435 723 c 1
EndSplineSet
Validated: 33
EndChar

StartChar: uni002A
Encoding: 42 42 11
Width: 586
GlyphClass: 2
Flags: W
LayerCount: 2
Fore
SplineSet
356 721 m 0
 358 722 361 723 363 723 c 0
 365 723 369 722 371 720 c 0
 374 718 378 716 381 716 c 0
 384 716 387 715 388 714 c 0
 389 713 390 710 390 709 c 1
 391 707 394 704 397 702 c 0
 400 700 404 697 405 695 c 0
 406 693 407 688 406 684 c 2
 406 680 403 673 399 668 c 0
 396 663 391 657 387 654 c 0
 384 652 380 646 379 643 c 0
 377 639 372 634 368 630 c 1
 364 627 357 619 353 613 c 0
 349 606 345 597 344 592 c 0
 343 587 343 581 343 579 c 1
 344 576 346 573 348 572 c 0
 350 571 361 570 372 570 c 0
 384 570 395 569 397 568 c 1
 401 567 403 568 407 572 c 1
 413 576 414 576 438 577 c 0
 462 578 464 577 468 574 c 0
 471 572 474 568 475 566 c 0
 476 563 477 555 477 544 c 0
 477 529 477 527 472 521 c 0
 469 517 465 514 462 514 c 1
 459 513 454 512 452 512 c 2
 448 511 443 512 435 515 c 0
 425 519 422 520 417 518 c 0
 414 517 410 516 409 517 c 0
 408 518 408 519 408 521 c 0
 408 522 406 524 405 525 c 1
 403 526 392 526 380 526 c 0
 367 525 355 524 352 524 c 0
 347 523 345 521 344 517 c 0
 343 514 343 508 344 504 c 2
 344 500 346 494 348 491 c 0
 350 489 352 484 353 481 c 0
 354 478 358 474 363 471 c 1
 369 466 370 465 370 458 c 0
 370 453 371 449 372 448 c 0
 373 447 377 444 381 442 c 0
 387 439 390 436 391 433 c 0
 392 430 395 425 398 421 c 0
 401 417 404 413 404 412 c 0
 404 411 403 408 401 406 c 1
 400 404 399 401 400 400 c 1
 400 399 400 397 399 395 c 0
 398 393 395 390 392 389 c 0
 390 388 385 387 382 387 c 0
 379 387 375 386 373 385 c 0
 371 384 367 383 365 383 c 0
 362 383 359 385 355 391 c 0
 352 395 350 399 350 399 c 1
 350 400 348 403 345 407 c 0
 343 410 341 415 341 416 c 0
 341 418 340 422 338 425 c 1
 337 428 335 435 333 440 c 0
 331 444 328 451 325 454 c 0
 321 459 320 461 321 465 c 1
 321 472 l 1
 320 474 316 479 312 482 c 0
 306 486 301 488 295 489 c 0
 289 490 285 490 282 488 c 0
 280 486 276 480 273 474 c 1
 271 468 267 459 264 454 c 1
 262 449 260 444 260 442 c 0
 260 441 258 437 256 433 c 0
 254 429 250 421 248 415 c 0
 246 409 243 401 240 397 c 0
 237 393 232 388 228 385 c 0
 225 382 221 379 220 379 c 0
 219 379 217 381 215 383 c 1
 214 385 210 386 207 386 c 0
 204 386 200 388 196 392 c 1
 192 395 188 399 187 400 c 1
 186 402 184 405 184 407 c 1
 183 410 183 413 182 415 c 1
 181 416 185 422 195 433 c 0
 203 443 209 451 210 455 c 0
 211 458 214 462 219 465 c 1
 225 470 227 472 229 478 c 0
 230 483 232 487 233 488 c 0
 235 490 238 491 240 493 c 1
 243 494 243 496 243 508 c 0
 243 515 243 522 242 523 c 0
 241 524 234 527 227 529 c 0
 216 532 214 532 210 530 c 0
 208 529 199 527 187 526 c 0
 177 526 165 525 162 524 c 2
 158 524 154 523 152 522 c 0
 150 521 145 520 141 520 c 0
 137 520 131 521 128 522 c 0
 123 524 121 527 119 533 c 0
 117 538 114 543 112 545 c 0
 110.536 547.196 109.608 549.393 109.608 554.728 c 0
 109.608 556.68 109.732 559.053 110 562 c 0
 111 569 112 576 114 578 c 0
 116 580 120 582 123 583 c 1
 126 583 140 584 154 584 c 0
 175 584 179 583 185 581 c 1
 190 578 193 577 212 578 c 0
 225 579 233 580 234 582 c 1
 235 583 235 588 235 592 c 0
 235 597 234 605 232 610 c 0
 230 616 227 622 225 624 c 0
 223 626 221 630 219 632 c 1
 218 635 215 639 214 643 c 1
 212 646 208 651 206 654 c 0
 204 658 202 662 201 665 c 0
 200 668 198 672 196 675 c 0
 194 677 190 682 187 686 c 0
 184 689 181 693 181 694 c 0
 181 695 185 699 189 703 c 0
 194 708 200 712 206 714 c 0
 211 715 219 716 222 716 c 0
 227 716 229 715 230 712 c 0
 231 710 233 706 236 702 c 0
 239 699 241 695 241 694 c 0
 241 693 244 689 247 685 c 0
 250 681 253 676 253 673 c 0
 253 671 255 667 257 665 c 0
 259 662 262 657 263 652 c 1
 265 647 267 642 269 640 c 0
 271 638 273 634 275 630 c 0
 277 626 280 622 282 621 c 0
 285 619 290 618 298 618 c 0
 309 619 310 619 311 623 c 1
 311 626 314 630 318 634 c 0
 322 638 325 643 326 646 c 1
 326 649 328 654 330 655 c 1
 331 657 333 661 333 665 c 0
 333 669 334 673 334 674 c 0
 334 675 336 678 338 681 c 0
 341 684 343 688 343 692 c 0
 343 696 344 700 345 702 c 1
 347 704 348 706 348 708 c 0
 348 710 349 713 350 715 c 0
 351 718 354 720 356 721 c 0
EndSplineSet
Validated: 33
EndChar

StartChar: uni002C
Encoding: 44 44 13
Width: 314
GlyphClass: 2
Flags: W
LayerCount: 2
Fore
SplineSet
164 115 m 1
 167 116 170 117.001 171 117.001 c 2
 171 117.001 175 116.001 180 115.001 c 0
 184 114.001 190 111.001 193 109.001 c 0
 196 107.001 200 105.001 202 105.001 c 0
 203 105.001 205 104.001 205 103.001 c 0
 205 102.001 206 96.001 207 90.001 c 0
 207.274 87.2578 207.474 85.2676 207.474 83.6992 c 0
 207.474 79.5498 206.08 78.3555 201 74.001 c 0
 196 69.001 194 66.001 193 59.001 c 0
 192 54.001 190 50.001 188 47.001 c 1
 185 45.001 183 42.001 183 41.001 c 0
 183 39.001 184 37.001 185 35.001 c 0
 187 32.001 187 31.001 184 28.001 c 0
 182 25.001 178 17.001 175 9.00098 c 0
 172 2.00098 169 -6.99902 168 -10.999 c 1
 166 -14.999 164 -18.999 161 -19.999 c 1
 158 -22.999 157 -24.999 157 -31.999 c 0
 157 -37.999 156 -40.999 153 -42.999 c 0
 151 -44.999 150 -48.999 150 -52.999 c 0
 150 -56.999 148 -60.999 147 -63.999 c 1
 145 -65.999 143 -68.999 142 -70.999 c 1
 142 -72.999 138.96 -80.9844 136 -88.999 c 0
 131.945 -99.9785 129 -104.999 122 -110.999 c 0
 118 -114.999 112 -119.999 109 -122.999 c 0
 106.333 -125.666 105 -126.555 101.741 -126.555 c 0
 100.111 -126.555 98 -126.332 95 -125.999 c 0
 90 -125.999 81 -122.999 77 -120.999 c 0
 71.5352 -118.267 66.6084 -115.65 66.6084 -107.627 c 0
 66.6084 -103.784 67.5361 -98.124 69 -93 c 0
 70 -87 72 -77 72 -70 c 1
 73 -64 74 -58 76 -56 c 1
 77 -54 79 -49 79 -44 c 0
 79 -39 81 -33 83 -31 c 2
 84 -28 87 -24 89 -23 c 0
 93 -20 93 -18 93 12 c 0
 93 40 93 45 96 49 c 0
 98 51 99 56 99 60 c 0
 99 64 101 68 105 74 c 0
 108 78 112 84 114 87 c 0
 116 90 120 95 124 99 c 1
 130 103 134 105 142 106 c 0
 148 107 154 108 155 110 c 1
 157 111 161 113 164 115 c 1
EndSplineSet
Validated: 1
EndChar

StartChar: uni002F
Encoding: 47 47 16
Width: 274
GlyphClass: 2
Flags: W
LayerCount: 2
Fore
SplineSet
275 787 m 1
 276 789 277 790.001 278 790.001 c 0
 279 790.001 282 789.001 285 788.001 c 0
 287 787.001 291 784.001 293 782.001 c 0
 297 779.001 297 777.001 297 767.001 c 0
 297 758.001 297 756.001 294 753.001 c 0
 291 751.001 290 747.001 289 741.001 c 0
 288 735.001 286 729.001 285 727.001 c 0
 283 724.001 282 720.001 282 717.001 c 0
 282 714.001 279 710.001 275 706.001 c 1
 272 702.001 269 698.001 269 697.001 c 0
 269 695.001 268 691.001 266 688.001 c 0
 264 684.001 262 678.001 262 675.001 c 0
 262 671.001 264 666.001 266 664.001 c 1
 269 659.001 269 659.001 266 656.001 c 0
 264 654.001 262 647.001 260 642.001 c 0
 258 636.001 258 631.001 258 629.001 c 1
 259 628.001 256 624.001 253 621.001 c 0
 249 617.001 246 613.001 246 612.001 c 0
 246 611.001 244 607.001 242 603.001 c 0
 239 598.001 238 596.001 239 593.001 c 0
 240 591.001 241 589.001 241 587.001 c 0
 241 585.001 239 582.001 237 578.001 c 1
 233 574.001 232 571.001 232 561.001 c 0
 232 552.001 232 547.001 229 543.001 c 0
 226 538.001 225 535.001 226 528.001 c 0
 227 521.001 226 518.001 224 515.001 c 0
 222 512.001 220 509.001 220 508.001 c 0
 220 507.001 218 504.001 216 502.001 c 0
 213 500.001 211 496.001 211 494.001 c 0
 211 493.001 210 489.001 208 485.001 c 0
 207 482.001 205 477.001 205 473.001 c 0
 205 468.001 203 463.001 201 461.001 c 0
 198 457.001 198 454.001 198 448.001 c 1
 199 441.001 199 439.001 197 437.001 c 1
 195 436.001 194 434.001 194 433.001 c 0
 194 432.001 192 429.001 190 426.001 c 0
 187 423.001 185 418.001 184 414.001 c 0
 183 409.001 181 404.001 180 402.001 c 0
 178 399.001 175 393.001 173 388.001 c 0
 171 382.001 170 377.001 170 373.001 c 0
 171 367.001 170 365.001 165 358.001 c 0
 162 353.001 159 349.001 159 348.001 c 1
 159 348.001 157 344.001 154 341.001 c 1
 151 335.001 150 332.001 150 322.001 c 0
 150 313.001 149 308.001 147 306.001 c 1
 146 303.001 143 298.001 142 294.001 c 0
 141 290.001 139 284.001 137 280.001 c 0
 136 277.001 133 272.001 131 269.001 c 0
 129 266.001 127 263.001 127 261.001 c 0
 127 259.001 125 254.001 123 250.001 c 0
 121 245.001 120 241.001 121 237.001 c 1
 121 233.001 121 230.001 118 227.001 c 0
 116 225.001 115 220.001 115 216.001 c 0
 115 211.001 114 208.001 110 205.001 c 0
 107 202.001 106 199.001 106 194.001 c 0
 106 191.001 105 187.001 104 186.001 c 1
 102 185.001 101 180.001 100 176.001 c 0
 99 172.001 97 165.001 95 161.001 c 1
 92 158.001 90 154.001 90 153.001 c 0
 90 151.001 89 147.001 87 144.001 c 0
 85 140.001 82 136.001 81 135.001 c 1
 79 134.001 78 131.001 78 129.001 c 0
 78 127.001 76 123.001 75 120.001 c 1
 72 116.001 71 111.001 71 103.001 c 0
 71 94.001 70 90.001 68 86.001 c 0
 66 83.001 64 78.001 63 75.001 c 1
 63 72.001 59 63.001 56 56.001 c 0
 51 46.001 50 41.001 50 36.001 c 1
 51 32.001 50 28.001 48 24.001 c 0
 46 21.001 44 16.001 44 13.001 c 0
 44 9.00098 43 5.00098 41 3.00098 c 0
 39 1.00098 37 -1.99902 37 -3.99902 c 0
 37 -5.99902 34 -10.999 30 -15.999 c 0
 26 -19.999 23 -25.999 22 -29.999 c 1
 22 -33.999 20 -39.999 18 -43.999 c 0
 16 -47.999 12 -52.999 9 -55.999 c 1
 5 -57.999 0 -60.999 -4 -62.999 c 0
 -6.61914 -64.3086 -8.09473 -65.0469 -9.42578 -65.0469 c 0
 -11.1436 -65.0469 -12.6191 -63.8174 -16 -61 c 0
 -21 -58 -22 -56 -23 -48 c 0
 -23 -44 -23 -35 -22 -28 c 0
 -21 -18 -19 -14 -15 -9 c 0
 -12 -5 -9 0 -8 3 c 0
 -7 7 -6 12 -6 15 c 0
 -6 18 -5 23 -3 27 c 0
 0 32 1 35 0 40 c 0
 -1 46 0 49 3 55 c 0
 6 60 8 66 8 69 c 0
 8 73 11 82 15 91 c 0
 19 99 24 108 27 111 c 0
 30 114 33 120 34 124 c 0
 35 128 35 135 35 139 c 0
 34 146 34 148 37 151 c 0
 39 153 41 158 42 163 c 0
 43 167 45 173 45 176 c 1
 46 179 49 183 52 186 c 1
 57 189 57 190 56 199 c 0
 55 206 56 211 59 218 c 0
 61 222 62 228 62 229 c 0
 62 231 64 234 65 236 c 1
 67 237 69 241 70 244 c 0
 71 247 74 254 77 260 c 0
 82 269 83 273 84 284 c 0
 85 292 86 300 89 304 c 2
 90 307 94 311 95 313 c 1
 98 314 99 317 99 325 c 0
 99 331 100 338 102 342 c 0
 104 346 106 352 106 355 c 0
 106 358 108 363 109 366 c 1
 112 369 113 374 113 379 c 0
 113 384 114 388 115 389 c 1
 116 389 119 394 121 399 c 0
 123 405 125 410 124 413 c 0
 123 416 124 419 126 422 c 0
 128 425 131 431 134 435 c 0
 136 439 138 448 139 454 c 0
 140 463 141 465 147 471 c 0
 153 478 153 480 154 488 c 2
 154 501 l 1
 153 503 155 510 157 516 c 0
 159 522 163 530 166 533 c 0
 169 536 172 541 173 543 c 0
 174 546 174 551 174 555 c 0
 174 559 176 564 178 566 c 0
 180 569 182 574 183 578 c 0
 184 582 186 588 187 591 c 0
 188 595 191 600 192 602 c 1
 194 604 196 607 196 609 c 0
 196 611 198 614 201 618 c 0
 205 623 206 625 205 632 c 0
 204 640 204 641 209 647 c 0
 212 651 215 657 216 661 c 0
 217 665 218 671 218 674 c 0
 218 679 220 683 222 685 c 0
 224 687 225 691 225 695 c 0
 225 699 227 704 228 707 c 0
 229 710 231 716 232 720 c 1
 232 724 234 729 236 732 c 0
 237 734 239 741 239 751 c 0
 239 759 241 767 242 768 c 2
 243 770 245 771 247 771 c 0
 248 771 253 774 257 778 c 0
 261 782 266 785 268 785 c 0
 271 785 273 786 275 787 c 1
EndSplineSet
Validated: 33
EndChar

StartChar: uni0030
Encoding: 48 48 17
Width: 615
GlyphClass: 2
Flags: W
LayerCount: 2
Fore
SplineSet
307 687 m 0
 304 685 299 685 289 686 c 0
 279 687 274 687 268 685 c 0
 263 684 255 682 250 682 c 1
 244 681 240 680 238 678 c 0
 236 676 234 674 232 674 c 0
 230 674 227 673 225 672 c 0
 222 671 219 667 217 664 c 0
 214 660 209 655 206 652 c 1
 202 650 198 645 197 643 c 0
 196 640 192 635 188 631 c 1
 184 628 179 622 177 618 c 0
 175 615 171 611 170 609 c 1
 167 607 167 605 168 598 c 0
 169 590 168 587 165 581 c 1
 163 575 162 569 162 560 c 0
 161 550 161 547 157 542 c 0
 153 537 153 536 154 518 c 0
 155 500 155 498 151 493 c 0
 149 490 148 486 148 481 c 0
 148 476 147 472 144 469 c 0
 140 466 140 463 139 440 c 0
 139 418 139 414 142 406 c 0
 146 398 146 393 146 377 c 0
 146 363 147 357 148 353 c 1
 150 349 151 347 150 343 c 1
 149 341 148 333 148 326 c 1
 149 319 148 311 147 309 c 0
 146 307 145 301 145 298 c 0
 145 294 146 284 148 276 c 0
 149 268 151 260 153 258 c 0
 155 255 158 249 159 245 c 0
 161 240 162 235 161 226 c 0
 160 217 160 213 163 208 c 1
 164 205 167 199 168 195 c 0
 169 190 169 185 169 183 c 1
 168 181 170 174 174 163 c 0
 178 154 183 144 185 142 c 1
 189 134 l 2
 190 131 193 127 197 123 c 2
 200 119 207 113 212 109 c 0
 217 104 220 100 220 97 c 0
 220 94 222 92 226 89 c 0
 231 85 234 85 239 85 c 1
 245 86 246 86 249 82 c 1
 253 78 254 78 275 78 c 0
 286 78 299 79 303 80 c 0
 309 81 312 80 314 79 c 0
 316.196 77.5361 318.929 76.6084 325.335 76.6084 c 0
 327.68 76.6084 330.517 76.7324 334 77 c 0
 345 78 353 80 355 81 c 0
 358 83 365 85 371 86 c 0
 381 87 383 88 388 94 c 1
 392 97 398 104 402 108 c 1
 406 111 410 116 410 118 c 1
 411 120 416 127 422 133 c 1
 427 140 433 148 435 153 c 0
 437 157 440 164 441 168 c 0
 442 173 444 180 444 184 c 0
 445 190 446 193 450 197 c 0
 454 201 455 203 455 211 c 0
 455 217 456 222 458 225 c 0
 460 228 461 233 461 249 c 2
 461 274 l 1
 460 276 460 281 461 285 c 2
 461 289 463 296 465 299 c 0
 468 306 469 310 469 338 c 2
 469 375 l 2
 469 378 469 387 468 396 c 0
 468 405 466 414 465 418 c 1
 463 422 462 435 461 458 c 0
 461 477 460 495 460 498 c 0
 460 502 459 507 457 510 c 0
 454 515 453 518 454 537 c 0
 454 558 454 560 450 570 c 0
 447 576 443 582 441 584 c 0
 439 586 438 588 439 592 c 1
 439 595 437 601 430 615 c 0
 424 625 416 638 411 644 c 0
 405 651 398 656 392 659 c 0
 385 663 380 664 370 665 c 0
 359 665 356 666 353 669 c 0
 351 671 347 673 345 673 c 0
 342 673 336 675 330 679 c 0
 325 683 319 687 316 688 c 1
 313 688 309 688 307 687 c 0
315 752 m 0
 320 754 327 754.001 329 754.001 c 1
 332 753.001 340 753.001 347 752.001 c 2
 355 752.001 360 751.001 363 748.001 c 0
 366 746.001 369 745.001 372 746.001 c 1
 375 746.001 378 745.001 385 738.001 c 0
 394 730.001 394 730.001 408 731.001 c 0
 421.005 731.93 423 732.001 426 729.001 c 0
 428 727.001 433 724.001 436 723.001 c 0
 441 722.001 444 719.001 446 716.001 c 0
 448 713.001 455 707.001 462 701.001 c 0
 469 695.001 475 690.001 477 690.001 c 0
 478 690.001 482 687.001 485 684.001 c 0
 488 680.001 491 675.001 492 672.001 c 0
 493 669.001 495 666.001 497 666.001 c 1
 499 665.001 501 660.001 502 654.001 c 1
 504 648.001 506 642.001 508 640.001 c 0
 511 637.001 511 633.001 511 623.001 c 0
 511 610.001 511 610.001 524 598.001 c 0
 534 590.001 538 584.001 540 580.001 c 1
 541 575.001 541 570.001 540 562.001 c 0
 539 556.001 538 547.001 539 542.001 c 2
 539 537.001 540 531.001 541 528.001 c 0
 542 526.001 542 522.001 542 520.001 c 1
 541 517.001 542 514.001 544 513.001 c 1
 545 511.001 546 508.001 546 503.001 c 0
 546 499.001 548 492.001 551 487.001 c 0
 555 480.001 555 476.001 555 469.001 c 2
 555 455.001 l 1
 555 441.001 l 2
 555 434.001 556 430.001 559 426.001 c 0
 560.902 423.465 561.599 421.732 561.599 418.511 c 0
 561.599 416.65 561.366 414.294 561 411 c 0
 561 407.667 560.556 399 560.556 388.852 c 0
 560.556 383.777 560.667 378.333 561 373 c 2
 561 320 l 2
 561 298 560 295 557 289 c 0
 554 284 553 281 554 274 c 0
 555 270 555 263 555 259 c 0
 555 255 555 247 554 241 c 2
 554 233 552 229 550 226 c 1
 547 224 546 220 546 213 c 0
 546 207 545 200 544 196 c 0
 543 192 542 185 541 181 c 2
 541 177 538 172 536 169 c 0
 534 166 532 162 532 160 c 0
 532 158 532 156 531 155 c 1
 530 155 529 152 529 149 c 0
 529 146 527 141 526 137 c 1
 524 134 520 128 517 125 c 0
 514 122 510 118 507 116 c 0
 503 114 501 110 500 106 c 0
 499 103 496 97 493 92 c 0
 490 87 482 78 476 71 c 0
 470 65 466 59 466 58 c 0
 466 57 462 53 457 50 c 0
 452 46 445 41 442 38 c 0
 439 35 435 33 434 34 c 0
 433 35 430 33 427 31 c 0
 424 29 417 27 412 26 c 1
 407 26 399 23 394 20 c 0
 389 17 383 14 380 13 c 1
 377 11 375 11 371 12 c 0
 368 13 362 14 359 13 c 2
 356 13 350 10 346 8 c 1
 342.667 5.33301 340.667 4.44434 338.223 4.44434 c 0
 337 4.44434 335.667 4.66699 334 5 c 0
 330 6 319 7 310 6 c 0
 294 6 291 6 285 9 c 0
 280 12 275 13 259 13 c 0
 242 13 239 14 234 17 c 1
 232 19 227 21 224 21 c 0
 221 21 217 23 213 27 c 0
 209 31 204 34 202 34 c 0
 200 34 195 36 192 37 c 0
 188 38 184 40 182 41 c 0
 180 42 175 44 171 46 c 0
 168 48 162 51 160 53 c 0
 158 55 154 56 153 56 c 0
 151 56 147 58 144 61 c 0
 141 63 137 68 136 72 c 1
 134 76 130 82 127 85 c 0
 124 88 120 91 117 91 c 1
 115 92 114 93 114 95 c 0
 114 96 114 99 115 100 c 1
 116 102 115 104 113 107 c 1
 111 108 108 112 105 115 c 0
 102 119 99 124 98 131 c 1
 96 137 92 146 89 151 c 0
 86 156 82 164 82 168 c 1
 81 171 80 176 78 178 c 1
 77 180 76 185 75 189 c 1
 75 193 73 199 72 204 c 0
 71 208 70 215 69 218 c 0
 67 222 67 229 67 233 c 2
 67 247 l 1
 68 252 67 260 67 266 c 0
 67 272 65 279 63 282 c 0
 60 286 60 292 60 327 c 0
 60 348 59 371 58 377 c 0
 57 384 56 391 55 393 c 0
 54 396 53 409 53 422 c 0
 53 435 54 450 54 454 c 1
 55 458 57 463 58 467 c 0
 60 472 60 473 57 480 c 0
 53 489 53 489 57 497 c 0
 61 505 62 508 61 518 c 0
 61 527 61 531 65 538 c 0
 67 543 69 549 69 555 c 0
 69 560 70 566 71 568 c 1
 73 570 74 576 74 582 c 0
 74 592 75 595 78 599 c 0
 81 602 83 605 83 607 c 0
 83 608 84 612 86 617 c 0
 88 621 91 626 92 627 c 1
 94 628 96 633 98 639 c 0
 100 645 103 650 106 653 c 0
 109 655 111 658 111 659 c 0
 111 660 113 664 116 667 c 0
 119 671 121 674 121 675 c 0
 121 676 126 682 132 687 c 2
 153 707 l 2
 159 712 165 716 167 716 c 0
 168 716 172 718 174 721 c 0
 176 723 179 725 180 725 c 0
 182 725 185 727 187 730 c 0
 189 733 192 734 196 734 c 0
 199 734 202 735 203 736 c 1
 205 737 209 738 213 738 c 0
 218 738 223 739 228 742 c 0
 232 745 236 746 237 745 c 1
 238 745 242 746 247 748 c 0
 251 750 258 752 262 752 c 0
 267 753 279 752 289 752 c 1
 303 750 308 750 315 752 c 0
EndSplineSet
Validated: 33
EndChar

StartChar: uni0032
Encoding: 50 50 19
Width: 591
GlyphClass: 2
Flags: W
LayerCount: 2
Fore
SplineSet
287 746 m 0
 291 747 297 747 301 747 c 1
 304 746 311 745 315 745 c 1
 319 744 326 742 331 740 c 0
 335 739 341 738 345 738 c 0
 350 738 355 739 358 741 c 0
 361 743 365 745 367 745 c 0
 369 745 377 742 383 738 c 1
 391 735 398 732 402 733 c 1
 405 733 409 732 411 730 c 0
 413 728 415 727 416 727 c 1
 416 727 421 723 427 717 c 0
 433 711 440 707 445 705 c 0
 450 703 455 700 458 696 c 0
 460 693 463 690 463 689 c 0
 463 688 466 685 469 682 c 0
 473 679 477 675 479 672 c 1
 480 669 482 663 483 659 c 1
 485 655 487 651 489 650 c 0
 491 649 494 643 497 638 c 1
 499 633 501 627 501 626 c 0
 501 625 503 622 505 620 c 0
 507 618 508 615 508 614 c 2
 508 599 l 2
 508 588 509 585 512 581 c 1
 516 578 516 576 516 553 c 0
 516 532 516 529 512 522 c 0
 510 519 509 513 508 510 c 1
 508 507 507 502 506 500 c 1
 504 498 503 491 502 485 c 0
 501 480 500 472 498 469 c 2
 497 465 493 458 490 451 c 0
 487 445 483 438 481 435 c 0
 479 433 476 427 474 423 c 0
 472 418 470 414 469 413 c 0
 467 411 466 409 466 407 c 0
 466 405 464 400 461 397 c 0
 458 393 454 387 452 383 c 0
 450 379 447 376 446 376 c 0
 445 376 442 373 439 369 c 2
 435 365 431 359 429 355 c 0
 426 350 420 341 413 335 c 2
 407 328 400 320 397 317 c 0
 394 314 391 310 391 308 c 1
 390 307 384 300 377 292 c 0
 368 282 364 279 360 279 c 0
 358 279 354 278 353 276 c 2
 351 275 349 271 349 268 c 1
 348 265 345 261 342 258 c 0
 339 254 332 246 325 239 c 0
 319 232 310 224 306 221 c 0
 302 218 297 216 296 216 c 0
 295 216 292 213 290 210 c 0
 287 207 282 203 279 202 c 0
 274 200 272 197 269 192 c 0
 267 188 263 181 260 177 c 0
 257 173 251 168 247 167 c 1
 243 165 239 162 239 161 c 0
 239 160 237 160 235 160 c 0
 232 160 227 156 220 149 c 0
 213 143 207 139 205 139 c 0
 203 139 198 134 191 127 c 1
 186 120 179 112 176 108 c 0
 172 102 171 100 172 96 c 1
 172 93 174 88 176 86 c 0
 178 83 182 81 185 80 c 2
 188 78 195 76 200 74 c 1
 205 73 212 72 215 72 c 1
 218 73 226 74 231 75 c 0
 237 76 247 79 253 81 c 0
 262 84 268 84 298 84 c 2
 337 84 l 2
 339 84 355 84 374 85 c 0
 392.003 85.9473 414 86 422 86 c 0
 433 86 439 85 444 82 c 0
 447 80 453 79 455 79 c 0
 458 79 462 81 465 83 c 0
 469 86 471 86 475 84 c 0
 478 83 482 82 485 81 c 0
 488 80 493 78 497 78 c 1
 503 76 504 75 507 69 c 0
 510 62 510 62 506 55 c 0
 503 50 502 45 502 36 c 0
 502 28 501 24 499 23 c 1
 498 22 495 21 493 21 c 0
 491 21 488 19 487 17 c 1
 484 14 482 13 457 13 c 0
 442 12 428 12 426 12 c 2
 370 12 l 1
 315 12 l 1
 253 12 l 1
 174 12 l 2
 163 12 142 13 127 13 c 0
 107 13 99 14 94 16 c 1
 91 18 86 20 82 22 c 0
 78 24 75 28 71 35 c 0
 66 46 66 46 69 50 c 0
 71 53 72 56 71 61 c 0
 70 65 69 69 67 71 c 0
 66 72 65 79 65 88 c 0
 65 101 66 104 69 107 c 0
 71 109 75 111 78 112 c 1
 81 112 85 115 87 117 c 0
 89 120 94 125 97 129 c 1
 102 134 106 137 109 137 c 0
 112 137 113 138 113 140 c 0
 113 142 114 144 115 145 c 0
 116 146 118 147 120 147 c 0
 121 147 125 149 129 152 c 0
 133 154 136 158 137 159 c 1
 137 161 146 171 157 182 c 0
 173 199 178 203 183 203 c 1
 188 204 190 206 193 213 c 0
 195 217 199 221 201 222 c 0
 203 223 208 226 211 229 c 0
 215 233 219 238 220 241 c 0
 221 243 225 247 228 249 c 1
 231 250 237 255 241 258 c 0
 246 262 251 268 254 271 c 1
 256 275 260 279 264 281 c 0
 268 283 271 285 271 286 c 0
 271 288 275 293 281 299 c 0
 286 305 292 311 294 313 c 1
 295 315 299 318 302 320 c 0
 304 322 308 327 310 331 c 0
 313 336 321 346 329 354 c 0
 337 362 343 370 343 372 c 0
 343 374 345 377 347 378 c 2
 349 380 353 381 355 381 c 0
 357 381 359 382 360 384 c 1
 360 386 364 392 367 397 c 0
 370 402 373 407 373 408 c 0
 373 410 376 415 381 419 c 0
 385 423 389 428 389 430 c 0
 389 432 390 435 391 436 c 0
 393 438 394 441 394 443 c 0
 394 444 396 448 397 450 c 1
 399 452 401 457 402 460 c 0
 403 464 405 469 406 473 c 2
 409 479 410 483 409 489 c 0
 408 495 408 498 412 503 c 1
 415 509 416 512 416 530 c 0
 415 541 415 555 415 561 c 1
 414 567 413 573 412 575 c 0
 409 579 409 580 411 583 c 0
 412 585 414 589 415 593 c 0
 416 597 416 602 416 604 c 1
 415 606 410 611 405 615 c 0
 400 619 396 623 396 624 c 0
 396 626 393 629 390 633 c 0
 387 636 382 642 379 646 c 2
 375 650 372 656 370 659 c 1
 369 662 366 666 365 666 c 1
 363 667 361 667 359 667 c 0
 357 667 353 669 350 671 c 0
 346 673 339 676 333 678 c 0
 326 680 321 681 314 680 c 0
 307 679 305 680 300 683 c 0
 297 685 291 688 286 689 c 0
 278 690 277 690 272 685 c 0
 266 680 265 680 260 682 c 0
 256 683 253 683 248 682 c 1
 245 680 240 680 238 680 c 0
 236 680 231 678 228 676 c 0
 224 674 220 673 218 673 c 0
 217 673 212 670 209 667 c 0
 205 664 201 662 200 662 c 0
 199 662 195 659 191 655 c 0
 186 650 179 642 173 636 c 1
 168 629 163 622 162 617 c 0
 161 614 159 607 157 604 c 0
 155 601 153 595 152 592 c 0
 151 589 151 583 151 579 c 0
 152 573 152 572 144 566 c 1
 140 562 134 558 130 556 c 1
 126 555 120 553 116 552 c 0
 113 551 107 549 103 549 c 0
 98 548 92 549 79 553 c 0
 65 558 61 560 58 565 c 1
 55 568 53 572 53 573 c 0
 53 574 54 576 55 577 c 0
 57 579 57 584 57 592 c 0
 57 603 57 606 63 618 c 0
 66 625 69 632 69 633 c 0
 69 635 71 637 74 638 c 1
 77 640 80 642 80 644 c 0
 80 645 82 651 85 656 c 0
 89 662 92 669 93 672 c 0
 95 676 98 679 102 681 c 0
 106 683 111 687 113 690 c 0
 115 693 121 698 126 701 c 0
 131 705 137 710 139 712 c 0
 142 715 145 716 148 716 c 0
 151 716 154 718 157 721 c 0
 159 723 163 725 165 725 c 0
 167 725 170 727 171 729 c 0
 172 731 175 732 180 732 c 0
 184 732 189 734 192 736 c 0
 196 739 197.995 738.9 216 738 c 0
 236 737 237 738 240 741 c 0
 243 744 246 745 261 745 c 0
 271 745 282 745 287 746 c 0
EndSplineSet
Validated: 33
EndChar

StartChar: uni0034
Encoding: 52 52 21
Width: 565
GlyphClass: 2
Flags: W
LayerCount: 2
Fore
SplineSet
336 588 m 0
 335 589 331.002 590 326.002 590 c 0
 322.002 590 316.002 589 313.002 588 c 0
 310.002 587 304.002 582 301.002 578 c 0
 298.002 574 294.002 568 293.002 565 c 2
 291.002 562 287.002 554 283.002 547 c 2
 275.002 535 l 1
 275.002 534 273.002 531 270.002 527 c 0
 267.002 524 265.002 520 265.002 518 c 0
 265.002 516 264.002 514 262.002 513 c 1
 261.002 512 259.002 510 258.002 508 c 0
 257.002 506 256.002 503 256.002 501 c 0
 256.002 498 253.002 494 246.002 490 c 1
 241.002 486 234.002 479 230.002 472 c 0
 226.002 465 223.002 458 223.002 456 c 0
 223.002 454 221.002 450 219.002 449 c 1
 217.002 447 214.002 442 211.002 437 c 1
 209.002 432 206.002 426 206.002 424 c 1
 205.002 421 202.002 418 200.002 416 c 1
 196.002 414 194.002 411 194.002 408 c 0
 194.002 405 191.002 400 184.002 392 c 0
 179.002 387 173.002 380 171.002 378 c 1
 170.002 376 166.002 370 164.002 366 c 0
 162.002 361 159.002 354 158.002 351 c 1
 158.002 348 155.002 342 152.002 339 c 0
 149.002 336 147.002 332 147.002 330 c 0
 147.002 328 143.002 324 139.002 320 c 0
 133.002 315 131.002 313 131.002 309 c 0
 131.002 306 128.002 302 121.002 294 c 0
 115.002 288 110.002 282 110.002 281 c 0
 110.002 279 108.002 276 106.002 274 c 0
 103.002 272 101.002 268 101.002 267 c 0
 101.002 265 100.002 260 98.002 257 c 0
 96.0996 253.196 95.4033 251 95.4033 249.138 c 0
 95.4033 248.062 95.6357 247.099 96.002 246.001 c 0
 97.002 243.001 99.002 240.001 101.002 238.001 c 0
 103.002 235.001 108.002 233.001 114.002 232.001 c 0
 117.517 230.829 121.031 230.344 124.345 230.344 c 0
 126.688 230.344 128.93 230.586 131.001 231 c 0
 133.122 231.707 145.743 232.414 161.439 232.414 c 0
 167.941 232.414 174.971 232.293 182 232 c 2
 254 232 l 2
 275 232 282 232 285 234 c 0
 287 235 291 237 294 238 c 1
 298 238 303 239 307 240 c 2
 310 240 317 241 322 241 c 1
 328 242 331 243 335 246 c 1
 339 251 339 251 339 326 c 0
 339 399 339 402 343 406 c 0
 346 409 346 412 346 437 c 0
 347 452 347 467 348 471 c 0
 348.309 472.545 348.522 473.804 348.522 474.982 c 0
 348.522 477.618 347.455 479.854 344 484 c 0
 339 490 338 492 339 497 c 0
 340 501 341 506 343 508 c 0
 345 510 346 513 345 521 c 0
 344 526 343 532 342 534 c 1
 341 535 340 547 340 561 c 0
 339 575 338 586 336 588 c 0
371.002 715 m 0
 372.002 716 374.004 715.999 376.004 715.999 c 0
 378.004 715.999 382.004 714.999 383.004 712.999 c 1
 386.004 709.999 388.004 708.999 401.004 709.999 c 0
 411.004 710.999 416.004 709.999 417.004 708.999 c 0
 418.004 707.999 418.004 696.999 418.004 685.999 c 0
 418.004 668.999 419.004 662.999 422.004 659.999 c 1
 424.004 655.999 425.004 648.999 426.004 612.999 c 0
 426.004 597.666 426.448 582.777 426.448 573.666 c 0
 426.448 569.11 426.337 565.999 426.004 564.999 c 1
 426.004 548.999 l 1
 426.004 530.999 l 1
 426.004 510.999 l 2
 426.004 501.999 425.004 498.999 422.004 496.999 c 1
 421.004 494.999 420.004 492.999 420.004 491.999 c 1
 421.004 490.999 419.004 485.999 418.004 480.999 c 1
 416.004 475.999 413.004 466.999 413.004 461.999 c 1
 412.004 454.999 413.004 451.999 416.004 444.999 c 0
 419.004 436.999 418.941 434.003 418.004 418.999 c 0
 417.004 402.999 418.004 399.999 421.004 390.999 c 0
 425.004 381.999 425.004 377.999 425.004 331.999 c 0
 424.004 304.999 424.004 280.999 424.004 277.999 c 1
 425.004 274.999 425.004 268.999 424.004 263.999 c 1
 424.004 258.999 425.004 252.999 425.004 250.999 c 1
 426.004 248.999 431.004 244.999 437.004 242.999 c 2
 443.004 239.999 451.004 236.999 455.004 235.999 c 0
 459.004 234.999 463.004 235.999 466.004 236.999 c 1
 469.004 238.999 476.004 239.999 486.004 239.999 c 0
 499.004 239.999 502.004 238.999 506.004 235.999 c 0
 509.004 232.999 513.004 231.999 515.004 231.999 c 0
 517.004 231.999 520.004 230.999 521.004 228.999 c 1
 522.004 227.999 522.004 225.999 522.004 223.999 c 1
 521.004 221.999 523.004 216.999 526.004 211.999 c 0
 529.004 206.999 532.004 202.999 532.004 201.999 c 0
 532.004 200.999 530.004 198.999 528.004 197.999 c 1
 526.004 195.999 525.004 192.999 525.004 189.999 c 0
 525.004 186.999 524.004 183.999 519.004 179.999 c 0
 514.004 175.999 512.004 174.999 508.004 175.999 c 1
 506.004 176.999 501.004 179.999 498.004 182.999 c 0
 495.004 184.999 491.004 187.999 490.004 187.999 c 0
 488.004 187.999 483.004 184.999 480.004 181.999 c 0
 477.004 179.999 471.004 175.999 468.004 174.999 c 0
 464.004 172.999 457.004 171.999 451.004 171.999 c 0
 442.004 171.999 441.004 171.999 433.004 163.999 c 0
 426.004 155.999 426.004 155.999 426.004 140.999 c 0
 425.004 129.999 426.004 122.999 428.004 117.999 c 0
 430.004 113.999 432.004 105.999 433.004 98.999 c 1
 433.004 91.999 434.004 85.999 433.004 84.999 c 1
 433.004 83.999 433.004 76.999 432.004 67.999 c 2
 432.004 51.999 l 2
 432.004 50.999 432.004 44.999 433.004 39.999 c 1
 433.004 14.999 l 1
 431.004 0.999023 431.004 -0.000976562 425.004 -7.00098 c 0
 419.004 -14.001 417.004 -15.001 408.004 -15.001 c 0
 405.337 -15.334 403.337 -15.5566 401.633 -15.5566 c 0
 398.226 -15.5566 396.003 -14.668 392.003 -12.001 c 0
 388.003 -8.00098 384.003 -7.00098 378.003 -7.00098 c 0
 372.003 -7.00098 367.003 -6.00098 364.003 -4.00098 c 0
 361.003 -2.00098 356.003 -0.000976562 354.003 -0.000976562 c 0
 351.003 -0.000976562 347.003 1.99902 345.003 3.99902 c 0
 342.003 6.99902 340.003 10.999 340.003 18.999 c 1
 339.003 24.999 338.003 47.999 338.003 68.999 c 2
 338.003 112.999 l 2
 338.003 115.999 339.003 121.999 339.003 126.999 c 0
 340.003 134.999 340.003 136.999 335.003 147.999 c 0
 331.003 155.999 328.003 159.999 325.003 161.999 c 1
 322.003 162.999 319.003 164.999 317.003 165.999 c 1
 315.831 167.171 311.914 167.656 298.217 167.656 c 0
 288.531 167.656 273.955 167.414 252.002 167 c 2
 179.002 167 l 2
 172.002 167 158.002 168 147.002 168 c 0
 136.002 168 119.002 167 109.002 166 c 0
 97.002 166 90.002 166 90.002 167 c 1
 89.002 168 86.002 168 81.002 168 c 1
 77.002 167 67.002 166 59.002 166 c 0
 44.002 166 43.002 166 40.002 170 c 0
 38.002 172 36.002 175 36.002 176 c 0
 36.002 177 34.002 182 31.002 186 c 0
 27.002 192 26.002 195 26.002 199 c 1
 27.002 202 28.002 208 28.002 212 c 0
 29.002 217 29.002 220 26.002 226 c 0
 23.002 231 22.002 235 22.002 249 c 0
 22.002 265 23.002 266 28.002 272 c 0
 31.002 276 36.002 280 39.002 281 c 1
 42.002 283 46.002 286 48.002 289 c 0
 51.002 292 52.002 295 52.002 297 c 0
 52.002 298 54.002 301 56.002 303 c 0
 58.002 305 59.002 307 59.002 308 c 0
 59.002 309 61.002 312 63.002 313 c 1
 65.002 315 66.002 319 66.002 323 c 0
 66.002 326 69.002 334 71.002 339 c 0
 74.002 345 80.002 355 85.002 360 c 0
 89.002 365 93.002 371 93.002 372 c 0
 93.002 374 98.002 380 104.002 387 c 0
 110.002 393 115.002 399 115.002 400 c 0
 115.002 401 118.002 405 120.002 409 c 0
 123.002 414 127.002 419 130.002 422 c 0
 133.002 424 135.002 428 135.002 430 c 0
 135.002 432 137.002 436 139.002 439 c 0
 142.002 442 143.002 446 143.002 447 c 0
 143.002 448 146.002 452 148.002 455 c 0
 151.002 458 155.002 461 158.002 463 c 1
 161.002 464 163.002 467 164.002 470 c 0
 165.002 473 167.002 477 168.002 480 c 1
 170.002 482 172.002 485 172.002 486 c 0
 172.002 487 173.002 490 175.002 494 c 0
 177.002 498 179.002 503 180.002 506 c 0
 181.002 509 184.002 511 189.002 513 c 1
 194.002 514 196.002 516 199.002 523 c 1
 202.002 527 206.002 537 210.002 544 c 0
 214.002 551 218.002 559 220.002 561 c 0
 222.002 564 225.002 569 226.002 572 c 0
 227.002 576 230.002 582 233.002 585 c 2
 235.002 589 238.002 593 241.002 594 c 1
 243.002 596 246.002 601 248.002 605 c 0
 250.002 609 253.002 614 255.002 616 c 1
 257.002 617 261.002 622 264.002 627 c 1
 266.002 632 270.002 638 272.002 640 c 0
 275.002 642 280.002 650 284.002 657 c 0
 288.002 665 291.002 672 290.002 674 c 1
 290.002 675 296.002 683 307.002 694 c 0
 324.002 711 324.002 711 330.002 709 c 1
 333.002 707 337.002 705 337.002 704 c 1
 338.002 703 341.002 702 345.002 702 c 0
 349.002 702 352.002 704 355.002 707 c 0
 357.002 709 361.002 711 364.002 712 c 0
 367.002 713 370.002 714 371.002 715 c 0
EndSplineSet
Validated: 33
EndChar

StartChar: uni003A
Encoding: 58 58 27
Width: 376
GlyphClass: 2
Flags: W
LayerCount: 2
Fore
SplineSet
170 130 m 0
 172 132 176 133 185 133 c 0
 192 133 199 132 201 131 c 1
 203 131 208 129 213 129 c 1
 219 128 225 127 227 125 c 0
 230 123 233 118 234 114 c 0
 235 110 237 103 239 100 c 0
 241 96 241 89 241 77 c 0
 241 67 240 59 239 56 c 1
 237 54 235 50 233 49 c 1
 232 48 229 43 227 39 c 0
 225 35 222 31 220 30 c 0
 218 29 205 27 191 27 c 0
 169 27 164 27 158 30 c 2
 154 31 148 36 145 39 c 0
 141 44 139 47 140 50 c 1
 140 52 141 61 142 69 c 0
 143 79 142 87 141 90 c 0
 140 93 140 98 140 102 c 1
 141 106 144 111 149 116 c 0
 154 121 159 125 162 126 c 1
 165 126 168 128 170 130 c 0
181 513 m 0
 197 513 212 514 213 514 c 0
 214 514 219 512 224 508 c 0
 233 502 234 502 234 493 c 1
 235 487 237 482 239 478 c 1
 241.343 475.071 242.313 473.515 242.313 471.521 c 0
 242.313 470.112 241.828 468.485 241 466 c 0
 240 462 238 458 237 457 c 0
 235 455 234 451 235 443 c 0
 235 432 234 430 230 424 c 0
 227 420 223 417 218 416 c 1
 213 414 202 414 188 414 c 0
 168 415 166 415 162 419 c 0
 160 421 155 424 151 424 c 1
 148 425 144 427 143 428 c 1
 142 430 141 436 141 443 c 0
 141 453 140 457 138 461 c 0
 136 464 134 469 134 473 c 0
 134 478 135 481 138 484 c 0
 140 486 142 490 142 492 c 0
 142 494 142 498 143 500 c 2
 143 502 145 506 147 508 c 0
 152 513 152 513 181 513 c 0
EndSplineSet
Validated: 33
EndChar

StartChar: uni003B
Encoding: 59 59 28
Width: 345
GlyphClass: 2
Flags: W
LayerCount: 2
Fore
SplineSet
202 117 m 1
 208 119 213 120 224 120 c 0
 232 120 240 119 241 118 c 1
 242 118 243 114 243 111 c 0
 243 107 241 100 239 96 c 1
 238 92 235 84 235 78 c 0
 234 69 232 66 228 61 c 0
 224 57 222 53 222 53 c 1
 222 52 219 47 215 43 c 0
 209 36 208 36 208 22 c 0
 208 9 208 9 201 2 c 0
 195 -4 194 -6 194 -11 c 0
 194 -14 192 -19 191 -20 c 1
 190 -22 188 -26 188 -28 c 0
 188 -31 187 -35 185 -37 c 0
 183 -39 181 -42 181 -44 c 0
 181 -45 179 -48 177 -50 c 0
 174 -53 172 -56 172 -60 c 0
 172 -64 171 -70 170 -75 c 1
 168 -80 164 -85 160 -88 c 1
 156 -92 153 -95 153 -98 c 0
 153 -100 152 -103 150 -105 c 0
 148 -107 145 -110 143 -111 c 0
 141 -112 135 -113 130 -113 c 0
 124 -113 119 -112 117 -110 c 1
 115 -109 112 -107 110 -107 c 0
 108 -107 104 -105 101 -102 c 0
 99 -99 97 -95 97 -94 c 0
 97 -92 98 -89 100 -86 c 0
 101 -84 102 -80 102 -77 c 0
 102 -75 103 -71 105 -68 c 1
 106 -65 107 -61 107 -58 c 0
 107 -56 109 -48 111 -41 c 0
 113 -33 116 -22 117 -15 c 0
 119 -8 121 4 122 12 c 0
 124 26 124 27 131 34 c 0
 137 40 138 41 137 48 c 0
 136 54 136 57 140 65 c 0
 143 70 144 76 144 81 c 0
 144 87 145 90 148 92 c 0
 150 93 151 96 151 99 c 0
 151 102 153 107 155 109 c 0
 158 113 159 113 176 113 c 0
 190 113 196 114 202 117 c 1
221 520 m 0
 224 525 225.999 526.999 229.999 526.999 c 0
 231.999 526.999 235.999 524.999 238.999 521.999 c 0
 241.999 518.999 243.999 514.999 243.999 512.999 c 0
 243.999 510.999 245.999 507.999 246.999 505.999 c 0
 250.223 499.553 251.36 494.938 251.36 492.173 c 0
 251.36 488.416 250.056 485.583 247 480.999 c 0
 243 473.999 243 471.999 244 463.999 c 0
 244 458.999 246 453.999 248 450.999 c 0
 250 446.999 250 444.999 248 437.999 c 0
 247 433.999 244 427.999 243 424.999 c 1
 241 421.999 235 416.999 229 412.999 c 0
 221 407.999 217 405.999 212 405.999 c 0
 208 405.999 201 406.999 196 408.999 c 0
 191 410.999 181 412.999 173 413.999 c 0
 159 414.999 159 414.999 154 422.999 c 0
 150.545 428.527 149.478 430.235 149.478 437.691 c 0
 149.478 441.026 149.691 445.511 150 452 c 0
 150.5 458 150.75 464.75 150.75 470.875 c 0
 150.75 477 150.5 482.5 150 486 c 0
 150 494 150 500 151 502 c 0
 153 505 154 506 159 505 c 0
 163 504 166 505 171 508 c 0
 176 512 180 513 187 513 c 2
 206 513 l 2
 216 513 216 513 221 520 c 0
EndSplineSet
Validated: 33
EndChar

StartChar: uni003C
Encoding: 60 60 29
Width: 754
GlyphClass: 2
Flags: W
LayerCount: 2
Fore
SplineSet
602 558 m 0
 609.5 560.25 614.75 561.374 620.281 561.374 c 0
 622.125 561.374 624 561.249 626 560.999 c 0
 631 560.999 636 558.999 637 557.999 c 0
 638 556.999 638 552.999 636 549.999 c 1
 635 546.999 634 541.999 634 538.999 c 0
 634 535.999 632 532.999 631 531.999 c 1
 629 530.999 627 526.999 626 522.999 c 1
 624 519.999 620 513.999 616 510.999 c 2
 612 506.999 606 503.999 602 502.999 c 1
 599 502.999 594 501.999 591 501.999 c 0
 588 501.999 581 499.999 576 496.999 c 0
 571 493.999 564 487.999 560 483.999 c 1
 557 479.999 553 475.999 553 474.999 c 0
 553 473.999 551 471.999 550 469.999 c 1
 548 467.999 544 466.999 539 466.999 c 0
 531 466.999 530 465.999 526 461.999 c 1
 523 456.999 522 455.999 515 456.999 c 0
 511 457.999 506 458.999 503 458.999 c 0
 500 458.999 497 457.999 497 455.999 c 1
 496 454.999 494 451.999 492 449.999 c 0
 489 446.999 486 445.999 480 445.999 c 0
 473 445.999 472 444.999 467 438.999 c 0
 464 434.999 460 431.999 458 431.999 c 0
 456 431.999 452 430.999 449 428.999 c 1
 446 427.999 441 425.999 438 425.999 c 1
 436 424.999 430 420.999 424 416.999 c 0
 419 412.999 414 408.999 413 408.999 c 0
 412 408.999 408 406.999 405 403.999 c 0
 401 400.999 397 398.999 395 398.999 c 0
 392 398.999 386 396.999 381 393.999 c 1
 376 391.999 369 389.999 366 389.999 c 0
 362 389.999 359 387.999 355 382.999 c 0
 349 376.999 347 375.999 341 375.999 c 0
 337 375.999 332 374.999 331 374.999 c 1
 329 373.999 327 370.999 325 367.999 c 1
 324 364.999 320 361.999 316 360.999 c 1
 313 358.999 310 356.999 309 354.999 c 1
 309 353.999 305 349.999 301 347.999 c 0
 294 342.999 292 341.999 279 341.999 c 0
 266 341.999 264 341.999 259 336.999 c 0
 256 334.999 251 330.999 248 328.999 c 1
 245 327.999 237 322.999 231 318.999 c 0
 224 313.999 217 310.999 216 310.999 c 0
 215 310.999 212 307.999 210 305.999 c 0
 207 302.999 202 298.999 199 297.999 c 0
 196 296.999 193 294.999 192 293.999 c 1
 192 292.999 191 290.999 191 287.999 c 0
 191 285.999 194 280.999 197 276.999 c 0
 200 271.999 203 268.999 204 268.999 c 0
 205 268.999 209 264.999 213 261.999 c 1
 219 255.999 222 254.999 227 254.999 c 0
 231 254.999 235 252.999 238 249.999 c 0
 241 246.999 244 245.999 248 245.999 c 0
 252 245.999 256 243.999 258 241.999 c 0
 260 239.999 264 238.999 266 238.999 c 0
 269 238.999 275 236.999 280 235.999 c 1
 285 233.999 290 230.999 291 229.999 c 1
 292 227.999 298 222.999 304 218.999 c 0
 311 213.999 319 209.999 322 208.999 c 1
 325 208.999 329 205.999 330 203.999 c 1
 333 200.999 335 199.999 340 199.999 c 0
 345 199.999 347 198.999 351 194.999 c 0
 353 191.999 356 189.999 358 189.999 c 0
 359 189.999 363 187.999 365 184.999 c 0
 368 181.999 370 180.999 375 181.999 c 0
 379 182.999 382 181.999 386 178.999 c 0
 389 176.999 392 174.999 393 174.999 c 0
 394 174.999 395 173.999 396 172.999 c 0
 397 171.999 401 168.999 404 166.999 c 0
 408 163.999 414 160.999 418 158.999 c 1
 422 157.999 426 155.999 427 155.999 c 0
 428 155.999 432 152.999 436 149.999 c 1
 440 145.999 444 143.999 448 143.999 c 0
 451 143.999 457 142.999 461 141.999 c 1
 465 139.999 470 137.999 471 135.999 c 1
 471 134.999 475 132.999 479 131.999 c 0
 482 130.999 490 126.999 495 122.999 c 0
 500 118.999 507 113.999 509 111.999 c 0
 511 108.999 518 104.999 524 101.999 c 0
 529 98.999 535 95.999 536 95.999 c 0
 537 95.999 542 93.999 546 89.999 c 1
 553 84.999 556 83.999 563 82.999 c 1
 569 82.999 574 81.999 577 79.999 c 0
 580 77.999 585 73.999 589 71.999 c 0
 593 69.999 599 67.999 604 65.999 c 0
 608 64.999 613 62.999 616 60.999 c 0
 618 58.999 623 56.999 627 55.999 c 0
 634 54.999 635 54.999 642 41.999 c 0
 647 33.999 653 24.999 656 20.999 c 0
 659 16.999 662 11.999 663 8.99902 c 1
 663 6.99902 663 1.99902 662 -2.00098 c 0
 661 -6.00098 658 -11.001 655 -13.001 c 0
 651.181 -16.0566 649.695 -17.3613 642.965 -17.3613 c 0
 640.885 -17.3613 638.305 -17.2363 635 -17 c 0
 627 -16 619 -15 617 -14 c 1
 616 -13 613 -9 611 -4 c 0
 609 1 606 3 604 3 c 0
 602 3 599 6 596 9 c 0
 593 12 588 15 585 17 c 1
 582 18 577 19 574 19 c 0
 570 19 564 22 556 27 c 0
 550 32 543 36 542 38 c 1
 541 39 537 40 531 40 c 0
 526 40 521 41 518 44 c 1
 515 45 511 47 508 48 c 0
 504 49 500 52 497 56 c 0
 495 59 488 66 483 71 c 0
 476 77 471 81 467 81 c 1
 463 82 458 82 455 82 c 0
 451 82 446 84 442 87 c 0
 439 90 434 93 433 94 c 2
 431 95 428 98 426 101 c 1
 425 104 420 109 415 112 c 0
 409 116 405 118 398 118 c 0
 389 118 388 118 381 125 c 0
 374 131 373 132 366 131 c 0
 359 130 357 130 353 133 c 0
 350 135 346 137 344 137 c 0
 342 137 337 140 332 144 c 0
 327 149 321 154 317 156 c 0
 314 158 310 159 308 159 c 1
 306 158 305 159 303 161 c 1
 302 163 298 167 295 168 c 0
 291 170 286 175 283 179 c 0
 278 187 278 187 266 186 c 0
 256 186 254 186 252 189 c 0
 251 191 247 194 244 196 c 1
 240 197 234 200 230 203 c 1
 225 205 219 207 215 207 c 0
 208 207 206 208 196 219 c 0
 189 225 183 230 182 230 c 0
 181 230 176 234 171 239 c 0
 166 244 160 248 158 249 c 1
 155 249 152 250 150 251 c 0
 148 252 142 255 137 258 c 0
 133 261 127 263 126 263 c 0
 125 263 120 267 116 271 c 0
 111 277 108 279 104 279 c 0
 101 279 97 281 96 282 c 0
 94 284 92 287 92 290 c 2
 91 293 92 297 93 300 c 1
 95 302 97 306 99 307 c 2
 101 309 107 312 113 314 c 0
 121 316 125 319 134 327 c 1
 139 333 145 337 146 337 c 0
 147 337 150 338 152 339 c 0
 155 341 161 342 165 343 c 0
 170 344 176 346 179 348 c 1
 182 349 188 352 193 353 c 2
 197 355 203 357 207 357 c 1
 210 358 216 361 219 364 c 0
 223 368 229 372 233 374 c 0
 236 376 242 378 245 378 c 1
 248 379 251 380 252 381 c 1
 252 382 257 385 261 387 c 0
 266 390 272 392 273 392 c 0
 274 392 281 397 287 403 c 0
 298 413 300 414 306 414 c 0
 310 414 317 416 323 418 c 0
 328 420 335 424 339 426 c 0
 343 429 346 432 346 434 c 1
 347 436 349 438 350 439 c 0
 351 440 358 443 364 445 c 1
 371 446 379 449 382 449 c 1
 386 450 392 452 396 454 c 0
 401 456 405 458 407 459 c 1
 408 460 413 462 418 465 c 1
 423 467 427 469 428 469 c 0
 429 469 434 472 439 475 c 0
 443 478 447 482 448 483 c 2
 454 487 l 2
 456 489 464 494 471 497 c 0
 478 500 486 503 489 503 c 1
 492 504 496 506 498 508 c 0
 499 509 505 512 509 514 c 1
 513 515 522 517 528 518 c 1
 538 518 539 519 543 525 c 0
 545 529 551 534 555 537 c 0
 560 541 564 545 565 548 c 0
 566 551 568 554 570 555 c 0
 572 556 576 556 581 555 c 0
 588 554 592 554 602 558 c 0
EndSplineSet
Validated: 33
EndChar

StartChar: uni003F
Encoding: 63 63 32
Width: 552
GlyphClass: 2
Flags: W
LayerCount: 2
Fore
SplineSet
216 118 m 0
 221 120 227 121 236 121 c 0
 247 121 249 120 259 115 c 1
 264 111 272 105 276 101 c 0
 281 96 283 93 282 91 c 1
 282 89 283 86 284 84 c 1
 285 83 287 76 288 69 c 0
 288.268 66.5889 288.392 64.4648 288.392 62.5312 c 0
 288.392 57.249 287.464 53.3926 286 49 c 0
 284 45 280 38 276 34 c 0
 272 30 268 26 266 26 c 0
 265 26 262 25 260 24 c 0
 257 22 249 21 233 21 c 0
 226 20.667 221.111 20.4443 217.556 20.4443 c 0
 210.444 20.4443 208.667 21.333 206 24 c 0
 203 26 198 28 196 28 c 0
 193 28 190 29 187 31 c 0
 185 32 183 36 182 40 c 1
 182 43 180 48 179 50 c 0
 178 52 176 57 176 60 c 0
 175.634 61.8301 175.401 63.3926 175.401 64.834 c 0
 175.401 67.3301 176.098 69.4639 178 72 c 0
 181 76 182 79 181 86 c 0
 180 94 180 94 188 103 c 0
 194 109 199 112 203 113 c 0
 206 114 212 116 216 118 c 0
241 763 m 0
 244 764 246 766 247 766 c 0
 248 766 251 764 253 762 c 0
 256 760 260 759 271 759 c 0
 282 760 285 759 287 756 c 0
 290 753 292 753 304 753 c 0
 315 754 318 753 324 750 c 0
 330 747 334 746 342 746 c 0
 350 746 353 746 357 743 c 0
 360 741 363 739 364 739 c 0
 365 739 369 737 374 733 c 0
 379 730 387 727 392 725 c 1
 399 724 402 721 409 714 c 0
 414 709 420 703 421 700 c 0
 423 696 427 692 430 690 c 0
 433 688 439 682 443 674 c 0
 448 666 450 660 450 656 c 0
 450 652 452 649 454 647 c 0
 456 645 457 642 457 640 c 1
 456 638 457 634 459 631 c 0
 462 628 463 623 464 617 c 1
 464 611 465 606 467 604 c 0
 469 602 470 598 470 590 c 0
 470 580 469 578 466 575 c 0
 463 573 463 570 463 561 c 0
 463 555 464 547 465 543 c 0
 467 535 466 534 459 523 c 0
 455 516 451 508 449 504 c 1
 448 500 445 496 443 495 c 1
 441 493 436 489 431 484 c 0
 427 480 423 473 421 468 c 1
 420 463 417 459 415 458 c 0
 413 457 409 454 407 450 c 1
 404 447 400 443 398 442 c 0
 396 441 393 438 392 436 c 0
 391 434 387 430 385 428 c 0
 382 426 376 419 372 413 c 0
 369 408 364 401 361 398 c 0
 359 396 354 393 352 392 c 1
 349 392 343 387 337 382 c 0
 332 377 326 370 323 366 c 0
 321 363 316 359 314 359 c 1
 311 358 307 357 305 356 c 0
 303 355 301 354 301 353 c 0
 301 352 299 348 296 345 c 2
 294 341 288 335 284 330 c 0
 280 325 276 319 275 317 c 0
 274 315 274 294 274 271 c 0
 274 232 274 228 271 223 c 1
 269 221 268 216 268 213 c 0
 268 210 267 207 265 205 c 0
 264 204 260 202 256 200 c 0
 251 197 246 196 232 196 c 0
 215 196 214 196 204 202 c 0
 193 208 193 208 194 215 c 0
 194 219 194 242 195 267 c 0
 195 309 195 312 199 320 c 0
 201 324 204 329 205 329 c 1
 206 330 208 334 210 339 c 1
 213 344 216 350 217 351 c 1
 219 352 220 355 220 357 c 0
 220 360 222 363 225 365 c 0
 228 367 231 371 233 374 c 0
 234 376 238 379 240 381 c 1
 243 382 245 385 246 386 c 1
 246 388 252 394 258 399 c 0
 265 405 271 409 273 409 c 0
 275 409 281 413 286 419 c 2
 292 424 296 429 296 430 c 0
 296 431 298 433 301 435 c 1
 304 436 308 441 311 446 c 0
 314 450 322 461 330 470 c 0
 337 479 344 489 346 492 c 1
 347 495 349 499 351 500 c 1
 352 501 354 505 355 509 c 0
 356 512 357 517 359 519 c 0
 360 520 362 527 363 533 c 0
 364 541 365 546 368 548 c 1
 370 551 371 554 371 557 c 0
 371 559 370 562 369 563 c 1
 368 565 368 567 369 572 c 0
 370 576 371 581 371 584 c 0
 371 587 370 592 369 595 c 0
 368 599 366 602 366 604 c 1
 365 605 364 609 364 613 c 0
 363 618 361 624 357 629 c 2
 355 633 352 637 352 638 c 1
 352 638 346 645 339 652 c 0
 332 659 325 667 324 669 c 1
 322 671 318 673 316 673 c 0
 313 673 309 674 306 677 c 0
 304 680 299 682 295 682 c 0
 292 682 288 684 286 685 c 1
 283 688 278 688 250 688 c 0
 219 687 217 687 213 684 c 1
 209 680 208 680 188 681 c 0
 176 682 160 682 151 682 c 0
 137 681 136 681 132 685 c 0
 129 687 126 692 125 697 c 1
 123 701 121 706 119 709 c 0
 117 711 115 715 115 716 c 0
 115 717 117 721 120 725 c 0
 123 728 125 732 125 733 c 0
 125 734 128 738 132 741 c 0
 135 744 139 746 140 746 c 0
 142 746 144 748 145 750 c 1
 147 752 149 753 155 753 c 0
 160 753 164 754 166 756 c 0
 169 759 170 759 178 757 c 0
 182 756 190 754 196 754 c 1
 203 753 206 754 210 757 c 0
 214 759 218 760 226 760 c 0
 232 760 239 762 241 763 c 0
EndSplineSet
Validated: 33
EndChar

StartChar: uni0041
Encoding: 65 65 34
Width: 721
GlyphClass: 2
Flags: W
LayerCount: 2
Fore
SplineSet
367 634 m 0
 364 636 359.001 638 356.001 638 c 0
 354.334 638.333 353.001 638.556 351.815 638.556 c 0
 349.445 638.556 347.668 637.667 345.001 635 c 0
 343.001 632 340.001 630 339.001 630 c 0
 338.001 630 335.001 628 333.001 626 c 0
 330.001 623 326.001 616 324.001 610 c 0
 322.001 604 321.001 598 321.001 596 c 1
 322.001 595 321.001 591 321.001 588 c 1
 320.001 585 316.001 578 312.001 573 c 0
 308.001 568 305.001 562 305.001 561 c 0
 305.001 559 303.001 555 301.001 552 c 0
 299.001 549 298.001 544 298.001 538 c 0
 298.001 532 296.001 526 294.001 521 c 0
 292.001 517 289.001 511 287.001 508 c 2
 286.001 505 283.001 501 281.001 499 c 1
 280.001 497 277.001 488 274.001 479 c 0
 272.001 471 269.001 462 267.001 460 c 0
 266.001 459 263.001 453 261.001 447 c 0
 259.001 441 256.001 432 253.001 428 c 0
 249.001 421 249.001 419 251.001 414 c 0
 253.001 409 252.001 408 248.001 405 c 0
 245.001 402 243.001 399 243.001 395 c 0
 243.001 392 242.001 386 240.001 382 c 0
 237.001 378 234.001 373 232.001 370 c 0
 230.001 368 227.001 362 225.001 356 c 0
 223.001 351 220.001 344 218.001 341 c 0
 217.001 339 215.001 334 215.001 332 c 0
 215.001 329 214.001 324 212.001 320 c 0
 209.001 316 208.001 310 208.001 302 c 0
 208.001 292 209.001 289 213.001 285 c 0
 215.001 282 220.001 279 224.001 278 c 0
 229.001 277 234.001 276 235.001 276 c 0
 237.001 276 243.001 275 247.001 274 c 0
 251.001 273 257.001 272 259.001 270 c 1
 261.001 269 266.001 269 270.001 269 c 1
 274.001 270 279.001 272 282.001 273 c 1
 286.001 276 289.001 277 304.001 276 c 0
 314.001 276 354.001 275 394.001 275 c 0
 459.001 275 468.001 275 472.001 278 c 0
 474.001 279 479.001 281 483.001 282 c 1
 487.001 282 490.001 284 492.001 287 c 0
 493.465 289.196 494.393 291.393 494.393 294.373 c 0
 494.393 299.023 493 299.023 493 306 c 2
 493 317 l 1
 494 322 493 330 491 336 c 0
 489 342 488 349 488 353 c 0
 488 358 487 360 483 363 c 0
 481 364 478 368 477 372 c 0
 476 376 474 380 473 380 c 1
 472 381 472 383 472 385 c 0
 472 386 470 390 468 392 c 0
 465 395 464 398 464 404 c 0
 464 411 463 413 459 417 c 0
 456 420 452 427 450 434 c 1
 447 440 443 447 441 450 c 0
 438 453 437 457 437 460 c 1
 436 462 435 466 434 469 c 0
 433 471 431 476 431 478 c 0
 431 481 429 487 427 490 c 0
 423 496 423 498 424 505 c 1
 424 513 424 514 420 518 c 0
 418 521 415 525 413 529 c 0
 412 532 409 538 406 542 c 0
 402 547 400 552 400 555 c 0
 400 557 398 563 397 568 c 1
 395 573 391 582 388 588 c 0
 385 595 381 603 379 607 c 2
 378 611 376 618 374 622 c 2
 373 629 371 632 367 634 c 0
356.001 734 m 0
 362.001 736 367 736.999 378 736.999 c 0
 387 736.999 393 736.999 395 734.999 c 0
 397 732.999 401 731.999 403 731.999 c 0
 407 731.999 409 730.999 413 725.999 c 1
 415 721.999 417 716.999 417 714.999 c 0
 417 711.999 420 706.999 425 701.999 c 0
 429 697.999 433 691.999 433 689.999 c 0
 433 687.999 434 684.999 436 681.999 c 0
 437 679.999 440 673.999 441 668.999 c 2
 443 663.999 444 656.999 445 652.999 c 0
 446 649.999 448 643.999 450 640.999 c 0
 452 637.999 454 632.999 454 631.999 c 0
 454 629.999 456 625.999 458 621.999 c 0
 460 617.999 463 613.999 465 610.999 c 0
 467 608.999 468 603.999 468 599.999 c 0
 468 595.999 469 590.999 471 587.999 c 0
 472 585.999 473 581.999 473 578.999 c 0
 473 575.999 475 570.999 478 567.999 c 1
 480 563.999 482 559.999 482 558.999 c 0
 482 557.999 484 553.999 486 549.999 c 0
 488 546.999 489 541.999 489 539.999 c 0
 489 537.999 491 532.999 493 527.999 c 1
 496 523.999 501 514.999 504 507.999 c 1
 508 501.999 513 493.999 515 491.999 c 0
 518 488.999 519 486.999 519 484.999 c 1
 518 482.999 519 479.999 520 477.999 c 0
 521 475.999 523 472.999 523 470.999 c 0
 523 468.999 524 465.999 526 462.999 c 0
 528 460.999 530 454.999 530 450.999 c 0
 531 443.999 532 440.999 537 434.999 c 1
 541 431.999 544 426.999 544 425.999 c 0
 544 424.999 548 414.999 554 402.999 c 0
 560 391.999 566 379.999 568 377.999 c 0
 571 374.999 572 370.999 572 364.999 c 0
 572 359.999 573 354.999 575 352.999 c 0
 577 349.999 582 341.999 586 332.999 c 0
 589 324.999 593 316.999 594 313.999 c 1
 594 311.999 597 306.999 599 303.999 c 1
 601 298.999 602 296.999 601 288.999 c 0
 600 279.999 600 279.999 605 275.999 c 0
 608 273.999 611 268.999 612 264.999 c 0
 614 259.999 616 254.999 619 251.999 c 0
 621 248.999 623 244.999 623 242.999 c 0
 623 239.999 625 234.999 627 229.999 c 1
 630 225.999 632 218.999 632 215.999 c 0
 632 212.999 633 207.999 634 205.999 c 0
 635 202.999 638 198.999 640 197.999 c 1
 642 195.999 644 192.999 644 190.999 c 0
 644 189.999 645 185.999 647 183.999 c 0
 650 180.999 651 176.999 651 171.999 c 0
 651 167.999 652 161.999 654 157.999 c 0
 656 154.999 658 149.999 658 146.999 c 0
 658 143.999 659 141.999 662 140.999 c 1
 665 138.999 667 136.999 667 134.999 c 0
 667 132.999 668 128.999 670 126.999 c 0
 672 123.999 673 120.999 673 118.999 c 1
 672 115.999 673 112.999 675 109.999 c 0
 677 107.999 681 99.999 685 92.999 c 0
 688 85.999 691 78.999 691 76.999 c 0
 691 74.999 693 72.999 695 70.999 c 0
 697 68.999 698 65.999 698 61.999 c 0
 698 59.999 700 53.999 702 48.999 c 0
 704 44.999 707 38.999 709 36.999 c 0
 711 33.999 712 27.999 713 20.999 c 1
 713 9.99902 713 9.99902 708 7.99902 c 0
 705 6.99902 701 4.99902 699 2.99902 c 0
 697 0.999023 690 0.999023 665 -0.000976562 c 0
 635 -0.000976562 635 -0.000976562 630 6.99902 c 0
 627 10.999 622 15.999 619 18.999 c 1
 615 20.999 611 26.999 610 30.999 c 2
 608 34.999 607 38.999 607 40.999 c 0
 607 42.999 605 46.999 603 49.999 c 0
 601 52.999 600 55.999 600 60.999 c 0
 600 65.999 599 70.999 593 79.999 c 0
 590 85.999 586 94.999 585 98.999 c 0
 584 102.999 582 108.999 580 111.999 c 1
 579 114.999 577 119.999 576 123.999 c 1
 576 126.999 574 131.999 572 135.999 c 0
 570 138.999 567 146.999 565 152.999 c 1
 564 158.999 562 165.999 560 167.999 c 0
 559 168.999 558 171.999 558 173.999 c 0
 558 175.999 555 182.999 552 188.999 c 1
 547 195.999 544 199.999 541 200.999 c 1
 538 200.999 533 203.999 530 205.999 c 0
 523 210.999 522 210.999 510 209.999 c 0
 503 208.999 493 208.999 488 209.999 c 0
 484.485 211.171 478.568 211.656 470.25 211.656 c 0
 464.368 211.656 457.285 211.414 449.001 211 c 0
 437.403 210.172 430.438 209.687 426.044 209.687 c 0
 419.83 209.687 418.759 210.657 417.001 213 c 0
 414.001 216 412.001 217 397.001 217 c 0
 383.001 217 380.001 216 377.001 213 c 0
 373.001 210 369.001 210 281.001 210 c 0
 192.001 210 188.001 210 181.001 207 c 0
 178.001 205 173.001 204 172.001 204 c 0
 170.001 204 168.001 203 166.001 201 c 0
 165.001 200 164.001 198 164.001 196 c 0
 164.001 194 163.001 190 161.001 189 c 1
 159.001 187 156.001 182 154.001 178 c 0
 152.001 174 151.001 169 152.001 164 c 1
 152.001 159 152.001 157 149.001 154 c 0
 147.001 151 142.001 144 139.001 137 c 0
 135.001 130 132.001 119 131.001 113 c 0
 130.001 107 127.001 98 123.001 91 c 0
 120.001 84 117.001 78 117.001 76 c 0
 117.001 75 115.001 72 113.001 70 c 0
 111.001 67 110.001 64 110.001 63 c 0
 110.001 62 108.001 59 106.001 56 c 0
 104.001 53 102.001 47 102.001 43 c 1
 101.001 39 99.001 34 97.001 32 c 1
 96.001 30 93.001 26 92.001 23 c 0
 90.001 19 88.001 15 86.001 13 c 1
 84.001 12 80.001 9 77.001 8 c 0
 74.001 7 70.001 4 67.001 3 c 2
 63.001 0 60.001 0 47.001 0 c 0
 36.001 1 29.001 2 22.001 6 c 2
 16.001 8 11.001 11 11.001 13 c 1
 10.001 15 10.001 18 10.001 21 c 0
 10.001 23 11.001 29 13.001 34 c 0
 15.001 40 19.001 48 21.001 54 c 0
 23.001 59 25.001 67 27.001 71 c 2
 28.001 75 33.001 86 38.001 96 c 0
 43.001 106 48.001 115 49.001 115 c 1
 49.001 116 50.001 117 50.001 119 c 0
 50.001 120 52.001 124 55.001 127 c 0
 57.001 130 59.001 133 58.001 135 c 1
 58.001 137 57.001 140 56.001 142 c 0
 55.001 144 56.001 146 60.001 148 c 1
 64.001 149 65.001 153 69.001 163 c 0
 71.001 170 73.001 177 73.001 178 c 0
 73.001 179 76.001 185 80.001 191 c 0
 84.001 197 87.001 204 87.001 207 c 0
 87.001 210 89.001 216 91.001 221 c 1
 94.001 226 96.001 233 97.001 236 c 0
 98.001 240 100.001 246 103.001 249 c 0
 105.001 252 109.001 258 110.001 263 c 2
 112.001 267 114.001 276 115.001 282 c 0
 116.001 288 118.001 295 119.001 298 c 0
 120.001 300 122.001 304 123.001 305 c 1
 124.001 307 127.001 313 129.001 319 c 0
 131.001 324 133.001 333 134.001 337 c 0
 135.001 341 138.001 349 140.001 353 c 0
 142.001 357 145.001 363 147.001 365 c 0
 149.001 367 150.001 371 150.001 373 c 0
 150.001 375 151.001 378 153.001 380 c 1
 154.001 382 155.001 385 155.001 386 c 1
 156.001 388 157.001 391 159.001 394 c 0
 161.001 396 163.001 402 164.001 406 c 1
 164.001 411 166.001 415 167.001 416 c 0
 168.001 417 170.001 419 170.001 420 c 0
 170.001 422 171.001 425 173.001 427 c 0
 175.001 429 177.001 436 178.001 441 c 0
 179.001 447 182.001 454 185.001 456 c 1
 187.001 459 189.001 462 189.001 464 c 0
 189.001 465 191.001 468 193.001 471 c 1
 197.001 474 198.001 478 199.001 485 c 0
 200.001 492 201.001 496 206.001 502 c 0
 211.001 508 212.001 511 212.001 518 c 1
 213.001 524 214.001 528 217.001 531 c 0
 220.001 535 220.001 538 220.001 541 c 1
 219.001 544 219.001 546 220.001 547 c 0
 221.001 548 224.001 552 227.001 557 c 1
 229.001 562 231.001 569 232.001 573 c 0
 233.001 577 235.001 581 237.001 584 c 0
 238.001 586 240.001 588 240.001 589 c 0
 240.001 590 243.001 595 248.001 601 c 0
 254.001 609 256.001 612 256.001 619 c 0
 256.001 624 258.001 631 263.001 641 c 0
 267.001 649 270.001 657 270.001 659 c 0
 270.001 661 271.001 667 273.001 672 c 0
 275.001 676 278.001 683 280.001 687 c 0
 281.001 690 284.001 694 287.001 696 c 0
 289.001 698 291.001 701 291.001 704 c 0
 291.001 708 292.001 711 296.001 714 c 0
 299.001 716 303.001 718 304.001 718 c 0
 306.001 718 309.001 721 312.001 723 c 1
 315.001 727 320.001 729 326.001 731 c 0
 332.001 733 337.001 733 341.001 732 c 0
 347.001 730 349.001 731 356.001 734 c 0
EndSplineSet
Validated: 33
EndChar

StartChar: uni0044
Encoding: 68 68 37
Width: 763
GlyphClass: 2
Flags: W
LayerCount: 2
Fore
SplineSet
267 656 m 0
 262 658 254.999 659 242.999 659 c 0
 229.999 659 225.999 659 222.999 656 c 1
 220.999 655 215.999 653 212.999 653 c 0
 209.999 653 203.999 652 199.999 650 c 0
 195.999 648 189.999 644 187.999 640 c 1
 181.999 633 181.999 633 181.999 599 c 0
 181.999 565 181.999 564 185.999 558 c 0
 189.999 552 190.999 550 188.999 541 c 1
 188.999 535 187.999 530 186.999 530 c 0
 185.999 530 184.999 528 183.999 526 c 0
 182.999 524 181.999 515 181.999 505 c 0
 181.999 490 181.999 488 185.999 483 c 0
 188.999 479 188.999 477 188.999 436 c 0
 188.999 393 188.999 393 184.999 387 c 0
 181.937 382.712 180.75 381.051 180.75 373.511 c 0
 180.75 368.742 181.272 361.626 181.999 350 c 0
 182.999 334 182.999 312 182.999 301 c 0
 182.999 284 182.999 281 186.999 275 c 0
 189.999 270 189.999 266 190.999 251 c 2
 190.999 220 l 1
 190.999 190 l 1
 190.999 167 l 2
 190.999 163 189.999 142 189.999 119 c 0
 189.69 106.021 189.477 97.0527 189.477 90.708 c 0
 189.477 76.5215 190.544 75.4541 193.999 71.999 c 0
 196.999 68.999 199.999 66.999 201.999 66.999 c 0
 203.999 66.999 206.999 63.999 208.999 60.999 c 0
 212.055 57.9434 213.359 56.6387 217.372 56.6387 c 0
 218.612 56.6387 220.11 56.7637 221.999 57 c 0
 226.999 58 235.999 58 239.999 58 c 0
 244.999 57 251.999 57 253.999 57 c 1
 256.999 58 262.999 58 266.999 58 c 1
 270.999 57 276.999 57 280.999 57 c 0
 285.999 57 289.999 58 292.999 61 c 0
 296.332 63.667 297.888 64.5557 308.036 64.5557 c 0
 313.11 64.5557 320.333 64.333 331 64 c 0
 350 64 372 64 381 65 c 0
 391 66 397 66 398 65 c 0
 399 64 403 63 408 63 c 0
 413 63 416 64 421 68 c 0
 424 71 429 74 433 75 c 2
 436 77 445 78 456 78 c 0
 469 78 474 79 475 81 c 1
 477 82 484 89 491 96 c 0
 499 104 509 112 514 115 c 0
 520 118 526 124 531 131 c 0
 535 137 541 143 544 145 c 1
 547 146 551 151 554 155 c 0
 557 159 559 164 559 168 c 0
 559 171 560 174 561 175 c 1
 562 175 565 180 567 185 c 0
 569 190 573 198 577 203 c 0
 581 209 582 213 582 220 c 0
 582 225 583 230 586 234 c 1
 589 240 589 242 588 252 c 0
 587 262 588 264 591 267 c 0
 594 271 593.883 274.007 595 293 c 0
 596 310 596 315 599 319 c 0
 602 323 602 328 602 360 c 0
 602 393 602 396 599 403 c 1
 595 409 595 413 595 435 c 0
 595 459 595 459 588 474 c 0
 584 482 580 490 580 491 c 0
 580 492 578 500 576 508 c 0
 574 517 570 525 569 527 c 1
 567 529 566 532 566 534 c 0
 566 535 565 538 563 540 c 0
 561 542 559 545 559 546 c 0
 559 548 554 555 549 562 c 0
 543 569 535 577 531 580 c 0
 527 583 523 588 523 590 c 1
 521 594 l 1
 520 594 515 597 510 601 c 0
 504 606 499 609 498 609 c 0
 497 609 493 612 488 616 c 0
 484 620 476 624 470 627 c 1
 464 629 455 631 450 631 c 0
 445 631 441 633 437 635 c 1
 434 638 430 639 424 639 c 0
 417 639 411 641 401 646 c 0
 386 653 386 653 330 653 c 0
 281 653 273 653 267 656 c 0
170.999 719 m 1
 170.999 719.5 171.998 719.751 173.373 719.751 c 0
 174.748 719.751 176.498 719.501 177.998 719.001 c 0
 180.998 718.001 206.998 718.001 233.998 717.001 c 0
 276.998 717.001 284.998 717.001 288.998 714.001 c 0
 290.998 713.001 296.998 711.001 301.998 710.001 c 1
 306.998 710.001 312.998 709.001 315.998 709.001 c 2
 361.998 709.001 l 1
 423.998 709.001 l 2
 436.998 708.001 445.998 707.001 449.998 706.001 c 1
 453.998 704.001 459.998 703.001 464.998 703.001 c 0
 470.998 703.001 476.998 701.001 480.998 699.001 c 0
 484.998 697.001 489.998 694.001 492.998 691.001 c 0
 496.998 688.001 497.998 688.001 502.998 690.001 c 0
 508.998 692.001 508.998 692.001 511.998 688.001 c 0
 513.998 686.001 519.998 683.001 524.998 681.001 c 0
 530.998 679.001 537.998 675.001 540.998 672.001 c 0
 542.998 670.001 546.998 667.001 548.998 667.001 c 0
 550.998 667.001 554.998 665.001 557.998 662.001 c 0
 560.998 660.001 566.998 655.001 570.998 653.001 c 0
 573.998 651.001 581.998 644.001 587.998 638.001 c 0
 593.998 631.001 599.998 626.001 600.998 624.001 c 1
 601.998 623.001 605.998 620.001 607.998 618.001 c 0
 610.998 615.001 614.998 612.001 616.998 611.001 c 0
 618.998 610.001 621.998 607.001 622.998 604.001 c 2
 627.998 594.001 l 2
 629.998 591.001 631.998 586.001 633.998 582.001 c 0
 635.998 578.001 638.998 573.001 640.998 571.001 c 1
 643.998 570.001 646.998 566.001 648.998 563.001 c 0
 650.998 560.001 651.998 556.001 651.998 553.001 c 0
 651.998 551.001 654.998 544.001 658.998 537.001 c 0
 662.998 530.001 665.998 521.001 666.998 518.001 c 0
 667.998 514.001 669.998 509.001 671.998 507.001 c 0
 673.998 504.001 674.998 500.001 674.998 498.001 c 0
 674.998 496.001 676.998 493.001 677.998 492.001 c 1
 680.998 491.001 680.998 488.001 680.998 480.001 c 0
 680.998 474.001 682.998 463.001 684.998 456.001 c 2
 685.998 448.001 688.998 438.001 690.998 434.001 c 0
 693.998 427.001 694.998 423.001 694.998 378.001 c 0
 695.331 362.334 695.554 351.667 695.554 344 c 0
 695.554 328.667 694.665 325.334 691.998 318.001 c 0
 687.998 310.001 687.998 305.001 687.998 293.001 c 0
 687.998 279.001 687.998 277.001 683.998 273.001 c 1
 680.998 269.001 679.998 268.001 680.998 255.001 c 0
 680.998 244.001 679.998 240.001 677.998 236.001 c 1
 675.998 234.001 674.998 228.001 674.998 224.001 c 0
 674.998 218.001 673.998 214.001 670.998 209.001 c 0
 668.998 206.001 665.998 200.001 664.998 197.001 c 1
 664.998 195.001 660.998 187.001 657.998 181.001 c 0
 654.998 175.001 651.998 169.001 651.998 167.001 c 0
 651.998 166.001 650.998 163.001 649.998 161.001 c 1
 647.998 160.001 646.998 157.001 645.998 155.001 c 1
 645.998 153.001 644.998 151.001 644.998 150.001 c 0
 644.998 149.001 642.998 145.001 638.998 141.001 c 1
 635.998 137.001 632.998 130.001 631.998 126.001 c 0
 629.998 120.001 625.998 115.001 612.998 102.001 c 0
 603.998 93.001 591.998 81.001 585.998 76.001 c 2
 580.998 70.001 572.998 63.001 567.998 61.001 c 0
 563.998 59.001 557.998 55.001 553.998 52.001 c 1
 550.998 48.001 544.998 45.001 542.998 44.001 c 0
 539.998 43.001 535.998 42.001 533.998 42.001 c 0
 531.998 42.001 526.998 40.001 521.998 38.001 c 1
 517.998 35.001 507.998 30.001 499.998 26.001 c 0
 486.998 20.001 483.998 19.001 475.998 20.001 c 0
 467.998 20.001 465.998 20.001 456.998 14.001 c 0
 449.998 9.00098 443.998 7.00098 440.998 7.00098 c 0
 437.998 7.00098 432.998 6.00098 429.998 5.00098 c 0
 426.998 4.00098 419.998 4.00098 413.998 5.00098 c 0
 402.998 7.00098 401.998 7.00098 397.998 3.00098 c 0
 394.998 0.000976562 392.998 -0.999023 353.998 -0.999023 c 0
 331.998 -1.99902 311.998 -1.99902 308.998 -1.99902 c 0
 305.998 -1.99902 293.998 -1.99902 281.998 -0.999023 c 0
 269.998 -0.999023 254.998 0.000976562 248.998 0.000976562 c 1
 242.998 -0.999023 227.998 -0.999023 215.998 -0.999023 c 0
 202.998 -0.999023 188.998 0.000976562 182.998 1.00098 c 0
 174.998 2.00098 172.998 1.00098 166.998 -2.99902 c 0
 162.998 -4.99902 157.998 -7.99902 154.998 -7.99902 c 0
 153.658 -8.2666 152.462 -8.39062 151.371 -8.39062 c 0
 148.391 -8.39062 146.194 -7.46289 143.998 -5.99902 c 0
 140.998 -2.99902 133.998 -1.99902 127.998 -0.999023 c 0
 121.998 0.000976562 115.998 1.00098 114.998 2.00098 c 0
 113.998 3.00098 109.998 9.00098 107.998 14.001 c 0
 102.998 24.001 102.998 24.001 102.998 67.001 c 0
 103.998 107.001 103.998 109.001 107.998 114.001 c 0
 110.998 119.001 111.998 122.001 111.998 132.001 c 0
 110.998 141.001 109.998 146.001 107.998 150.001 c 0
 105.998 154.001 103.998 161.001 102.998 176.001 c 0
 102.498 182.501 102.248 189.501 102.248 195.876 c 0
 102.248 202.251 102.498 208.001 102.998 212.001 c 0
 103.998 221.001 103.998 229.001 102.998 232.001 c 0
 101.998 235.001 101.998 238.001 102.998 240.001 c 0
 103.998 242.001 104.998 251.001 104.998 263.001 c 0
 103.998 274.001 103.998 291.001 102.998 299.001 c 0
 102.998 312.001 101.998 315.001 98.998 318.001 c 0
 95.998 320.001 95.998 323.001 95.998 353.001 c 0
 96.998 383.001 96.998 386.001 99.998 392.001 c 1
 103.998 397.001 103.998 400.001 103.998 425.001 c 0
 103.998 440.001 104.998 454.001 104.998 457.001 c 1
 105.998 460.001 104.998 464.001 102.998 468.001 c 0
 98.998 474.001 98.998 475.001 101.998 487.001 c 0
 103.17 492.858 103.655 499.402 103.655 513.467 c 0
 103.655 523.412 103.413 537.118 102.999 557 c 0
 102.999 588 101.999 620 101.999 627 c 0
 101.999 634 101.999 642 102.999 643 c 1
 103.999 645 104.999 658 103.999 672 c 0
 103.999 688 104.999 698 105.999 701 c 0
 106.999 703 109.999 706 111.999 708 c 0
 113.999 710 116.999 711 117.999 711 c 0
 118.999 711 121.999 713 124.999 714 c 2
 127.999 716 133.999 717 148.999 717 c 0
 159.999 717 169.999 718 170.999 719 c 1
EndSplineSet
Validated: 33
EndChar

StartChar: uni004A
Encoding: 74 74 43
Width: 499
GlyphClass: 2
Flags: W
LayerCount: 2
Fore
SplineSet
381 734 m 0
 384 736 387 737 389 737 c 1
 389.132 737.132 389.315 737.194 389.542 737.194 c 0
 391.035 737.194 394.395 734.475 397 731.001 c 2
 401 728.001 403 724.001 403 722.001 c 0
 403 720.001 402 697.001 402 670.001 c 0
 402 621.001 402 621.001 406 615.001 c 0
 408 612.001 410 609.001 410 608.001 c 0
 410 607.001 408 605.001 407 603.001 c 1
 405 602.001 403 597.001 402 593.001 c 0
 401 587.001 402 583.001 406 574.001 c 0
 409 568.001 412 561.001 412 560.001 c 0
 412 558.001 410 556.001 408 555.001 c 0
 406 554.001 403 552.001 403 551.001 c 1
 402 551.001 402 486.001 402 407.001 c 0
 402 274.001 402 264.001 405 259.001 c 0
 407 256.001 408 251.001 408 246.001 c 0
 408 241.001 407 235.001 406 233.001 c 1
 404 231.001 403 222.001 402 211.001 c 0
 402 202.001 401 188.001 401 182.001 c 0
 401 175.001 401 160.001 402 149.001 c 0
 403 130.001 403 129.001 400 126.001 c 0
 398 124.001 394 117.001 392 110.001 c 0
 390 103.001 387 94.001 385 90.001 c 0
 383 86.001 380 80.001 377 77.001 c 0
 375 74.001 373 70.001 373 69.001 c 0
 373 67.001 366 58.001 357 49.001 c 0
 348 39.001 337 30.001 332 27.001 c 0
 328 25.001 321 20.001 319 17.001 c 1
 316 15.001 312 12.001 310 12.001 c 0
 309 12.001 304 10.001 301 8.00098 c 0
 298 5.00098 292 2.00098 288 0.000976562 c 1
 283 -0.999023 278 -1.99902 277 -0.999023 c 1
 275 -0.999023 268 -0.999023 262 -1.99902 c 0
 254 -2.99902 248 -2.99902 245 -0.999023 c 1
 240 0.000976562 238 0.000976562 232 -2.99902 c 0
 228 -4.99902 223 -7.99902 220 -8.99902 c 1
 218.667 -8.99902 216.444 -9.44336 214.519 -9.44336 c 0
 213.556 -9.44336 212.667 -9.33203 212 -8.99902 c 0
 210 -7.99902 206 -6.99902 203 -6.99902 c 0
 200 -6.99902 195 -5.99902 193 -3.99902 c 1
 189 -1.99902 184 -0.999023 162 -0.999023 c 0
 140 -0.999023 136 0.000976562 133 2.00098 c 1
 132 4.00098 129 5.00098 126 5.00098 c 0
 124 5.00098 121 6.00098 120 8.00098 c 1
 119 9.00098 115 11.001 111 12.001 c 0
 107 13.001 102 15.001 100 17.001 c 0
 98 19.001 95 20.001 91 19.001 c 1
 85 19.001 84 20.001 75 31.001 c 0
 71 37.001 65 45.001 64 48.001 c 1
 62 51.001 57 57.001 53 60.001 c 0
 50 63.001 44 69.001 42 73.001 c 0
 39 78.001 35 83.001 33 84.001 c 1
 30 87.001 29 90.001 28 102.001 c 0
 28 110.001 26 121.001 24 126.001 c 2
 23 132.001 20 138.001 17 142.001 c 0
 15 145.001 13 148.001 13 150.001 c 0
 13 151.001 17 156.001 21 160.001 c 0
 30 168.001 30 168.001 47 169.001 c 0
 56 170.001 66 171.001 68 172.001 c 0
 70 173.001 75 175.001 80 176.001 c 1
 85 176.001 89 176.001 94 174.001 c 0
 100 171.001 102 169.001 105 163.001 c 1
 106 159.001 108 152.001 108 149.001 c 0
 108 146.001 109 141.001 110 139.001 c 1
 112 137.001 113 133.001 114 130.001 c 1
 114 126.001 117 122.001 118 120.001 c 1
 120 118.001 122 114.001 123 110.001 c 0
 124 106.001 125 103.001 127 102.001 c 1
 129 102.001 131 99.001 132 95.001 c 0
 133 92.001 136 88.001 139 86.001 c 0
 141 84.001 147 82.001 152 81.001 c 1
 158 81.001 162 79.001 165 75.001 c 1
 170 70.001 169.995 70.0674 184 71.001 c 0
 199 72.001 199 72.001 203 68.001 c 0
 208 63.001 208 63.001 228 63.001 c 0
 247 63.001 249 63.001 254 67.001 c 0
 257 69.001 261 72.001 263 72.001 c 1
 265 73.001 272 78.001 277 84.001 c 0
 283 90.001 291 96.001 294 97.001 c 0
 299 99.001 300 101.001 302 105.001 c 1
 302 109.001 304 112.001 305 113.001 c 0
 306 114.001 307 120.001 308 126.001 c 0
 309 132.001 312 141.001 314 145.001 c 0
 315.902 149.438 316.599 152.269 316.599 164.448 c 0
 316.599 171.479 316.366 181.628 316 197.001 c 0
 315 221.001 315 246.001 315 252.001 c 1
 314 258.001 315 268.001 315 275.001 c 0
 315 281.001 316 295.001 315 305.001 c 0
 315 316.001 316 333.001 316 345.001 c 0
 316 357.001 317 381.001 317 399.001 c 0
 316.667 404.668 316.556 413.557 316.556 424.298 c 0
 316.556 445.779 317 474.668 317 500.001 c 0
 317 570.001 317 570.001 311 575.001 c 0
 306 580.001 306 581.001 308 587.001 c 0
 308.707 589.122 309.414 601.243 309.414 621.243 c 0
 309.414 629.527 309.293 639.163 309 650 c 0
 309 707 309 707 313 715 c 0
 317 721 319 723 324 724 c 0
 327 724 332 726 335 728 c 0
 339 731 344 731 358 731 c 0
 371 732 377 732 381 734 c 0
EndSplineSet
Validated: 33
EndChar

StartChar: uni0050
Encoding: 80 80 49
Width: 588
GlyphClass: 2
Flags: W
LayerCount: 2
Fore
SplineSet
269 672 m 0
 267 673 261 674 254 674 c 0
 246 674 243 673 239 671 c 1
 234 667 232 667 214 667 c 0
 198 667 194 667 192 665 c 0
 190 663 189 659 189 656 c 0
 189 653 187 649 184 646 c 0
 180 641 179 640 179 630 c 1
 180 624 180 614 180 608 c 0
 180 601 180 583 179 567 c 0
 178.691 557.729 178.478 551.324 178.478 546.81 c 0
 178.478 536.714 179.545 536.073 183 534 c 1
 186 531 187 529 187 520 c 0
 187 513 187 503 186 497 c 0
 185 491 183 483 181 481 c 1
 180 479 178 474 178 472 c 0
 178 469 179 464 180 460 c 0
 181 457 183 451 185 448 c 1
 186 444 187 438 186 433 c 1
 186 408 l 2
 187 394 188 392 193 387 c 0
 197 382 199 381 204 381 c 0
 208 381 214 379 219 377 c 1
 224 374 230 372 235 372 c 0
 240 372 243 373 247 377 c 1
 251 380 254 381 266 381 c 2
 288 381 l 1
 308 381 l 2
 314 381 321 382 324 384 c 1
 327 385 335 387 343 387 c 0
 355 387 358 388 362 391 c 0
 364 393 366 395 368 395 c 0
 369 395 373 397 376 399 c 1
 380 400 385 402 388 402 c 0
 391 402 396 404 401 409 c 0
 406 413 412 417 414 419 c 0
 417 421 423 425 426 428 c 0
 430 432 433 435 433 437 c 0
 433 438 435 440 438 442 c 1
 443 444 443 445 443 453 c 0
 443 458 445 464 447 467 c 0
 449 471 450 477 451 482 c 0
 451 486 452 491 453 492 c 0
 455 494 456 497 456 499 c 0
 456 501 457 505 459 507 c 0
 461 510 463 514 463 516 c 0
 463 518 461 522 459 525 c 0
 456 529 456 531 457 533 c 0
 458 535 459 545 459 557 c 0
 458 572 457 578 455 582 c 2
 454 586 452 589 452 591 c 0
 452 593 450 596 448 599 c 0
 446 602 443 607 442 610 c 0
 441 613 438 619 434 623 c 2
 431 627 424 633 419 636 c 0
 413 639 408 642 408 642 c 2
 407 643 403 646 399 648 c 0
 396 650 391 651 388 651 c 1
 386 652 382 653 378 655 c 1
 375 658 370 661 367 663 c 0
 362 666 359 666 325 667 c 0
 305 667 284 667 280 668 c 0
 276 669 271 671 269 672 c 0
126 725 m 0
 131.08 730.08 132.476 731.473 158.847 731.473 c 0
 168.814 731.473 182.351 731.273 201.002 730.999 c 0
 258.002 730.999 270.002 729.999 276.002 727.999 c 0
 281.002 725.999 290.002 724.999 298.002 724.999 c 0
 308.002 724.999 315.002 725.999 318.002 727.999 c 1
 321.002 728.999 330.002 730.999 338.002 730.999 c 0
 341.218 731.267 343.858 731.391 346.117 731.391 c 0
 352.289 731.391 355.609 730.463 360.002 728.999 c 0
 364.002 726.999 371.002 723.999 375.002 722.999 c 2
 379.002 720.999 389.002 718.999 397.002 717.999 c 0
 405.002 716.999 417.002 716.999 425.002 716.999 c 0
 433.002 717.999 442.002 716.999 444.002 715.999 c 1
 448.002 714.999 449.002 713.999 449.002 709.999 c 0
 449.002 706.999 450.002 703.999 451.002 702.999 c 1
 453.002 702.999 455.002 699.999 456.002 696.999 c 0
 457.002 693.999 459.002 691.999 462.002 690.999 c 0
 465.002 689.999 468.002 688.999 470.002 688.999 c 1
 471.002 687.999 473.002 684.999 474.002 682.999 c 1
 476.002 680.999 480.002 674.999 484.002 670.999 c 0
 488.002 665.999 494.002 661.999 496.002 660.999 c 0
 499.002 659.999 504.002 656.999 508.002 652.999 c 2
 512.002 649.999 517.002 643.999 519.002 640.999 c 0
 521.002 636.999 522.002 632.999 522.002 631.999 c 0
 522.002 629.999 524.002 626.999 527.002 624.999 c 0
 529.002 623.999 531.002 620.999 531.002 619.999 c 0
 531.002 617.999 533.002 614.999 534.002 612.999 c 1
 536.002 610.999 537.002 605.999 537.002 601.999 c 1
 538.002 597.999 539.002 593.999 542.002 590.999 c 0
 545.002 587.999 545.002 585.999 544.002 580.999 c 0
 543.002 574.999 544.002 573.999 548.002 569.999 c 0
 552.002 564.999 552.002 564.999 552.002 543.999 c 0
 552.002 532.999 553.002 520.999 554.002 519.999 c 1
 554.416 518.757 554.659 517.686 554.659 516.573 c 0
 554.659 515 554.174 513.343 553.002 511 c 0
 551.002 507 550.002 501 551.002 489 c 0
 551.002 479 550.002 469 548.002 462 c 0
 546.002 455 543.002 449 542.002 447 c 1
 540.002 445 538.002 442 538.002 441 c 0
 538.002 440 536.002 436 532.002 432 c 1
 529.002 428 526.002 423 526.002 421 c 0
 526.002 420 524.002 416 522.002 414 c 0
 520.002 411 517.002 409 515.002 409 c 0
 514.002 409 510.002 406 508.002 403 c 0
 505.002 400 503.002 396 503.002 394 c 0
 503.002 392 501.002 388 498.002 386 c 2
 496.002 383 491.002 380 488.002 378 c 1
 484.002 377 481.002 374 481.002 373 c 1
 480.002 371 476.002 368 472.002 364 c 1
 468.002 361 463.002 358 461.002 358 c 0
 459.002 358 454.002 355 449.002 352 c 0
 445.002 349 440.002 346 438.002 346 c 0
 436.002 346 434.002 344 433.002 341 c 0
 432.002 338 429.002 334 426.002 332 c 0
 423.002 329 419.002 328 413.002 328 c 0
 404.002 328 402.002 328 398.002 323 c 0
 393.002 318 392.002 318 386.002 320 c 0
 382.002 322 374.002 322 354.002 322 c 0
 339.002 321 325.002 321 322.002 321 c 0
 320.002 321 312.002 321 304.002 322 c 0
 292.002 323 290.002 323 281.002 319 c 0
 276.002 316 270.002 314 268.002 314 c 0
 266.002 314 263.002 316 262.002 318 c 1
 260.002 320 256.002 321 251.002 321 c 0
 246.002 321 240.002 320 237.002 318 c 1
 234.002 317 226.002 315 218.002 315 c 0
 210.002 315 203.002 315 202.002 314 c 2
 202.002 314 200.002 312 198.002 308 c 0
 196.002 305 194.002 300 194.002 298 c 0
 194.002 296 192.002 292 190.002 289 c 0
 187.002 285 187.002 283 188.002 272 c 0
 188.002 265 189.002 253 189.002 247 c 0
 189.002 240 188.002 232 187.002 229 c 0
 185.002 224 185.002 223 189.002 215 c 0
 192.002 210 194.002 203 194.002 199 c 0
 194.002 195 194.002 180 193.002 164 c 0
 193.002 149 192.002 135 191.002 134 c 1
 190.002 132 189.002 125 188.002 119 c 0
 187.002 110 187.002 106 189.002 104 c 1
 190.002 102 192.002 95 193.002 87 c 0
 194.002 79 194.002 71 194.002 68 c 0
 194.002 66 194.002 58 193.002 51 c 2
 193.002 44 191.002 36 190.002 34 c 1
 188.002 32 187.002 29 187.002 27 c 0
 187.002 26 186.002 23 185.002 20 c 0
 184.002 18 180.002 14 176.002 11 c 0
 170.002 7 168.002 6 150.002 6 c 0
 132.002 6 132.002 6 120.002 19 c 0
 108.002 31 108.002 31 107.002 48 c 0
 107.002 60 106.002 65 104.002 68 c 2
 98.002 77 l 2
 96.8301 78.1719 96.3447 79.3438 96.3447 80.7168 c 0
 96.3447 81.6875 96.5869 82.7588 97.001 84.001 c 0
 98.001 86.001 99.001 92.001 99.001 97.001 c 0
 99.001 102.001 100.001 111.001 102.001 116.001 c 0
 105.001 125.001 105.001 128.001 103.001 137.001 c 0
 102.001 143.001 100.001 154.001 100.001 161.001 c 2
 99.001 168.001 99.001 176.001 100.001 179.001 c 1
 102.001 182.001 102.001 190.001 101.001 205.001 c 0
 99.8291 212.03 99.3438 220.775 99.3438 229.628 c 0
 99.3438 235.888 99.5859 242.201 100 248 c 0
 101 260 101 273 101 277 c 1
 100 280 99 289 99 296 c 2
 99 349 l 1
 99 394 l 2
 99 396 100 413 100 432 c 0
 101 451 101 468 101 470 c 0
 101 472 101 483 100 494 c 0
 100 506 99 518 100 521 c 1
 100 577 l 1
 100 633 l 2
 99.667 634.333 99.5557 637.11 99.5557 640.814 c 0
 99.5557 648.222 100 659.333 100 670 c 0
 100 692 101 701 103 703 c 1
 104 705 106 709 108 712 c 2
 109 715 112 718 114 718 c 0
 117 718 122 721 126 725 c 0
EndSplineSet
Validated: 33
EndChar

StartChar: uni0051
Encoding: 81 81 50
Width: 819
GlyphClass: 2
Flags: W
LayerCount: 2
Fore
SplineSet
455 664 m 0
 451 667 447 669 445 669 c 0
 444 669 434 668 423 667 c 0
 411 666 399 666 395 666 c 2
 371 666 l 2
 359 666 349 665 341 663 c 0
 334 661 326 658 323 656 c 0
 320 654 315 653 312 653 c 0
 308 653 300.017 649.971 289 644 c 0
 276.019 636.965 272 634 269 629 c 0
 267 625 263 622 260 621 c 1
 257 621 251 616 246 610 c 0
 241 605 236 601 233 601 c 0
 232 601 228 598 226 595 c 0
 224 592 222 587 221 583 c 0
 220 580 219 574 217 572 c 2
 216 569 212 565 210 562 c 1
 206 560 205 557 206 554 c 0
 207 551 205 546 201 539 c 0
 197 533 194 527 194 526 c 0
 194 525 192 522 190 519 c 0
 186 514 186 511 186 503 c 0
 186 494 186 493 182 489 c 0
 179 487 176 483 175 481 c 0
 174 479 173 475 173 473 c 0
 173 470 174 466 176 465 c 1
 177 464 178 462 178 460 c 0
 178 459 177 454 175 450 c 0
 173 446 171 440 171 434 c 0
 171 426 170 423 167 418 c 0
 164 413 163 411 164 407 c 1
 164 405 165 384 165 361 c 0
 166 323 166 319 169 316 c 0
 172 313 172 309 172 290 c 0
 172 273 173 266 175 262 c 0
 177 259 178 253 178 249 c 0
 178 244 180 239 183 234 c 0
 186 229 187 225 187 217 c 0
 187 208 187 207 194 199 c 0
 201 191 202 189 201 183 c 0
 200 180 200 175 202 173 c 1
 203 171 208 165 214 159 c 0
 220 153 227 146 230 144 c 0
 233 142 235 138 236 135 c 1
 236 132 239 128 242 126 c 0
 245 124 247 121 247 120 c 0
 247 119 249 116 251 114 c 1
 253 113 257 109 261 106 c 2
 265 102 268 100 269 100 c 0
 271 100 274 97 278 94 c 2
 292 83 l 2
 296 80 302 76 306 74 c 0
 310 72 317 70 321 70 c 0
 325 70 333 69 338 67 c 0
 344 65 358 65 396 64 c 0
 445 64 445 64 449 68 c 1
 453 71 454.995 71.9287 468 71 c 0
 482 70 482 70 490 78 c 0
 496 85 498 86 504 86 c 0
 509 86 513 87 516 89 c 0
 518 91 521 93 523 92 c 1
 524 92 527 92 528 93 c 2
 530 93 533 96 536 100 c 0
 538 104 541 107 543 107 c 0
 544 107 548 109 550 112 c 0
 553 115 558 118 561 119 c 0
 565 121 571 124 575 128 c 2
 579 131 583 136 584 139 c 1
 586 142 588 147 590 149 c 0
 592 152 593 156 593 162 c 0
 593 166 594 170 595 171 c 0
 596 172 596 174 596 176 c 0
 596 177 599 180 601 182 c 0
 604 184 608 189 610 194 c 0
 612 199 614 205 614 208 c 0
 614 211 615 216 617 219 c 0
 620 224 620 225 617 231 c 0
 614 237 614 237 621 245 c 0
 628 252 628 252 628 268 c 0
 628 282 628 285 631 288 c 0
 633 291 634 295 634 305 c 0
 634 313 635 323 635 327 c 0
 635 332 635 353 634 373 c 0
 634 407 634 410 630 414 c 0
 626 418 626 420 627 441 c 0
 627 463 627 463 622 469 c 0
 617 474 617 474 620 480 c 0
 623 485 623 487 621 491 c 0
 620 494 620 498 620 501 c 1
 621 503 620 507 617 511 c 0
 614 514 612 519 612 522 c 0
 612 525 611 527 606 530 c 0
 602 533 600 536 596 546 c 0
 593 553 590 561 588 563 c 0
 586 565 583 569 582 572 c 0
 581 574 577 581 575 586 c 2
 572 591 570 596 570 598 c 0
 570 599 567 602 562 604 c 0
 558 606 551 611 548 614 c 0
 545 617 541 622 538 626 c 0
 534 631 531 632 526 633 c 0
 522 634 516 637 512 639 c 0
 508 642 502 645 499 645 c 1
 497 646 492 650 489 653 c 0
 484 660 484 660 473 660 c 0
 463 659 461 660 455 664 c 0
357 728 m 0
 367 732 369 732 396 732 c 0
 421 732 426 731 431 728 c 0
 436 725 441 725 463 725 c 0
 487 724 489 724 494 720 c 0
 497 718 501 716 506 716 c 0
 511 716 514 715 517 713 c 1
 518 711 521 709 523 709 c 0
 525 709 528 708 531 706 c 0
 534 704 539 703 548 703 c 0
 558 703 562 703 564 700 c 1
 566 699 570 697 572 697 c 0
 575 697 579 694 584 690 c 1
 588 685 592 679 594 675 c 0
 595 672 599 668 602 666 c 0
 605 664 612 660 618 657 c 0
 624 653 636 643 646 634 c 0
 656 624 664 616 664 613 c 1
 665 611 668 606 670 603 c 0
 673 600 677 594 680 589 c 1
 682 583 684 578 684 577 c 0
 684 575 686 572 688 569 c 0
 690 566 692 561 693 557 c 1
 693 553 695 548 697 547 c 1
 699 545 700 542 700 540 c 0
 700 538 701 535 702 535 c 1
 703 534 707 527 711 519 c 0
 714 511 718 504 719 503 c 1
 720 503 720 491 720 478 c 0
 719.75 472.5 719.625 468.125 719.625 464.562 c 0
 719.625 453.875 720.75 450.5 723 446 c 0
 726 441 726 435 727 405 c 0
 728 387 728 371 728 370 c 0
 728 369 728 361 727 353 c 0
 727 345 725 333 724 327 c 1
 722 322 721 307 720 295 c 0
 719 278 718 273 716 271 c 0
 713 269 712 265 712 257 c 0
 712 247 711 243 706 231 c 0
 702 223 697 213 695 208 c 0
 693 202 690 198 686 196 c 0
 683 194 681 192 681 190 c 0
 681 189 679 185 677 182 c 0
 674 179 672 174 671 173 c 1
 671 171 670 166 669 162 c 0
 667 157 665 154 663 153 c 0
 660 152 658 149 657 144 c 1
 657 139 655 137 652 135 c 1
 649 134 643 127 637 121 c 0
 631 114 624 107 621 106 c 1
 618 104 616 102 616 100 c 0
 616 98 614 94 612 92 c 0
 609 89 606 81 605 75 c 0
 603 68 602 62 602 61 c 0
 602 59 604 57 606 57 c 1
 608 56 617 57 625 59 c 0
 635 62 647 63 661 64 c 0
 673 64 687 65 690 66 c 0
 694 67 701 69 705 71 c 0
 712 73 714 73 720 72 c 0
 723 71 729 70 732 70 c 0
 735 70 742 68 748 66 c 0
 754 64 760 61 761 60 c 2
 763 59 764 56 764 55 c 0
 764 53 765 49 765 45 c 0
 765 39 766 38 771 36 c 0
 775 35 777 33 777 32 c 0
 777 31 776 28 774 26 c 2
 773 24 771 21 770 20 c 1
 751 20 l 2
 736 21 735 21 728 17 c 1
 722 12 720 12 696 12 c 2
 666 12 l 1
 637 12 l 1
 588 12 l 1
 549 12 l 2
 539 12 536 12 533 9 c 0
 529 6 527 5 514 6 c 0
 506 7 496 8 492 10 c 1
 487 11 482 12 479 11 c 2
 476 11 471 9 469 7 c 0
 466 5 462 3 459 3 c 0
 457 3 454 2 452 1 c 1
 451 -1 447 -2 438 -2 c 0
 431 -2 424 -2 423 -3 c 1
 422 -3 420 -2 418 1 c 0
 416 3 413 6 411 6 c 1
 408 7 405 6 400 3 c 0
 394 -1 392 -1 382 0 c 2
 353 0 l 2
 337 -1 333 -1 325 2 c 0
 320 4 312 6 305 6 c 0
 297 6 292 7 290 9 c 1
 288 10 282 12 275 13 c 0
 264 15 264 15 263 20 c 0
 263 22 261 25 259 26 c 1
 258 27 254 27 252 27 c 0
 249 27 245 28 243 30 c 0
 240 32 236 33 232 33 c 0
 228 33 224 34 222 36 c 0
 220 38 219 40 219 41 c 0
 219 43 215 47 210 50 c 0
 204 54 199 59 198 60 c 0
 196 62 190 66 185 68 c 0
 175 73 173 75 167 85 c 0
 162 94 159 97 154 98 c 0
 150 99 146 102 144 105 c 1
 143 108 142 111 142 112 c 1
 143 112 142 114 141 116 c 0
 140 118 139 119 137 119 c 0
 136 119 133 121 131 123 c 0
 128 125 125 129 124 134 c 0
 123 138 121 142 120 144 c 1
 119 145 116 149 115 152 c 0
 113 156 111 162 110 166 c 0
 109 170 108 176 107 179 c 1
 107 183 104 187 102 190 c 0
 99 193 98 195 99 198 c 1
 99 201 98 205 96 210 c 0
 94 215 91 221 89 223 c 1
 88 226 87 232 87 237 c 0
 87 242 86 248 83 253 c 0
 79 260 79 263 79 283 c 0
 80 300 79 306 77 307 c 1
 76 308 75 311 75 313 c 0
 75 315 76 318 77 319 c 1
 78 321 79 327 79 337 c 0
 79 350 79 353 75 357 c 0
 73 359 71 362 71 364 c 1
 70 366 72 369 75 373 c 0
 80 379 80 379 80 420 c 0
 80 452 80 463 83 469 c 1
 84 473 85 480 85 485 c 0
 85 492 86 495 90 499 c 0
 93 502 94 506 94 510 c 0
 94 514 96 518 98 521 c 0
 100 523 101 527 101 528 c 0
 101 530 103 534 105 537 c 0
 108 541 110 545 110 547 c 0
 110 549 111 553 112 557 c 0
 113 561 116 566 118 569 c 0
 120 571 124 578 128 583 c 0
 131 588 135 595 135 597 c 1
 136 599 140 605 143 608 c 0
 147 612 151 618 152 621 c 0
 153 625 156 627 158 627 c 1
 160 628 163 631 166 636 c 0
 169 642 173 646 176 648 c 0
 179 650 182 652 182 653 c 0
 182 654 184 658 187 661 c 0
 190 665 195 668 200 669 c 0
 205 670 212 674 217 677 c 0
 222 680 228 683 230 683 c 0
 232 683 233 685 233 688 c 1
 234 691 236 694 242 697 c 1
 246 700 251 702 254 702 c 0
 256 702 260 704 263 707 c 0
 268 711 270 711 281 711 c 0
 291 711 295 712 298 715 c 0
 301 717 305 718 311 718 c 1
 318 717 321 718 327 722 c 0
 334 727 335 727 340 725 c 0
 345 723 347 724 357 728 c 0
EndSplineSet
Validated: 33
EndChar

StartChar: uni0052
Encoding: 82 82 51
Width: 706
GlyphClass: 2
Flags: W
LayerCount: 2
Fore
SplineSet
397 659 m 0
 388 660 377 661 374 661 c 0
 370 661 366 661 365 660 c 2
 363 660 360 658 358 656 c 1
 355 655 347 653 338 652 c 0
 322 650 322 650 319 654 c 0
 317 656 315 657 314 656 c 0
 313 655 310 656 306 657 c 0
 301 659 293 660 272 660 c 0
 247 660 243 659 239 656 c 0
 237 654 232 653 226 653 c 0
 218 653 217 652 208 645 c 0
 203 640 197 634 196 631 c 0
 195 628 195 622 196 618 c 1
 196 607 l 1
 196 547 l 2
 195 502 194 489 192 485 c 0
 191 482 189 475 188 468 c 0
 187.75 465.25 187.625 463 187.625 461.078 c 0
 187.625 455.312 188.75 452.5 191 448 c 0
 194 442 195 437 195 426 c 0
 195 418 195 410 196 409 c 1
 196 406 198 406 206 407 c 0
 211 407 216 409 218 411 c 0
 220 413 225 414 228 414 c 0
 232 414 237 413 240 411 c 0
 243 409 249 408 268 408 c 0
 281 407 294 407 297 407 c 0
 300 407 313 408 326 408 c 0
 339 408 351 409 353 409 c 0
 354 409 374 409 396 408 c 0
 435 408 437 407 441 404 c 0
 444 402 447 400 452 400 c 0
 456 400 460 402 464 404 c 0
 467 406 472 410 474 412 c 0
 477 414 480 415 482 415 c 1
 484 414 488 417 495 425 c 0
 500 431 507 438 511 440 c 0
 515 442 519 447 520 449 c 0
 522 453 525 455 530 457 c 0
 534 458 537 460 538 462 c 1
 538 464 538 470 537 475 c 1
 537 483 537 486 540 490 c 0
 542 492 544 498 545 503 c 0
 546 508 546 517 546 522 c 0
 546 528 545 540 544 550 c 0
 543 564 542 568 537 578 c 0
 533 584 529 592 527 596 c 0
 525 600 523 604 523 605 c 0
 523 606 518 612 511 618 c 0
 504 624 498 629 497 629 c 0
 496 629 494 631 493 633 c 0
 492 635 489 638 487 640 c 1
 484 641 477 644 472 645 c 1
 467 647 462 649 460 650 c 1
 459 651 452 652 441 651 c 0
 425 650 423 651 419 654 c 0
 415 657 411 658 397 659 c 0
168 723 m 2
 171 724 200.998 725.002 234.998 725.002 c 0
 293.998 725.002 294.998 725.002 298.998 722.002 c 0
 301.998 719.002 304.998 718.002 310.998 718.002 c 2
 331.998 718.002 l 2
 344.998 718.002 346.998 718.002 350.998 714.002 c 0
 352.998 711.002 356.998 709.002 358.998 709.002 c 0
 360.998 709.002 364.998 711.002 366.998 713.002 c 1
 369.998 714.002 377.998 716.002 383.998 717.002 c 0
 388.998 718.002 396.998 719.002 399.998 721.002 c 0
 404.998 724.002 404.998 724.002 413.998 721.002 c 0
 418.998 719.002 424.998 717.002 426.998 715.002 c 0
 428.998 713.002 432.998 712.002 435.998 711.002 c 1
 452.998 711.002 l 2
 460.998 711.002 466.998 712.002 468.998 714.002 c 1
 470.998 715.002 474.998 716.002 477.998 716.002 c 0
 479.998 716.002 484.998 715.002 487.998 713.002 c 0
 490.998 711.002 495.998 709.002 498.998 709.002 c 0
 501.998 709.002 504.998 708.002 506.998 706.002 c 1
 507.998 704.002 510.998 700.002 512.998 699.002 c 2
 514.998 697.002 516.998 696.002 517.998 696.002 c 1
 518.998 697.002 522.998 695.002 526.998 693.002 c 0
 531.998 690.002 536.998 688.002 538.998 688.002 c 0
 540.998 688.002 544.998 687.002 546.998 686.002 c 1
 547.998 684.002 550.998 683.002 552.998 683.002 c 0
 554.998 683.002 561.998 678.002 567.998 672.002 c 2
 574.998 667.002 580.998 660.002 581.998 658.002 c 1
 582.998 657.002 587.998 652.002 592.998 648.002 c 0
 599.998 642.002 601.998 640.002 601.998 635.002 c 0
 601.998 632.002 603.998 629.002 606.998 625.002 c 1
 609.998 623.002 614.998 615.002 617.998 608.002 c 2
 621.998 602.002 625.998 591.002 626.998 586.002 c 0
 628.998 580.002 629.998 566.002 630.998 554.002 c 0
 631.998 540.002 632.998 532.002 634.998 530.002 c 1
 635.998 528.002 636.998 524.002 636.998 522.002 c 0
 636.998 520.002 633.998 512.002 630.998 505.002 c 0
 627.998 499.002 624.998 492.002 624.998 490.002 c 0
 624.998 489.002 622.998 486.002 619.998 483.002 c 0
 615.998 480.002 615.998 478.002 616.998 473.002 c 0
 616.998 469.002 616.998 467.002 613.998 464.002 c 1
 611.998 463.002 609.998 458.002 608.998 454.002 c 0
 607.998 450.002 604.998 444.002 602.998 441.002 c 0
 599.998 438.002 594.998 434.002 590.998 432.002 c 0
 585.998 429.002 583.998 426.002 582.998 421.002 c 0
 581.998 417.002 578.998 412.002 575.998 410.002 c 2
 573.998 407.002 570.998 406.002 569.998 406.002 c 0
 567.998 406.002 563.998 404.002 559.998 402.002 c 0
 554.998 400.002 549.998 399.002 546.998 399.002 c 0
 543.998 399.002 538.998 395.002 530.998 387.002 c 0
 517.998 375.002 517.998 375.002 517.998 362.002 c 0
 517.998 356.002 518.998 349.002 519.998 348.002 c 0
 520.998 347.002 523.998 346.002 526.998 346.002 c 0
 529.998 346.002 533.998 345.002 536.998 343.002 c 0
 538.998 342.002 542.998 339.002 545.998 336.002 c 0
 547.998 334.002 550.998 332.002 551.998 332.002 c 0
 552.998 332.002 556.998 330.002 559.998 327.002 c 0
 562.998 324.002 566.998 321.002 568.998 321.002 c 1
 570.998 320.002 572.998 317.002 573.998 315.002 c 0
 574.998 312.002 577.998 308.002 579.998 306.002 c 0
 581.998 304.002 584.998 298.002 586.998 293.002 c 1
 587.998 288.002 590.998 282.002 591.998 281.002 c 0
 593.998 279.002 594.998 273.002 595.998 261.002 c 0
 595.998 250.002 596.998 242.002 598.998 240.002 c 1
 599.998 238.002 601.998 233.002 601.998 229.002 c 1
 602.998 226.002 604.998 220.002 606.998 217.002 c 0
 610.998 213.002 610.998 211.002 609.998 202.002 c 0
 608.998 197.002 607.998 191.002 607.998 189.002 c 1
 606.998 186.002 608.998 183.002 611.998 179.002 c 0
 615.453 174.856 616.521 173.575 616.521 162.952 c 0
 616.521 158.201 616.307 151.582 615.998 142.003 c 0
 615.998 111.003 615.998 110.003 620.998 102.003 c 1
 623.998 95.0029 624.998 91.0029 623.998 87.0029 c 1
 623.998 82.0029 623.998 80.0029 626.998 77.0029 c 0
 630.998 74.0029 630.998 71.0029 631.998 61.0029 c 0
 631.998 54.0029 632.998 45.0029 633.998 41.0029 c 0
 634.998 37.0029 635.998 31.0029 636.998 26.0029 c 0
 637.897 23.3057 638.393 21.417 638.393 19.9727 c 0
 638.393 18.2041 637.65 17.1035 635.999 16.0029 c 2
 633.999 13.0029 631.999 13.0029 628.999 13.0029 c 1
 625.999 14.0029 615.999 13.0029 606.999 11.0029 c 0
 597.999 10.0029 587.999 8.00293 584.999 7.00293 c 0
 579.999 5.00293 578.999 5.00293 568.999 10.0029 c 0
 561.999 14.0029 558.999 16.0029 557.999 19.0029 c 1
 557.999 22.0029 555.999 25.0029 554.999 27.0029 c 1
 552.999 29.0029 551.999 33.0029 551.999 40.0029 c 0
 551.999 45.0029 550.999 53.0029 549.999 58.0029 c 0
 549.999 62.0029 547.999 69.0029 545.999 72.0029 c 0
 542.999 77.0029 542.999 79.0029 543.999 84.0029 c 1
 545.999 89.0029 545.999 92.0029 543.999 98.0029 c 0
 542.999 103.003 542.999 109.003 542.999 113.003 c 1
 543.999 117.003 543.999 121.003 541.999 123.003 c 0
 539.999 125.003 538.999 132.003 537.999 139.003 c 0
 536.999 145.003 534.999 151.003 533.999 153.003 c 1
 531.999 155.003 530.999 161.003 530.999 173.003 c 0
 529.999 183.003 529.999 192.003 528.999 195.003 c 2
 528.999 198.003 527.999 201.003 526.999 203.003 c 0
 525.999 205.003 524.999 210.003 524.999 213.003 c 0
 524.999 218.003 522.999 221.003 520.999 224.003 c 0
 518.999 226.003 516.999 230.003 516.999 235.003 c 0
 516.999 239.003 515.999 244.003 513.999 246.003 c 0
 511.999 249.003 510.999 251.003 510.999 252.003 c 0
 510.999 253.003 508.999 256.003 506.999 259.003 c 0
 503.999 262.003 501.999 267.003 500.999 271.003 c 0
 499.999 276.003 496.999 281.003 489.999 288.003 c 0
 483.999 295.003 480.999 300.003 480.999 303.003 c 0
 480.999 305.003 479.999 307.003 477.999 308.003 c 1
 475.999 308.003 472.999 309.003 468.999 309.003 c 0
 464.999 309.003 461.999 310.003 456.999 315.003 c 0
 452.999 319.003 447.999 322.003 444.999 322.003 c 1
 440.999 323.003 436.999 323.003 434.999 322.003 c 1
 432.999 322.003 429.999 322.003 428.999 323.003 c 0
 427.999 324.003 421.999 327.003 416.999 330.003 c 0
 405.999 335.003 405.999 335.003 396.999 332.003 c 0
 389.999 330.003 386.999 330.003 382.999 331.003 c 0
 379.999 332.003 375.999 334.003 372.999 334.003 c 2
 369.999 335.003 366.999 334.003 362.999 332.003 c 1
 357.999 328.003 355.999 328.003 343.999 329.003 c 0
 335.999 330.003 326.999 331.003 321.999 333.003 c 0
 316.999 335.003 304.999 336.003 285.999 336.003 c 0
 269.999 337.003 250.999 337.003 243.999 337.003 c 0
 235.999 337.003 225.999 337.003 219.999 336.003 c 2
 211.999 336.003 207.999 335.003 204.999 333.003 c 1
 202.999 330.003 201.999 327.003 201.999 310.003 c 0
 201.999 299.003 200.999 289.003 199.999 288.003 c 1
 198.999 286.003 197.999 280.003 197.999 274.003 c 2
 197.999 258.003 l 2
 197.999 256.003 198.999 250.003 199.999 247.003 c 0
 201.463 242.61 202.391 236.61 202.391 222.333 c 0
 202.391 217.107 202.267 210.772 201.999 203.002 c 0
 201.999 175.002 200.999 166.002 198.999 162.002 c 0
 197.999 159.002 195.999 151.002 194.999 145.002 c 0
 193.999 137.002 192.999 131.002 190.999 128.002 c 0
 188.999 126.002 186.999 122.002 186.999 120.002 c 0
 186.999 118.002 190.999 113.002 194.999 109.002 c 0
 200.909 103.83 202.453 102.479 202.453 92.8516 c 0
 202.453 89.4473 202.26 85.0088 201.999 79.001 c 0
 201.999 67.001 200.999 49.001 200.999 39.001 c 0
 199.999 28.001 198.999 19.001 196.999 15.001 c 0
 195.999 12.001 192.999 7.00098 189.999 6.00098 c 1
 185.999 3.00098 183.999 3.00098 175.999 5.00098 c 0
 166.999 7.00098 165.999 7.00098 160.999 3.00098 c 1
 156.999 1.00098 152.999 0.000976562 146.999 0.000976562 c 0
 145.347 -0.235352 143.917 -0.360352 142.645 -0.360352 c 0
 138.527 -0.360352 136.056 0.944336 133 4 c 0
 131 6 126 9 124 10 c 0
 121 11 119 13 119 14 c 0
 119 15 118 19 118 22 c 2
 117 25 117 40 116 55 c 0
 116 71 115 85 115 86 c 1
 114 87 114 89 115 91 c 0
 116 93 117 96 117 99 c 2
 117 132 l 2
 116.634 141.883 116.401 148.685 116.401 153.581 c 0
 116.401 162.062 117.098 164.83 119 168 c 0
 121 172 122 177 122 179 c 0
 122 182 121 189 120 194 c 0
 118 200 117 208 117 212 c 0
 117 217 118 221 120 223 c 0
 122 225 122 230 123 240 c 0
 123 252 123 255 119 259 c 1
 116 263 116 265 116 306 c 0
 117 341 117 348 120 352 c 0
 121 354 122 357 122 359 c 0
 122 360 121 364 119 367 c 0
 117 370 115 374 115 376 c 0
 115 377 117 381 119 383 c 0
 121 386 123 392 124 397 c 0
 125 403 125 407 123 414 c 0
 122 418 119 424 118 427 c 1
 116 430 116 437 116 459 c 0
 117 475 117 489 117 492 c 2
 117 515 l 2
 117 534 117 535 113 539 c 0
 109 543 109 543 109 600 c 0
 110 649 110 657 113 661 c 0
 114 663 115 668 115 671 c 0
 115 674 114 678 112 681 c 0
 109.856 683.68 108.861 685.21 108.861 686.823 c 0
 108.861 688.221 109.607 689.68 111 692 c 2
 112 696 117 701 121 705 c 1
 125 708 130 711 131 711 c 0
 132 711 135 713 139 715 c 0
 143 717 148 718 151 718 c 0
 154 718 158 719 159 720 c 0
 160 721 164 723 168 723 c 2
EndSplineSet
Validated: 33
EndChar

StartChar: uni0055
Encoding: 85 85 54
Width: 804
GlyphClass: 2
Flags: W
LayerCount: 2
Fore
SplineSet
648 738 m 1
 650 738 652.998 739.001 653.998 739.001 c 0
 654.998 739.001 658.998 738.001 662.998 737.001 c 1
 666.998 735.001 670.998 732.001 671.998 730.001 c 0
 672.998 727.001 673.998 725.001 674.998 725.001 c 0
 675.998 725.001 677.998 725.001 679.998 724.001 c 2
 680.998 724.001 684.998 722.001 687.998 719.001 c 0
 689.998 716.001 692.998 712.001 693.998 709.001 c 1
 693.998 706.001 694.998 701.001 694.998 697.001 c 0
 694.998 694.001 694.998 656.001 693.998 614.001 c 0
 693.998 571.001 692.998 535.001 691.998 534.001 c 0
 690.998 533.001 691.998 525.001 693.998 515.001 c 0
 695.234 506.966 696.089 501.987 696.089 498.412 c 0
 696.089 496.202 695.763 494.528 694.999 493 c 0
 693.999 490 692.999 471 692.999 449 c 0
 692.999 412 692.999 412 687.999 408 c 0
 683.999 404 683.999 404 685.999 399 c 0
 686.999 397 687.999 391 687.999 386 c 0
 687.999 381 688.999 374 690.999 371 c 1
 692.463 366.607 693.392 361.144 693.392 333.423 c 0
 693.392 323.276 693.268 310.148 693 293 c 0
 693 233 693 220 690 217 c 1
 689 215 687 209 687 204 c 1
 686 198 684 191 682 187 c 0
 680 183 679 177 679 174 c 0
 679 171 677 165 675 161 c 0
 673 155 669 151 664 147 c 0
 659 144 655 140 653 139 c 0
 651 138 651 135 652 127 c 0
 654 116 654 116 643 105 c 0
 636 99 631 93 631 91 c 0
 631 90 630 87 629 86 c 2
 628 84 623 80 619 76 c 1
 614 73 610 70 609 70 c 0
 608 70 605 68 602 65 c 0
 599 62 593 57 588 55 c 0
 583 53 577 48 574 45 c 0
 572 43 568 40 567 40 c 0
 566 40 562 39 557 37 c 0
 553 35 549 32 548 32 c 1
 548 31 543 28 538 26 c 0
 532 23 524 21 519 20 c 0
 514 19 508 18 506 16 c 1
 503 15 500 14 498 14 c 0
 496 14 493 12 490 10 c 0
 487 7 481 5 475 5 c 1
 468 4 465 4 463 6 c 0
 460 8 458 9 449 7 c 0
 443 6 436 5 434 6 c 1
 431 6 426 5 422 3 c 0
 418 1 412 0 405 0 c 0
 400 0 393 -1 389 -2 c 0
 387.5 -2.5 385 -2.75 381.875 -2.75 c 0
 378.75 -2.75 375 -2.5 371 -2 c 0
 363 -1 357 1 354 3 c 0
 351 5 347 7 344 7 c 0
 341 7 337 5 335 3 c 0
 332 0 329 -1 324 0 c 0
 320 0 314 1 311 3 c 1
 308 4 303 5 301 5 c 0
 298 5 293 7 290 10 c 1
 285 13 282 14 279 13 c 0
 276 12 274 13 272 16 c 0
 270 18 267 21 266 23 c 1
 264 25 261 26 258 26 c 0
 255 26 251 29 244 37 c 1
 238 42 232 47 230 47 c 0
 228 47 222 51 215 55 c 0
 208 60 202 65 202 67 c 0
 202 69 201 73 201 76 c 0
 200 81 199 82 195 82 c 0
 192 82 188 84 185 86 c 0
 183 88 178 90 175 91 c 1
 172 93 167 98 164 102 c 0
 160 107 157 111 157 112 c 0
 157 113 154 117 151 121 c 0
 146 128 145 130 145 140 c 0
 145 151 145 151 139 155 c 0
 135 157 132 160 130 165 c 1
 129 171 129 174 130 177 c 0
 131 180 131 183 130 185 c 1
 130 187 128 188 126 189 c 0
 123 190 122 191 123 204 c 0
 124 215 124 218 121 223 c 0
 119 227 117 233 116 238 c 0
 115 244 116 249 117 251 c 0
 118 254 118 257 116 264 c 0
 114 272 114 277 115 292 c 0
 116 302 116 311 116 313 c 1
 115 315 113 319 111 321 c 0
 109 323 108 328 108 332 c 0
 108 336 109 339 110 340 c 1
 111 340 113 344 115 348 c 0
 117 353 118 357 117 364 c 0
 116 369 115 379 115 385 c 0
 115 394 114 398 112 401 c 0
 109 404 109 405 113 414 c 0
 116 423 116 425 114 430 c 0
 113 433 111 436 110 436 c 1
 109 437 108 440 109 446 c 0
 110 450 112 457 113 461 c 1
 116 466 116 473 117 488 c 0
 117 499 117 509 118 511 c 1
 118 513 118 518 117 523 c 0
 116 527 114 532 112 534 c 0
 110 537 110 538 113 542 c 0
 117 547 117 549 116 561 c 0
 115 569 115 577 115 580 c 0
 115 583 115 606 116 630 c 0
 116 675 116 675 112 681 c 0
 108 686 108 687 110 692 c 0
 111 695 113 699 115 702 c 0
 117 704 119 707 119 708 c 0
 119 710 121 712 124 715 c 0
 127 718 129 721 129 723 c 0
 129 725 131 728 133 729 c 0
 136 731 143 732 155 732 c 0
 174 732 174 732 178 727 c 0
 181 724 185 720 189 719 c 1
 195 716 195 716 195 683 c 0
 195 653 195 650 198 646 c 0
 201 643 201 642 200 640 c 0
 199 638 197 635 196 632 c 0
 195 629 194 621 195 607 c 0
 195.5 601 195.75 594.25 195.75 588.125 c 0
 195.75 582 195.5 576.5 195 573 c 0
 195 567 194 555 195 548 c 0
 196 541 196 531 196 527 c 0
 196 522 196 508 195 495 c 0
 195 482 195 470 196 468 c 0
 197 466 198 460 199 455 c 1
 199 449 198 444 197 443 c 1
 196 441 195 433 195 423 c 0
 194 408 195 405 198 401 c 0
 201 396 201 393 201 337 c 0
 201 305 202 275 203 271 c 0
 203.5 268.5 203.75 264 203.75 258.125 c 0
 203.75 252.25 203.5 245 203 237 c 0
 202.172 226.645 201.687 220.235 201.687 215.925 c 0
 201.687 209.828 202.657 207.929 205 205 c 0
 207 202 208 198 208 194 c 0
 208 189 209 186 212 183 c 0
 214 181 216 178 216 176 c 0
 216 173 218 170 220 167 c 0
 221 165 222 162 222 160 c 0
 222 158 225 152 228 146 c 0
 232 139 240 128 252 116 c 0
 264 104 273 96 276 95 c 1
 279 95 283 93 285 91 c 0
 287 89 293 85 298 83 c 0
 303 81 309 79 312 79 c 0
 314 79 321 77 326 76 c 0
 332 74 344.004 72.0449 356 71 c 0
 367.004 70.041 379 69 382 69 c 0
 385 69 389 69 390 68 c 0
 391 67 396 68 401 69 c 0
 407 71 419 72 438 72 c 0
 465 73 468 73 474 77 c 0
 478 79 481 83 482 84 c 1
 483 86 486 89 488 89 c 1
 491 90 498 91 505 92 c 1
 512 92 520 94 523 95 c 1
 526 97 531 99 535 100 c 1
 538 102 541 104 542 107 c 0
 543 110 545 112 547 113 c 1
 548 113 552 114 554 115 c 1
 558 115 560 118 563 124 c 0
 565 129 569 134 572 137 c 0
 575 140 578 145 580 151 c 0
 581 156 583 163 584 166 c 1
 584 169 586 173 588 175 c 0
 591 178 594 183 595 188 c 2
 597 192 598 197 598 199 c 0
 598 201 600 206 603 209 c 1
 607 216 608 218 607 232 c 0
 607 245 608 250 611 260 c 0
 614 267 616 276 616 279 c 2
 616 365 l 2
 616 434 615 445 613 450 c 1
 610 455 610 456 615 465 c 0
 618 470 621 478 622 481 c 1
 622 486 622 489 618 493 c 1
 614 499 614 501 614 510 c 0
 614 516 615 523 616 526 c 0
 617 530 617 533 615 537 c 0
 614 539 613 545 613 549 c 2
 612 553 612 557 612 558 c 0
 612 560 613 569 614 579 c 0
 615 588 616 600 617 604 c 1
 617 612 617 613 612 619 c 0
 607 624 607 625 607 642 c 2
 607 680 l 2
 608 702 608 702 613 704 c 0
 619 706 619 707 620 717 c 0
 621 723 623 728 625 730 c 0
 627 732 630 732 634 732 c 1
 638 731 641 732 642 733 c 0
 644 735 646 737 648 738 c 1
EndSplineSet
Validated: 33
EndChar

StartChar: uni0056
Encoding: 86 86 55
Width: 663
GlyphClass: 2
Flags: W
LayerCount: 2
Fore
SplineSet
593 715 m 1
 596 715 599.001 716 600.001 716 c 0
 601.001 716 604.001 715 606.001 713 c 1
 610.001 711 614.001 710 628.001 711 c 0
 638.001 711 648.001 710 652.001 709 c 0
 656.001 708 657.001 706 657.001 703 c 0
 657.001 700 656.001 696 655.001 694 c 0
 654.001 691 652.001 688 651.001 686 c 0
 650.001 684 647.001 679 645.001 674 c 0
 643.001 670 641.001 664 642.001 661 c 1
 642.001 658 641.001 653 639.001 650 c 1
 638.001 646 636.001 643 636.001 641 c 1
 635.001 640 632.001 639 629.001 639 c 0
 626.001 639 623.001 638 622.001 637 c 1
 621.001 635 620.001 628 621.001 617 c 0
 621.001 601 621.001 600 616.001 595 c 0
 613.001 592 610.001 586 609.001 583 c 0
 607.001 579 606.001 574 607.001 567 c 0
 608.001 560 607.001 557 605.001 555 c 1
 604.001 553 601.001 546 598.001 540 c 2
 596.001 534 593.001 525 591.001 521 c 0
 589.001 518 587.001 511 587.001 508 c 0
 587.001 502 586.001 500 580.001 494 c 0
 576.001 490 573.001 486 573.001 484 c 0
 573.001 482 571.001 476 569.001 472 c 0
 565.001 466 564.001 461 564.001 454 c 0
 564.001 448 563.001 444 561.001 441 c 0
 559.001 438 557.001 435 557.001 433 c 0
 557.001 431 554.001 427 550.001 423 c 0
 546.001 419 543.001 414 541.001 409 c 1
 540.001 404 540.001 398 540.001 395 c 0
 540.001 391 538.001 387 535.001 384 c 0
 531.001 380 530.001 378 530.001 371 c 1
 531.001 365 530.001 362 526.001 358 c 0
 524.001 355 522.001 352 522.001 350 c 0
 522.001 349 519.001 346 516.001 343 c 0
 513.001 340 509.001 337 507.001 337 c 1
 504.001 336 503.001 334 503.001 327 c 1
 502.001 323 500.001 316 498.001 312 c 0
 495.001 308 494.001 303 494.001 298 c 0
 494.001 294 493.001 288 491.001 285 c 0
 490.001 283 489.001 278 489.001 276 c 0
 489.001 273 487.001 270 485.001 267 c 1
 481.001 264 481.001 261 481.001 252 c 0
 481.001 243 480.001 240 477.001 237 c 0
 475.001 234 474.001 230 473.001 222 c 0
 473.001 215 471.001 210 470.001 209 c 0
 469.001 208 468.001 205 468.001 203 c 0
 468.001 200 467.001 198 466.001 198 c 1
 465.001 197 461.001 191 458.001 184 c 0
 455.001 177 452.001 169 452.001 167 c 0
 452.001 164 449.001 157 445.001 150 c 0
 439.001 140 438.001 136 439.001 131 c 0
 440.001 126 439.001 123 435.001 118 c 1
 426.001 100 l 1
 424.001 94 421.001 86 420.001 83 c 1
 418.001 80 417.001 77 418.001 76 c 1
 418.001 76 418.001 73 417.001 70 c 1
 415.001 67 412.001 63 409.001 62 c 1
 406.001 60 404.001 58 403.001 53 c 0
 403.001 49 401.001 44 399.001 42 c 0
 397.001 39 395.001 34 395.001 31 c 0
 395.001 28 394.001 21 392.001 15 c 0
 390.001 10 388.001 3 386.001 0 c 2
 385.001 -3 382.001 -6 380.001 -6 c 2
 379.001 -7 375.001 -7 371.001 -7 c 0
 367.001 -7 362.001 -8 359.001 -9 c 0
 358.001 -9.33301 356.778 -9.55566 355.111 -9.55566 c 0
 351.778 -9.55566 346.667 -8.66699 338 -6 c 0
 324 -1 318 -1 307 -1 c 0
 293 -2 293 -2 287 4 c 0
 282 10 281 12 281 19 c 0
 281 24 279 32 277 39 c 1
 274 45 270 56 266 63 c 0
 262 72 259 75 256 76 c 0
 253 77 251 79 250 81 c 0
 249 84 248 92 248 100 c 0
 249 114 249 114 239 124 c 0
 233 130 229 136 228 139 c 0
 227 141 225 145 223 147 c 0
 219 151 219 153 219 174 c 0
 219 196 219 197 215 199 c 0
 213 200 209 204 205 208 c 1
 202 212 198 218 198 221 c 1
 197 225 194 232 191 238 c 0
 187 244 185 250 185 252 c 0
 185 253 183 256 181 258 c 1
 180 261 178 266 177 270 c 0
 176 275 174 280 172 282 c 0
 170 285 169 288 169 289 c 0
 169 291 168 294 166 296 c 1
 165 298 164 301 164 303 c 0
 164 305 162 308 159 310 c 0
 157 312 155 314 155 316 c 0
 155 317 153 322 151 325 c 2
 150 329 147 333 146 334 c 0
 145 335 143 340 140 344 c 1
 138 349 136 354 136 356 c 0
 136 358 133 368 131 379 c 0
 128 390 125 400 123 401 c 1
 122 402 121 406 121 410 c 0
 121 417 121 418 115 422 c 0
 111 424 109 427 107 434 c 0
 105 438 101 447 98 452 c 0
 94 458 92 465 92 468 c 0
 92 471 90 475 89 477 c 0
 88 479 86 484 86 490 c 0
 86 497 85 501 83 504 c 0
 81 507 79 512 79 515 c 0
 79 518 78 523 76 526 c 0
 74 528 72 533 71 536 c 1
 71 539 69 543 67 546 c 0
 65 549 62 555 60 560 c 0
 58 566 54 572 52 574 c 0
 50 576 48 579 48 581 c 0
 48 582 46 588 44 593 c 0
 42 598 40 603 39 605 c 1
 38 606 36 611 34 617 c 0
 32 623 30 631 29 635 c 1
 27 639 27 644 29 649 c 0
 31 655 30 657 27 662 c 0
 25 665 21 672 19 676 c 0
 17 681 14 685 12 687 c 1
 9 688 7 690 7 691 c 2
 6 692 7 695 9 698 c 0
 11 700 14 702 15 702 c 0
 16 702 20 704 22 706 c 0
 27 710 29 710 51 710 c 0
 67 709 77 709 80 707 c 0
 83 705 87 704 89 703 c 1
 90 703 92 701 93 699 c 1
 93 698 95 693 97 690 c 0
 99 687 101 681 101 677 c 2
 102 674 102 670 101 668 c 0
 99 665 100 663 107 657 c 0
 111 653 114 648 114 647 c 0
 114 645 116 640 119 636 c 1
 121 631 124 625 126 621 c 1
 127 617 129 612 129 608 c 0
 129 605 131 598 133 593 c 1
 136 588 139 582 140 579 c 0
 141 577 143 573 143 570 c 1
 144 567 146 563 147 562 c 0
 149 559 150 556 150 548 c 0
 149 538 149 538 158 530 c 0
 165 523 167 520 167 516 c 0
 167 513 169 507 171 503 c 0
 173 498 176 493 177 491 c 1
 179 489 179 487 179 483 c 1
 178 480 179 477 181 473 c 0
 183 470 185 466 185 464 c 0
 185 461 186 457 188 454 c 0
 190 451 192 446 193 444 c 1
 193 442 195 438 197 436 c 0
 199 433 201 430 201 428 c 0
 201 426 202 422 203 421 c 0
 205 419 206 416 206 414 c 0
 206 412 209 405 214 399 c 0
 221 389 222 386 222 378 c 0
 222 372 223 368 225 365 c 0
 227 363 229 356 229 351 c 1
 230 346 232 339 233 336 c 0
 234 333 237 328 238 324 c 2
 240 320 243 314 244 310 c 2
 246 306 249 299 251 295 c 0
 254 290 256 281 256 275 c 1
 257 269 259 262 261 259 c 1
 262 256 264 252 264 251 c 0
 264 249 265 247 267 245 c 0
 269 243 271 240 271 239 c 0
 271 237 272 234 274 232 c 0
 276 229 278 225 279 221 c 2
 281 218 282 210 283 204 c 1
 283 198 285 192 287 190 c 0
 289 187 290 185 290 183 c 0
 290 182 292 179 294 176 c 0
 297 173 299 168 300 165 c 0
 301 162 302 157 304 155 c 1
 305 153 306 150 305 148 c 1
 305 146 306 143 308 140 c 0
 312 136 312 134 311 129 c 0
 310 125 310 120 312 117 c 1
 313 114 315 108 318 105 c 2
 320 101 324 97 326 95 c 0
 330 92 333 91 341 91 c 0
 346 91 353 92 355 93 c 0
 358 95 362 101 366 109 c 0
 372 120 373 123 373 132 c 0
 373 139 373 142 377 147 c 0
 379 150 381 154 381 154 c 1
 380 155 381 160 383 166 c 1
 386 172 388 178 390 179 c 2
 391 181 394 182 395 182 c 0
 396 182 398 184 400 185 c 1
 401 187 402 191 402 194 c 0
 402 198 403 205 403 209 c 0
 404 214 405 218 405 219 c 1
 406 220 407 226 408 232 c 0
 409 240 411 245 415 250 c 0
 418 253 420 257 420 259 c 0
 420 260 422 264 424 266 c 0
 427 269 429 273 429 275 c 0
 429 276 431 280 433 283 c 0
 437 287 438 290 438 298 c 0
 438 304 437 311 436 314 c 0
 434 319 434 320 438 325 c 0
 441 328 443 331 443 332 c 0
 443 333 447 338 451 343 c 0
 458 350 459 352 458 357 c 0
 457 361 458 363 460 365 c 1
 461 367 464 373 465 379 c 2
 467 384 468 391 469 394 c 0
 470 397 472 403 474 408 c 1
 475 413 478 419 479 421 c 0
 480 424 481 427 480 428 c 1
 480 429 483 434 486 440 c 0
 489 446 492 452 492 454 c 0
 492 456 493 461 493 465 c 0
 493 470 495 478 498 483 c 2
 500 488 503 494 504 495 c 1
 509 505 l 2
 511 509 513 516 514 522 c 0
 515 527 516 533 518 535 c 1
 519 537 521 542 521 545 c 1
 522 549 524 555 526 559 c 2
 527 563 530 569 532 572 c 0
 535 575 536 580 536 584 c 0
 536 589 538 594 544 603 c 0
 548 610 553 617 554 620 c 0
 555 622 556 630 556 638 c 0
 557 651 557 652 563 658 c 0
 567 662 571 668 573 674 c 0
 575 680 576 687 576 690 c 0
 576 694 579 699 582 704 c 0
 586 710 589 713 593 715 c 1
EndSplineSet
Validated: 33
EndChar

StartChar: uni0057
Encoding: 87 87 56
Width: 847
GlyphClass: 2
Flags: W
LayerCount: 2
Fore
SplineSet
45 727 m 0
 55 728 64.001 728 66.001 728 c 1
 69.001 727 74.001 725 78.001 722 c 0
 82.001 719 89.001 713 93.001 709 c 0
 102.001 701 102.001 701 101.001 690 c 0
 100.001 681 100.001 677 102.001 672 c 0
 104.001 668 105.001 664 105.001 662 c 0
 105.001 660 106.001 655 106.001 651 c 1
 107.001 647 109.001 642 112.001 640 c 0
 116.001 636 116.001 634 115.001 626 c 0
 114.001 619 115.001 616 118.001 609 c 0
 122.001 602 122.001 600 122.001 580 c 0
 122.001 558 122.001 558 128.001 545 c 0
 132.001 538 135.001 531 135.001 529 c 0
 135.001 527 137.001 522 139.001 518 c 0
 143.001 511 144.001 507 144.001 497 c 2
 144.001 472 l 2
 144.001 463 144.001 460 147.001 458 c 0
 149.001 456 151.001 453 151.001 451 c 0
 151.001 449 152.001 446 153.001 445 c 1
 154.001 443 156.001 436 157.001 429 c 0
 159.001 421 161.001 413 162.001 410 c 0
 164.001 406 165.001 401 164.001 394 c 1
 164.001 385 164.001 382 167.001 379 c 0
 169.001 376 170.001 372 170.001 369 c 0
 170.001 367 171.001 363 173.001 360 c 0
 174.001 358 176.001 353 176.001 348 c 0
 176.001 344 177.001 334 178.001 326 c 0
 179.001 316 180.001 312 183.001 311 c 1
 186.001 309 186.001 307 185.001 292 c 0
 185.001 277 185.001 274 189.001 270 c 1
 192.001 266 193.001 263 193.001 255 c 0
 193.001 248 194.001 244 196.001 242 c 0
 198.001 239 199.001 235 199.001 224 c 0
 199.001 214 200.001 209 202.001 206 c 0
 204.001 203 205.001 196 206.001 189 c 1
 206.001 183 208.001 175 209.001 173 c 0
 211.001 170 212.001 165 213.001 161 c 0
 214.001 157 215.001 152 217.001 150 c 2
 218.001 148 221.001 146 223.001 146 c 0
 225.001 146 230.001 145 233.001 144 c 0
 239.001 142 239.001 142 242.001 146 c 0
 244.001 149 247.001 151 248.001 151 c 0
 249.001 151 252.001 153 255.001 156 c 0
 259.001 160 260.001 161 260.001 173 c 1
 259.001 180 260.001 187 261.001 190 c 0
 262.001 192 262.001 197 261.001 202 c 0
 259.001 209 259.001 210 263.001 212 c 1
 265.001 214 267.001 217 267.001 219 c 0
 267.001 222 268.001 226 271.001 229 c 1
 274.001 234 273.891 237.006 275.001 257 c 0
 276.001 275 277.001 281 279.001 285 c 0
 281.001 288 282.001 293 282.001 300 c 0
 282.001 310 283.001 311 289.001 317 c 0
 295.001 322 295.001 322 294.001 339 c 0
 293.118 354.008 293.001 355 297.001 361 c 0
 300.001 365 302.001 370 302.001 373 c 0
 302.001 376 304.001 381 306.001 385 c 0
 309.001 389 310.001 392 310.001 395 c 1
 309.001 398 310.001 403 313.001 408 c 0
 315.001 412 318.001 418 318.001 420 c 0
 318.001 422 318.001 429 317.001 435 c 0
 316.001 445 316.001 447 319.001 451 c 0
 322.001 454 323.001 458 323.001 465 c 0
 323.001 473 324.001 476 327.001 480 c 0
 331.001 485 331.001 486 331.001 499 c 0
 330.001 511 331.001 516 334.001 526 c 0
 338.001 536 338.001 541 338.001 552 c 0
 338.001 564 338.001 568 342.001 574 c 0
 345.001 580 346.001 585 346.001 592 c 0
 346.001 597 347.001 603 348.001 605 c 0
 349.001 607 351.001 612 352.001 616 c 1
 352.001 620 355.001 625 356.001 626 c 0
 359.001 629 360.001 631 359.001 643 c 0
 358.001 655 358.001 658 361.001 662 c 0
 363.001 665 366.001 671 369.001 676 c 0
 372.001 681 374.001 688 374.001 692 c 0
 374.001 695 375.001 700 376.001 703 c 1
 378.001 705 379.001 709 379.001 712 c 0
 379.001 714 380.001 717 382.001 719 c 1
 384.001 720 387.001 720 394.001 720 c 0
 402.001 719 404.001 719 409.001 723 c 0
 412.001 725 415.001 727 416.001 727 c 0
 417.001 727 420.001 726 423.001 723 c 1
 428.001 720 430.001 720 449.001 720 c 0
 460.001 720 470.001 721 471.001 721 c 1
 472.001 722 474.001 721 477.001 719 c 0
 479.001 718 481.001 715 481.001 712 c 0
 481.001 709 483.001 705 484.001 702 c 1
 487.001 697 487.925 695.006 487.001 683 c 0
 486.001 670 486.001 670 492.001 663 c 0
 496.001 659 498.001 654 499.001 648 c 0
 500.001 641 501.001 638 505.001 635 c 0
 509.001 632 509.001 630 509.001 619 c 0
 509.001 611 510.001 603 512.001 600 c 1
 513.001 596 514.001 588 514.001 581 c 0
 514.001 570 515.001 567 518.001 565 c 0
 520.001 563 523.001 558 525.001 554 c 0
 528.001 549 529.001 544 529.001 530 c 0
 529.001 516 530.001 511 533.001 507 c 0
 535.001 504 536.001 498 536.001 490 c 0
 537.001 481 538.001 477 541.001 473 c 0
 543.001 470 544.001 466 544.001 465 c 1
 543.001 464 544.001 459 546.001 456 c 0
 548.001 452 549.001 446 550.001 442 c 0
 551.001 439 553.001 435 555.001 434 c 1
 557.001 432 558.001 428 559.001 409 c 0
 559.001 397 561.001 384 562.001 379 c 1
 564.001 374 566.001 369 569.001 367 c 0
 572.001 364 572.001 363 572.001 345 c 0
 571.001 327 571.001 327 576.001 321 c 0
 580.001 315 581.001 314 579.001 307 c 0
 577.001 301 578.001 299 581.001 293 c 0
 585.001 286 585.001 283 585.001 266 c 0
 585.001 251 586.001 246 589.001 243 c 1
 590.001 240 592.001 235 592.001 231 c 0
 592.001 226 593.001 221 595.001 217 c 0
 598.001 213 601.001 208 602.001 206 c 1
 605.001 203 606.001 199 606.001 184 c 0
 607.001 171 608.001 164 610.001 161 c 0
 612.001 158 613.001 153 613.001 146 c 0
 613.001 140 614.001 134 615.001 132 c 0
 616.001 129 618.001 128 626.001 128 c 0
 632.001 128 636.001 129 637.001 130 c 1
 638.001 132 639.001 135 640.001 139 c 1
 642.001 142 644.001 148 645.001 152 c 0
 646.001 156 648.001 161 650.001 163 c 1
 652.001 164 653.001 168 653.001 170 c 0
 653.001 173 655.001 176 657.001 179 c 0
 660.001 182 661.001 185 661.001 200 c 0
 661.001 214 662.001 218 664.001 221 c 0
 666.001 223 668.001 229 669.001 236 c 1
 669.001 242 670.001 251 669.001 256 c 1
 669.001 263 669.001 267 671.001 270 c 0
 673.001 272 674.001 275 674.001 277 c 0
 674.001 279 676.001 284 678.001 288 c 0
 681.001 293 682.001 298 682.001 301 c 1
 681.001 304 683.001 308 686.001 313 c 0
 690.001 321 690.001 322 689.001 343 c 0
 688.684 349.667 688.445 354.333 688.445 358.074 c 0
 688.445 365.556 689.334 369.333 692.001 378 c 0
 695.001 385 698.001 394 699.001 396 c 0
 701.001 399 702.001 404 703.001 407 c 0
 704.001 411 703.001 414 702.001 416 c 1
 701.001 417 701.001 420 702.001 423 c 1
 702.001 426 703.001 431 702.001 435 c 1
 702.001 439 703.001 442 705.001 445 c 0
 707.001 447 711.001 453 714.001 459 c 0
 717.001 467 718.001 471 718.001 482 c 0
 718.001 491 719.001 497 721.001 501 c 0
 723.001 505 724.001 512 724.001 525 c 0
 724.001 539 725.001 543 727.001 546 c 0
 729.001 548 732.001 553 734.001 558 c 0
 736.001 563 737.001 573 738.001 586 c 0
 739.077 599.994 740.001 607 743.001 611 c 0
 746.001 616 745.884 617.992 745.001 633 c 0
 744.001 650 744.001 650 749.001 655 c 0
 751.001 658 753.001 661 752.001 662 c 1
 752.001 663 753.001 667 755.001 671 c 0
 758.001 675 759.001 680 759.001 687 c 0
 759.001 695 761.001 699 765.001 708 c 0
 768.001 714 773.001 721 776.001 723 c 0
 780.001 726 783.001 726 798.001 726 c 0
 811.001 726 816.001 725 818.001 723 c 0
 820.001 721 825.001 720 829.001 719 c 0
 837.001 718 837.001 718 837.001 702 c 0
 837.001 693 838.001 685 839.001 684 c 1
 840.001 682 839.001 679 836.001 675 c 1
 832.001 671 831.001 667 831.001 663 c 0
 831.001 660 829.001 655 827.001 651 c 0
 825.001 646 823.001 641 823.001 634 c 0
 823.001 627 822.001 621 820.001 617 c 0
 817.001 612 817.111 609.007 818.001 593 c 0
 819.001 575 819.001 574 814.001 571 c 0
 810.001 568 809.001 566 809.001 560 c 0
 809.001 556 808.001 551 807.001 548 c 1
 805.001 546 804.001 541 804.001 538 c 0
 804.001 535 802.001 530 800.001 527 c 0
 796.001 523 795.001 519 795.001 512 c 0
 795.001 506 794.001 502 792.001 498 c 0
 790.001 495 788.001 490 788.001 484 c 0
 788.001 480 787.001 473 785.001 470 c 1
 784.001 467 782.001 461 782.001 457 c 0
 782.001 453 780.001 447 778.001 442 c 0
 775.001 435 774.001 432 775.001 419 c 0
 775.001 407 774.001 404 772.001 401 c 0
 770.001 399 769.001 395 769.001 393 c 0
 769.001 390 767.001 385 766.001 382 c 0
 764.001 378 762.001 374 762.001 372 c 0
 762.001 370 760.001 362 758.001 356 c 0
 755.001 346 754.001 341 754.001 332 c 0
 755.001 322 755.001 320 752.001 317 c 0
 749.001 315 748.001 312 748.001 307 c 0
 748.001 303 747.001 299 744.001 296 c 0
 742.001 293 740.001 289 740.001 283 c 0
 740.001 279 741.001 272 741.001 268 c 0
 742.001 262 741.001 260 737.001 255 c 0
 733.001 250 732.001 248 733.001 241 c 0
 734.001 236 733.001 229 732.001 224 c 0
 731.001 219 729.001 211 728.001 206 c 1
 726.001 202 724.001 196 722.001 193 c 1
 721.001 190 720.001 183 720.001 172 c 0
 720.001 158 719.001 154 716.001 151 c 1
 714.001 147 713.001 145 714.001 136 c 0
 715.001 126 715.001 126 709.001 121 c 0
 705.001 118 702.001 114 702.001 112 c 0
 702.001 110 700.001 102 697.001 93 c 0
 692.001 79 691.001 73 691.001 58 c 0
 691.001 45 690.001 38 688.001 36 c 1
 687.001 34 686.001 30 685.001 27 c 1
 685.001 22 683.001 19 680.001 16 c 0
 677.001 13 670.001 9 665.001 6 c 0
 659.574 2.12402 655.95 0.651367 652.731 0.651367 c 0
 651.799 0.651367 650.899 0.775391 650 1 c 2
 647 1 642 3 640 5 c 0
 637 7 633 8 610 8 c 0
 595 9 582 10 579 11 c 0
 576 12 573 14 572 16 c 0
 571 18 571 21 571 23 c 0
 571 25 569 29 566 32 c 0
 563 36 562 39 563 43 c 1
 563 47 562 51 560 55 c 0
 558 59 556 65 556 68 c 0
 556 72 555 77 553 81 c 0
 550 85 549 90 549 96 c 0
 549 103 549 108 546 112 c 0
 544 116 542 122 542 130 c 1
 541 136 539 146 537 151 c 0
 534 158 534 163 534 168 c 1
 535 173 534 177 532 182 c 0
 530 186 527 194 525 201 c 0
 523 208 521 216 521 219 c 0
 521 222 520 227 518 231 c 0
 515 236 514 241 514 253 c 0
 514 264 513 271 512 274 c 1
 510 277 509 279 508 280 c 1
 507 280 505 284 502 288 c 1
 499 295 498 298 499 308 c 0
 500 318 500 320 497 324 c 0
 494 329 493 333 492 353 c 0
 492 366 490 379 489 382 c 0
 488 385 485 390 482 394 c 0
 479 399 478 403 478 413 c 0
 478 420 477 428 476 431 c 0
 475 433 473 442 471 450 c 0
 470 459 468 468 466 471 c 0
 464 475 464 479 465 486 c 0
 466 495 465 496 461 500 c 0
 457 505 457 506 457 522 c 0
 456 535 456 541 454 543 c 0
 452 545 451 548 451 550 c 0
 451 551 448 559 444 567 c 2
 441 576 437 585 436 588 c 0
 435 592 433 593 424 596 c 0
 416 599 414 599 412 597 c 1
 410 596 409 591 409 581 c 0
 409 571 408 565 406 563 c 1
 405 561 404 558 404 557 c 0
 404 555 402 552 400 549 c 0
 398 547 397 543 397 540 c 0
 397 537 395 533 393 530 c 0
 390 525 390 522 390 510 c 0
 390 503 389 491 388 485 c 2
 388 478 386 472 384 470 c 1
 383 468 382 462 382 450 c 0
 382 434 381 432 378 428 c 1
 374 425 374 422 374 412 c 0
 374 405 373 399 371 397 c 1
 370 394 368 386 368 378 c 0
 367 370 366 359 364 355 c 0
 362 351 361 339 360 330 c 0
 360 321 358 312 357 311 c 0
 356 310 355 305 354 302 c 0
 353 298 351 293 350 290 c 1
 348 288 345 281 342 276 c 1
 339 268 338 264 339 249 c 0
 339 233 339 230 336 227 c 1
 335 225 333 221 332 217 c 1
 332 213 331 209 330 207 c 0
 329 205 327 198 326 191 c 0
 324 184 322 176 321 174 c 0
 320 171 318 163 318 156 c 0
 318 146 317 139 314 134 c 1
 312 129 311 122 311 117 c 0
 311 112 309 104 307 98 c 0
 305 93 302 86 300 82 c 0
 297 76 297 72 297 56 c 0
 297 40 297 37 294 34 c 0
 292 32 290 30 289 30 c 0
 287 30 285 28 282 26 c 1
 280 23 277 21 275 21 c 0
 273 21 271 19 271 16 c 1
 270 14 268 11 266 9 c 1
 262 7 259 7 250 8 c 0
 241 9 239 8 234 5 c 0
 230 3 226 2 213 2 c 0
 198 2 197 2 188 8 c 0
 183 11 177 16 175 20 c 2
 172 23 170 27 170 28 c 0
 170 29 169 32 167 35 c 0
 165 37 163 43 162 47 c 1
 162 52 160 57 158 59 c 0
 155 63 155 66 156 82 c 0
 156 99 156 101 152 106 c 1
 150 110 148 114 149 119 c 1
 149 124 147 131 145 136 c 0
 143 141 142 148 142 152 c 0
 142 157 141 161 138 165 c 1
 134 169 134 172 134 181 c 0
 134 190 133 195 130 198 c 1
 129 201 126 206 124 210 c 0
 122 213 121 222 120 230 c 0
 119 239 118 245 116 247 c 0
 113 250 113 253 113 265 c 0
 113 279 113 280 109 282 c 0
 105 285 105 286 106 294 c 0
 107 300 107 304 105 305 c 1
 104 305 103 308 103 310 c 0
 103 312 102 315 101 315 c 1
 100 316 100 319 101 324 c 1
 101 330 101 332 97 338 c 0
 94 343 93 347 93 355 c 0
 92 364 91 368 88 373 c 0
 86 376 84 382 84 385 c 0
 84 388 82 392 79 394 c 0
 75 398 75 399 77 405 c 1
 78 411 78 413 75 417 c 0
 72 422 71.0713 423.995 72 437 c 0
 73 451 73 452 68 458 c 0
 63 463 63 464 64 475 c 0
 64.9102 485.009 65 487 61 493 c 0
 59 496 57 502 57 506 c 0
 57 509 56 514 54 517 c 0
 51 521 50 525 50 534 c 0
 50 543 49 547 46 551 c 0
 44 554 43 559 43 564 c 0
 43 570 42 573 39 577 c 1
 36 579 35 583 35 584 c 2
 34 586 35 591 36 595 c 0
 37 601 36 602 31 607 c 0
 28 610 26 613 27 614 c 1
 27 616 28 621 29 625 c 0
 30 631 29 634 26 639 c 1
 21 645 21 647 22 663 c 0
 22 680 22 680 15 687 c 0
 11 691 8 696 8 698 c 0
 8 700 11 706 15 710 c 1
 18 714 21 718 22 720 c 1
 22 722 24 724 26 725 c 1
 27 725 36 727 45 727 c 0
EndSplineSet
Validated: 33
EndChar

StartChar: uni0058
Encoding: 88 88 57
Width: 633
GlyphClass: 2
Flags: W
LayerCount: 2
Fore
SplineSet
82 711 m 1
 82.667 711.333 83.333 711.556 84.0371 711.556 c 0
 85.4443 711.556 87 710.667 89 708 c 1
 92 706 95 704 97 704 c 0
 99 704 104 703 107 702 c 1
 110 700 114 697 116 695 c 0
 119 693 119 691 118 689 c 0
 116 686 117 685 120 683 c 0
 122 682 129 676 135 670 c 0
 140 665 146 658 146 656 c 1
 147 653 151 647 155 642 c 0
 159 637 163 631 164 628 c 0
 165 626 168 620 172 614 c 0
 176 609 180 604 181 603 c 0
 182 602 184 598 186 594 c 0
 189 589 197 580 205 572 c 0
 214 563 220 556 223 549 c 1
 227 543 231 538 236 534 c 0
 241 531 246 528 250 528 c 0
 255 527 258 526 261 522 c 0
 264 518 265 515 265 507 c 0
 265 499 266 494 271 484 c 0
 274 477 279 468 282 464 c 0
 285 461 288 457 288 455 c 0
 288 454 290 452 292 450 c 0
 295 448 298 443 300 439 c 0
 304 431 304 431 323 431 c 0
 341 431 341 431 344 437 c 0
 346 440 348 444 348 447 c 0
 348 450 350 454 351 457 c 0
 352 459 356 463 360 465 c 0
 367 468 367 468 366 474 c 0
 365 479 366 482 368 484 c 0
 369 485 371 486 372 486 c 0
 373 486 375 488 378 491 c 0
 380 493 382 497 382 499 c 0
 382 501 384 505 386 507 c 1
 388 508 389 511 389 513 c 0
 389 514 394 520 400 527 c 0
 406 533 411 539 411 540 c 0
 411 542 412 545 415 548 c 0
 417 551 421 558 423 563 c 1
 426 568 430 573 433 576 c 0
 436 578 439 581 439 583 c 0
 439 585 441 590 443 595 c 1
 446 599 451 606 455 611 c 0
 459 616 461 621 461 622 c 0
 461 623 465 626 468 630 c 1
 473 634 477 641 481 650 c 0
 486 660 490 667 499 676 c 2
 518 695 l 1
 522 698 525 702 525 703 c 0
 525 705 527 707 530 709 c 1
 533 710 537 711 539 711 c 0
 541 711 545 709 547 707 c 0
 550 703 552 703 568 703 c 0
 578 703 587 702 589 702 c 1
 591 701 596 697 599 692 c 0
 604 684 604 684 596 676 c 0
 592 672 586 665 583 661 c 0
 580 657 577 653 577 652 c 0
 577 651 574 647 571 644 c 0
 567 640 560 635 556 632 c 0
 551 629 547 626 547 624 c 2
 547 618 l 2
 547 617 547 611 545 605 c 1
 544 596 542 593 535 587 c 0
 528 580 526 577 526 572 c 1
 525 568 523 563 522 561 c 1
 520 559 516 557 512 555 c 0
 509 554 504 551 502 549 c 0
 500 547 498 542 497 539 c 0
 495 534 493 531 490 529 c 1
 485 527 484 525 483 519 c 0
 482 514 480 510 473 503 c 0
 467 498 463 492 463 490 c 0
 463 488 460 483 457 479 c 1
 453 475 449 472 447 472 c 0
 445 472 443 470 441 466 c 0
 439 462 436 457 433 453 c 1
 429 449 427 446 428 441 c 1
 428 422 l 2
 428 415 427 408 426 405 c 0
 425 402 421 396 416 392 c 0
 410 386 407 382 406 377 c 0
 406 373 404 367 402 364 c 0
 400 361 399 353 399 342 c 0
 398 329 398 324 401 320 c 1
 402 317 405 314 406 313 c 0
 408 311 409 309 409 307 c 0
 409 305 412 300 416 296 c 0
 421 291 425 285 427 282 c 1
 428 279 436 269 445 261 c 0
 453 252 460 243 461 240 c 1
 461 238 465 232 470 228 c 1
 474 223 477 218 477 217 c 0
 477 215 481 212 485 209 c 0
 489 206 493 201 495 199 c 1
 496 196 502 189 508 183 c 0
 514 177 519 171 519 169 c 0
 519 168 524 162 529 157 c 0
 534 151 541 141 545 135 c 0
 549 129 555 122 557 121 c 0
 560 120 563 115 566 110 c 0
 569 105 575 96 580 90 c 0
 585 84 590 77 590 76 c 0
 590 74 592 70 596 67 c 1
 600 63 602 59 602 56 c 0
 602 54 603 49 604 47 c 0
 605 44 608 41 611 40 c 0
 613 39 617 34 620 29 c 1
 622 24 625 18 625 14 c 0
 625 10 623 8 619 4 c 0
 614 0 613 0 596 0 c 0
 586 -1 575 -1 570 0 c 0
 566 0 561 1 559 3 c 1
 557 4 552 5 549 5 c 0
 546 5 542 6 541 7 c 0
 540 8 537 13 535 17 c 0
 533 21 532 26 532 28 c 0
 532 30 529 33 526 35 c 1
 523 36 518 40 515 43 c 0
 512 46 508 49 507 49 c 1
 507 49 504 52 503 55 c 1
 501 58 499 62 498 62 c 1
 497 63 494 68 491 74 c 0
 488 79 485 84 484 84 c 0
 483 84 480 89 476 94 c 0
 473 99 470 106 469 109 c 1
 469 112 465 117 462 121 c 0
 459 124 455 129 454 132 c 1
 452 135 450 139 447 141 c 0
 445 143 441 145 438 146 c 0
 434 148 432 149 432 153 c 0
 432 155 429 160 426 163 c 0
 422 167 418 173 417 178 c 1
 415 183 411 191 408 196 c 0
 404 201 402 206 402 209 c 0
 402 212 400 214 395 217 c 0
 392 219 388 222 387 225 c 2
 385 227 384 231 383 234 c 1
 383 237 378 242 369 249 c 0
 359 256 354 261 351 267 c 0
 349 272 343 280 338 285 c 0
 331 293 330.998 292.971 313 294 c 0
 295.998 294.973 296 295 290 286 c 0
 286 281 281 275 279 272 c 0
 277 270 275 267 275 266 c 0
 275 265 273 262 270 260 c 0
 267 258 263 252 261 247 c 1
 258 242 253 234 250 231 c 0
 246 227 241 220 238 216 c 0
 235 212 232 205 231 201 c 1
 229 197 227 193 225 192 c 0
 223 191 217 186 211 180 c 0
 205 174 202 170 203 168 c 1
 203 166 202 163 199 160 c 0
 196 157 191 151 188 147 c 2
 184 143 181 137 180 133 c 0
 179 130 178 125 178 122 c 1
 177 119 174 115 170 112 c 0
 167 109 162 102 159 97 c 0
 156 93 154 87 154 84 c 0
 154 82 151 77 148 73 c 1
 144 69 139 67 137 67 c 0
 134 67 132 64 129 60 c 0
 126 56 124 52 124 50 c 0
 124 48 123 44 121 41 c 0
 119 38 112 30 105 23 c 0
 98 15 89 7 85 4 c 0
 78 -1 78 -1 57 -1 c 0
 42 0 35 0 32 2 c 0
 30 4 24 6 20 6 c 1
 16 7 12 8 10 9 c 1
 9 10 8 11 8 12 c 0
 8 13 11 16 14 20 c 0
 16 24 19 28 19 29 c 0
 19 31 21 34 23 37 c 0
 25 40 29 47 31 52 c 1
 34 57 40 64 48 70 c 0
 55 76 62 84 65 89 c 0
 68 95 76 105 83 112 c 0
 90 119 96 127 98 129 c 1
 99 131 102 133 104 134 c 1
 106 134 109 138 112 143 c 0
 115 149 117 154 117 159 c 0
 117 166 118 168 125 175 c 0
 129 179 134 182 136 182 c 0
 138 182 141 184 143 185 c 1
 144 187 145 191 145 195 c 0
 145 201 146 203 155 211 c 0
 160 216 166 223 167 226 c 1
 169 229 171 232 173 233 c 0
 175 234 177 237 177 238 c 0
 177 240 179 244 182 247 c 0
 185 250 188 254 188 255 c 2
 188 260 l 1
 189 261 189 262 189 263 c 0
 189 264 192 268 196 273 c 0
 200 277 203 283 204 286 c 0
 205 289 206 292 208 292 c 1
 209 293 212 296 215 300 c 0
 217 304 221 308 223 309 c 0
 226 310 229 312 231 315 c 0
 232 317 237 321 241 323 c 0
 247 326 249 327 250 332 c 0
 250 335 251 340 251 343 c 0
 251 346 252 352 254 357 c 0
 257 363 257 366 256 371 c 0
 255 375 254 379 253 380 c 0
 252 381 251 383 251 385 c 0
 251 386 249 390 247 392 c 0
 245 395 243 399 243 402 c 0
 243 405 241 407 239 408 c 0
 237 409 232 413 228 417 c 1
 225 421 221 425 220 425 c 0
 219 425 214 430 210 436 c 0
 203 444 202 447 202 452 c 0
 202 456 201 460 199 461 c 2
 198 463 195 464 192 464 c 0
 188 464 185 465 182 468 c 0
 180 471 179 475 179 479 c 0
 179 482 178 486 178 487 c 1
 177 489 173 493 169 496 c 0
 165 499 156 508 149 516 c 0
 142 524 137 532 137 533 c 0
 137 534 134 538 131 541 c 0
 129 544 126 550 124 553 c 1
 123 557 119 563 115 566 c 1
 112 570 107 575 106 578 c 0
 105 581 98 589 92 596 c 0
 86 602 80 608 80 610 c 0
 80 612 77 616 74 620 c 1
 70 624 66 631 64 637 c 0
 61 644 58 648 53 651 c 0
 49 654 47 657 47 660 c 0
 47 662 46 665 45 668 c 0
 44 670 41 675 38 678 c 0
 34 683 33 686 33 690 c 1
 34 693 35 695 42 698 c 0
 46 700 53 703 56 703 c 1
 60 704 65 705 67 707 c 1
 69 708 73 709 75 709 c 0
 77 709 81 710 82 711 c 1
EndSplineSet
Validated: 33
EndChar

StartChar: uni005A
Encoding: 90 90 59
Width: 660
GlyphClass: 2
Flags: W
LayerCount: 2
Fore
SplineSet
274 720 m 0
 277 722 282.003 723 288.003 723 c 0
 293.003 723 300.003 722 303.003 721 c 0
 308.003 719 317.003 718 330.003 717 c 0
 341.003 717 352.003 718 355.003 719 c 0
 359.003 720 362.003 720 367.003 718 c 0
 371.003 716 375.003 715 382.003 716 c 0
 385.538 716.707 406.073 717.414 433.355 717.414 c 0
 444.656 717.414 457.114 717.293 470.002 717 c 0
 522.002 717 551.002 717 556.002 719 c 0
 560.002 720 564.002 721 564.002 722 c 1
 565.002 723 570.002 723 574.002 723 c 0
 579.002 723 583.002 722 587.002 719 c 0
 591.002 716 594.002 711 597.002 704 c 0
 599.002 699 601.002 692 601.002 690 c 0
 601.002 688 603.002 681 605.002 676 c 0
 607.002 671 609.002 665 609.002 663 c 0
 609.002 661 606.002 654 603.002 648 c 0
 600.002 642 595.002 635 593.002 633 c 1
 592.002 631 590.002 627 589.002 623 c 0
 588.002 620 585.002 613 582.002 608 c 0
 579.002 603 575.002 599 573.002 598 c 1
 572.002 598 569.002 594 566.002 590 c 0
 564.002 586 559.002 581 555.002 580 c 1
 551.002 578 546.002 573 543.002 570 c 0
 541.002 567 536.002 559 533.002 552 c 0
 530.002 545 525.002 538 524.002 536 c 1
 522.002 534 518.002 532 516.002 532 c 0
 513.002 532 510.002 530 508.002 528 c 0
 506.002 526 504.002 522 503.002 520 c 1
 503.002 518 501.002 514 500.002 512 c 0
 498.002 509 496.002 507 495.002 507 c 1
 495.002 507 493.002 505 492.002 503 c 0
 490.002 500 487.002 494 484.002 489 c 0
 481.002 484 476.002 479 474.002 477 c 0
 472.002 475 471.002 472 471.002 470 c 0
 471.002 468 468.002 464 465.002 462 c 0
 462.002 460 460.002 457 460.002 455 c 0
 460.002 454 457.002 452 454.002 450 c 1
 450.002 449 447.002 446 446.002 444 c 0
 445.002 442 441.002 438 437.002 435 c 0
 433.002 432 429.002 427 427.002 424 c 1
 426.002 421 423.002 417 420.002 415 c 1
 417.002 414 413.002 411 412.002 408 c 1
 410.002 406 406.002 402 403.002 400 c 1
 398.002 398 397.002 396 397.002 392 c 0
 397.002 388 395.002 385 389.002 380 c 1
 384.002 377 379.002 371 376.002 367 c 0
 373.002 362 370.002 360 367.002 359 c 0
 364.002 358 359.002 355 355.002 353 c 1
 351.002 349 349.002 345 348.002 339 c 0
 347.002 332 345.002 329 333.002 317 c 0
 326.002 309 317.002 301 314.002 300 c 0
 312.002 299 307.002 295 305.002 291 c 0
 302.002 287 299.002 281 299.002 277 c 1
 298.002 274 297.002 270 296.002 269 c 0
 295.002 268 294.002 267 292.002 267 c 0
 291.002 267 283.002 259 274.002 250 c 0
 265.002 241 258.002 232 257.002 229 c 0
 256.002 226 255.002 222 253.002 221 c 2
 252.002 219 248.002 217 245.002 217 c 1
 241.002 216 239.002 214 237.002 208 c 0
 235.002 204 231.002 199 228.002 196 c 0
 225.002 194 217.002 187 211.002 181 c 0
 205.002 175 200.002 168 200.002 166 c 0
 200.002 165 195.002 157 188.002 150 c 0
 181.002 143 175.002 136 175.002 134 c 0
 175.002 133 172.002 128 167.002 124 c 0
 159.002 116 159.002 116 159.002 99 c 0
 158.002 83 158.002 82 162.002 80 c 0
 166.002 77 172.002 77 193.002 77 c 0
 199.252 77.25 204.064 77.375 207.83 77.375 c 0
 219.127 77.375 221.002 76.25 224.002 74 c 0
 226.002 72 230.002 70 233.002 70 c 0
 236.002 70 243.002 72 249.002 75 c 0
 254.002 77 261.002 80 264.002 82 c 0
 266.002 83 272.002 84 277.002 84 c 1
 282.002 85 288.002 83 291.002 82 c 1
 296.002 79 302.002 78 314.002 78 c 0
 326.002 78 333.002 79 337.002 81 c 0
 341.002 83 343.002 83 349.002 81 c 0
 354.002 79 374.002 78 441.002 78 c 0
 517.002 78 527.002 77 531.002 75 c 1
 533.002 73 539.002 72 543.002 72 c 0
 548.002 72 556.002 74 564.002 77 c 0
 571.002 80 580.002 84 584.002 85 c 0
 591.002 86 592.002 86 597.002 83 c 1
 599.002 80 604.002 77 606.002 76 c 0
 609.002 74 612.002 71 613.002 69 c 0
 614.002 66 615.002 60 615.002 55 c 0
 615.002 48 614.002 44 611.002 41 c 0
 609.002 38 608.002 35 608.002 34 c 0
 608.002 32 605.002 27 602.002 22 c 0
 596.002 13 596.002 13 567.002 13 c 0
 541.002 13 538.002 14 532.002 17 c 0
 526.002 21 523.002 21 494.002 21 c 2
 457.002 21 l 1
 440.002 21 l 2
 433.002 21 428.002 20 426.002 18 c 0
 425.002 17 423.002 16 422.002 16 c 0
 421.002 16 417.002 17 414.002 18 c 1
 409.002 21 408.002 21 399.002 18 c 0
 392.002 15 386.002 14 370.002 13 c 0
 359.002 13 348.002 13 346.002 14 c 0
 344.002 15 340.002 14 335.002 13 c 1
 328.002 10 326.002 10 321.002 12 c 0
 318.002 13 314.002 14 312.002 14 c 0
 310.002 14 308.002 12 306.002 10 c 0
 304.002 8 301.002 7 295.002 7 c 0
 289.002 7 286.002 8 284.002 10 c 0
 282.002 12 278.002 13 266.002 13 c 0
 257.002 13 247.002 12 242.002 11 c 1
 238.002 9 231.002 8 227.002 7 c 1
 221.002 7 218.002 7 214.002 10 c 1
 208.002 13 205.002 14 144.002 14 c 0
 132.335 13.667 121.112 13.5557 111.261 13.5557 c 0
 91.5566 13.5557 77.334 14 76.001 14 c 0
 74.001 14 70.001 16 66.001 20 c 0
 61.001 25 60.001 26 59.001 39 c 0
 58.001 47 57.001 55 55.001 57 c 1
 54.001 59 51.001 66 49.001 73 c 0
 47.2031 78.8438 46.2129 82.0605 46.2129 84.376 c 0
 46.2129 87.2119 47.6973 88.6963 51 91.999 c 0
 54 94.999 58 99.999 61 103.999 c 0
 64 107.999 67 111.999 67 112.999 c 0
 67 114.999 69 118.999 72 122.999 c 0
 75 126.999 77 131.999 78 134.999 c 0
 79 137.999 83 142.999 87 146.999 c 0
 91 150.999 95 153.999 96 153.999 c 0
 97 153.999 99 156.999 100 160.999 c 0
 101 164.999 105 170.999 112 176.999 c 0
 118 182.999 125 188.999 128 191.999 c 0
 132 194.999 138 201.999 142 206.999 c 0
 146 211.999 151 218.999 153 221.999 c 1
 154 224.999 158 229.999 160 231.999 c 0
 163 233.999 165 236.999 165 238.999 c 0
 165 241.999 167 245.999 170 248.999 c 2
 172 252.999 179 259.999 184 264.999 c 0
 190 269.999 197 275.999 201 278.999 c 0
 204 280.999 211 287.999 215 293.999 c 0
 219 299.999 225 304.999 228 306.999 c 1
 232 307.999 234 309.999 235 315.999 c 0
 237 322.999 241 326.999 256 341.999 c 0
 269 354.999 276 361.999 276 364.999 c 0
 276 366.999 276 369.999 277 372.999 c 0
 278 375.999 282 378.999 287 380.999 c 0
 291 382.999 296 385.999 298 389.999 c 0
 300 393.999 304 396.999 306 397.999 c 1
 307 397.999 312 403.999 316 410.999 c 0
 320 417.999 326 425.999 328 427.999 c 0
 331 429.999 334 433.999 334 435.999 c 1
 335 437.999 337 441.999 340 442.999 c 1
 342 444.999 344 447.999 344 448.999 c 0
 344 450.999 346 452.999 347 453.999 c 1
 349 453.999 352 456.999 354 459.999 c 0
 356 461.999 361 467.999 365 472.999 c 1
 370 476.999 374 481.999 374 483.999 c 0
 374 484.999 376 488.999 379 490.999 c 0
 382 492.999 385 496.999 385 498.999 c 1
 386 500.999 390 503.999 393 505.999 c 0
 397 507.999 401 510.999 402 512.999 c 0
 403 514.999 407 519.999 411 523.999 c 2
 414 527.999 422 534.999 427 540.999 c 2
 433 545.999 438 551.999 438 553.999 c 1
 439 555.999 442 558.999 445 560.999 c 0
 449 562.999 452 564.999 452 567.999 c 1
 453 570.999 455 574.999 456 575.999 c 0
 458 577.999 460 578.999 461 578.999 c 0
 462 578.999 464 580.999 466 581.999 c 1
 467 583.999 471 586.999 475 589.999 c 0
 478 591.999 482 594.999 482 596.999 c 1
 483 598.999 485 601.999 488 603.999 c 0
 491 605.999 493 608.999 493 610.999 c 0
 493 611.999 495 617.999 498 621.999 c 1
 502 629.999 502 631.999 502 639.999 c 1
 501 644.999 500 649.999 498 650.999 c 1
 497 651.999 492 653.999 487 655.999 c 0
 480 657.999 469 658.999 454 658.999 c 0
 433 659.999 431 659.999 426 655.999 c 0
 421 652.999 419 652.999 367 652.999 c 2
 310 652.999 l 1
 251 652.999 l 2
 221 652.999 189 652.999 180 653.999 c 0
 171 654.999 162 655.999 160 657.999 c 1
 156 659.999 154 658.999 149 655.999 c 0
 144 652.999 140 651.999 131 652.999 c 0
 122 652.999 116 653.999 112 655.999 c 0
 109 657.999 102 659.999 96 659.999 c 1
 91 660.999 84 662.999 80 663.999 c 1
 75 666.999 73 668.999 69 676.999 c 0
 66 683.999 65 688.999 66 691.999 c 2
 66 694.999 68 699.999 70 702.999 c 0
 72 704.999 78 709.999 84 711.999 c 1
 94 716.999 94 716.999 137 717.999 c 2
 184 717.999 l 1
 229 717.999 l 2
 238.646 717.731 246.067 717.607 251.839 717.607 c 0
 267.608 717.607 271.072 718.536 274 720 c 0
EndSplineSet
Validated: 33
EndChar

StartChar: uni005B
Encoding: 91 91 60
Width: 390
GlyphClass: 2
Flags: W
LayerCount: 2
Fore
SplineSet
213 805 m 1
 220 806 229 807.001 247 807.001 c 0
 264 806.001 272 805.001 275 803.001 c 0
 277 802.001 280 801.001 282 801.001 c 0
 285 801.001 289 798.001 294 793.001 c 0
 300 786.001 300 785.001 300 778.001 c 1
 299 774.001 297 769.001 296 767.001 c 0
 294 763.001 292 763.001 268 763.001 c 0
 253 763.001 237 763.001 233 762.001 c 0
 228 761.001 222 759.001 221 758.001 c 1
 219 758.001 213 757.001 207 757.001 c 0
 200 757.001 196 756.001 194 754.001 c 0
 193 753.001 191 751.001 191 750.001 c 0
 191 749.001 190 746.001 188 743.001 c 0
 186.098 740.465 185.401 737.929 185.401 727.239 c 0
 185.401 721.067 185.634 712.178 186 699.001 c 2
 186 656.001 l 2
 186 654.001 186 649.001 185 644.001 c 0
 185 640.001 184 635.001 184 634.001 c 0
 184 632.001 185 627.001 185 623.001 c 0
 186 618.001 186 610.001 186 605.001 c 0
 186 600.001 185 587.001 184 575.001 c 0
 183 563.001 182 552.001 182 550.001 c 0
 182 547.001 183 537.001 183 527.001 c 0
 183.707 519.93 184.414 499.858 184.414 476.687 c 0
 184.414 467.089 184.293 456.959 184 447.001 c 2
 184 381.001 l 1
 184 342.001 l 2
 184 314.001 185 306.001 187 300.001 c 0
 189 296.001 191 289.001 192 285.001 c 0
 193 281.001 193 276.001 193 274.001 c 2
 193 203.001 l 2
 192 144.001 192 135.001 189 130.001 c 0
 187 127.001 186 123.001 187 120.001 c 0
 188 118.001 190 112.001 193 107.001 c 1
 196 99.001 197 97.001 195 92.001 c 0
 194 89.001 193 73.001 192 55.001 c 0
 192 38.001 191 22.001 190 19.001 c 1
 190 16.001 191 11.001 194 4.00098 c 0
 198 -5.99902 198 -5.99902 195 -15.999 c 0
 191 -26.999 191 -26.999 196 -33.999 c 0
 199 -37.999 200 -42.999 200 -47.999 c 0
 200 -52.999 201 -54.999 204 -56.999 c 0
 206 -57.999 211 -57.999 215 -57.999 c 0
 220 -56.999 224 -57.999 226 -58.999 c 0
 228 -59.999 231 -61.999 233 -61.999 c 0
 235 -61.999 240 -62.999 243 -63.999 c 0
 247 -65.999 251 -66.999 253 -65.999 c 0
 255 -64.999 259 -62.999 261 -60.999 c 0
 264 -57.999 268 -55.999 270 -55.999 c 2
 282 -55.999 l 2
 290 -55.999 292 -56.999 301 -64.999 c 0
 306 -68.999 311 -73.999 311 -74.999 c 1
 311.5 -75.999 311.75 -77.249 311.75 -78.624 c 0
 311.75 -79.999 311.5 -81.499 311 -82.999 c 0
 310 -84.999 307 -88.999 305 -90.999 c 0
 303 -92.999 298 -95.999 293 -97.999 c 0
 287 -99.999 275 -100.999 234 -100.999 c 0
 205 -101.999 181 -101.999 179 -101.999 c 2
 163 -101.999 l 2
 150 -100.999 150 -100.999 143 -93.999 c 0
 138 -89.999 135 -85.999 135 -84.999 c 0
 135 -83.999 134 -48.999 134 -6.99902 c 0
 134 35.001 133 70.001 133 71.001 c 1
 134 72.001 134 81.001 135 92.001 c 0
 135 110.001 135 112.001 131 123.001 c 0
 127 133.001 126 137.001 127 144.001 c 0
 128 148.001 129 154.001 128 156.001 c 1
 128 176.001 l 2
 128 189.001 129 194.001 132 200.001 c 0
 134 204.001 136 209.001 135 211.001 c 1
 135 213.001 135 232.001 134 252.001 c 0
 134 272.001 134 292.001 133 295.001 c 1
 133 307.001 l 2
 133 310.001 134 315.001 135 317.001 c 0
 136 320.001 136 327.001 135 337.001 c 0
 134 347.001 132 355.001 129 361.001 c 0
 124 369.001 124 369.001 128 374.001 c 0
 130 377.001 132 381.001 132 384.001 c 0
 132 387.001 131 393.001 129 396.001 c 1
 127 402.001 127 413.001 127 449.001 c 0
 127 484.001 127 496.001 125 500.001 c 0
 123 505.001 123 507.001 125 512.001 c 0
 127 516.001 127 534.001 127 588.001 c 0
 127 654.001 127 660.001 124 664.001 c 0
 122 667.001 120 674.001 120 683.001 c 0
 119.667 687.001 119.444 689.89 119.444 692.148 c 0
 119.444 696.667 120.333 698.667 123 702 c 0
 126 705 126 709 126 717 c 0
 126 723 125 729 123 732 c 0
 122 734 121 739 121 742 c 0
 121 745 122 751 124 755 c 0
 127 761 128 768 128 778 c 0
 128 786 129 793 130 794 c 1
 131 796 136 798 143 799 c 0
 149 800 160 801 168 800 c 0
 176 800 187 800 193 801 c 0
 199 802 209 803 213 805 c 1
EndSplineSet
Validated: 33
EndChar

StartChar: uni005C
Encoding: 92 92 61
Width: 242
GlyphClass: 2
Flags: W
LayerCount: 2
Fore
SplineSet
-27 820 m 0
 -26 821 -23 821 -20 821 c 1
 -17 820 -9 815 -3 809 c 0
 3 803 8 798 8 796 c 0
 8 794 9 792 10 791 c 0
 12 789 15 784 17 780 c 0
 20 775 22 768 22 764 c 0
 22 760 23 757 26 754 c 0
 29 752 29 750 28 743 c 0
 27 735 28 732 32 724 c 0
 35 719 39 713 40 712 c 0
 42 710 43 706 43 692 c 0
 43 676 43 673 48 664 c 0
 51 659 55 650 56 644 c 1
 58 638 60 630 62 626 c 1
 63 621 64 616 63 612 c 0
 62 607 63 605 67 601 c 0
 72 596 72 596 71 590 c 1
 69 584 69 583 72 579 c 1
 75 577 76 573 76 571 c 0
 76 567 78 565 82 563 c 0
 84 562 87 559 87 557 c 0
 87 556 88 553 89 551 c 1
 91 549 92 545 91 542 c 0
 90 538 91 533 93 529 c 1
 94 525 95 522 94 521 c 1
 94 521 94 519 96 517 c 1
 97 515 100 510 102 505 c 1
 103 500 105 495 105 492 c 0
 105 490 107 487 108 486 c 1
 109 484 111 477 111 469 c 0
 112 455 113 454 117 452 c 0
 120 451 123 448 124 446 c 1
 124 444 126 435 126 427 c 0
 127 415 128 412 131 409 c 0
 134 407 134 405 133 399 c 0
 132 392 133 389 139 378 c 0
 143.93 368.962 147 361 147 354 c 1
 148 349 151 340 153 335 c 1
 156 330 160 323 163 319 c 1
 167 315 169 309 169 307 c 0
 169 305 171 301 173 299 c 0
 176 296 177 295 176 283 c 0
 175.083 271.993 176 269 178 264 c 1
 181 261 181 258 181 254 c 1
 180 250 181 248 185 244 c 0
 189 239 189 238 189 226 c 0
 189 215 189 213 193 207 c 0
 195 203 198 198 198 196 c 0
 198 193 199 189 200 186 c 1
 202 184 203 179 203 175 c 0
 203 171 204 166 206 164 c 0
 208 161 210 158 210 156 c 0
 210 155 212 152 214 150 c 0
 217 148 219 145 219 143 c 0
 219 141 220 137 223 135 c 0
 226 132 227 131 225 125 c 0
 223 119 224 117 228 108 c 0
 230 103 233 96 233 94 c 0
 233 90 235 87 240 82 c 0
 245 76 247 74 247 69 c 0
 247 64 248 61 250 59 c 0
 252 57 254 54 254 51 c 0
 254 48 255 45 256 44 c 0
 257 43 259 38 260 34 c 1
 260 27 262 24 264 23 c 0
 267 22 268 19 268 14 c 0
 268 10 269 5 271 2 c 0
 273 0 276 -7 278 -12 c 0
 280 -17 282 -21 282 -21 c 1
 282 -22 278 -25 274 -30 c 0
 270 -34 265 -39 263 -40 c 0
 261 -41 256 -42 252 -43 c 1
 247 -43 241 -43 235 -41 c 0
 231 -39 226 -36 225 -35 c 1
 225 -33 224 -30 223 -27 c 0
 222 -25 219 -20 216 -16 c 0
 211 -10 210 -8 210 4 c 0
 209 16 208 18 204 22 c 1
 201 27 200 29 201 34 c 1
 201 39 201 42 198 44 c 1
 196 47 195 51 194 61 c 0
 194 71 193 77 190 82 c 0
 187 87 187 90 188 97 c 0
 189 102 188 106 187 106 c 0
 186 106 184 109 182 113 c 0
 180 118 177 122 176 122 c 1
 175 123 175 125 175 127 c 0
 175 130 173 135 170 140 c 0
 168 144 166 149 167 150 c 1
 167 150 166 156 163 161 c 1
 161 166 159 174 159 178 c 0
 159 184 158 186 151 193 c 0
 143 202 143 203 144 209 c 1
 144 214 144 219 141 227 c 0
 139 232 138 241 138 246 c 0
 138 252 137 257 135 261 c 1
 132 264 131 269 132 276 c 1
 132 281 132 288 133 290 c 1
 134 295 134 296 126 304 c 0
 120 309 117 314 117 317 c 0
 117 319 115 325 114 330 c 1
 112 334 109 342 107 347 c 0
 105 352 103 358 103 361 c 0
 103 363 102 366 101 366 c 1
 100 367 97 372 95 377 c 0
 92 383 90 391 90 400 c 0
 89 410 88 414 83 420 c 1
 80 425 77 432 76 441 c 1
 74 448 71 456 69 458 c 0
 67 461 66 464 66 466 c 0
 66 469 65 471 64 472 c 1
 62 473 62 477 62 480 c 0
 62 484 61 488 58 492 c 0
 56 496 53 500 53 502 c 1
 52 504 50 507 49 508 c 0
 48 509 46 513 46 516 c 0
 46 520 45 525 43 529 c 0
 40 533 39 538 38 544 c 1
 38 549 37 554 36 556 c 1
 35 557 34 565 34 573 c 0
 33 588 33 588 26 595 c 1
 23 599 19 605 17 609 c 1
 16 613 14 621 13 628 c 0
 12 635 10 644 8 648 c 0
 6 653 4 659 4 663 c 0
 4 668 3 674 0 679 c 0
 -3 684 -4 688 -4 691 c 1
 -3 694 -4 698 -6 703 c 1
 -8 706 -10 711 -10 712 c 0
 -10 713 -12 717 -16 720 c 1
 -20 724 -22 728 -23 732 c 1
 -23 747 l 1
 -22 754 -23 757 -29 770 c 0
 -33 778 -37 787 -38 790 c 0
 -38.333 791.667 -38.5557 793 -38.5557 794.186 c 0
 -38.5557 796.556 -37.667 798.333 -35 801 c 1
 -33 805 -31 810 -30 813 c 0
 -29 815 -28 819 -27 820 c 0
EndSplineSet
Validated: 33
EndChar

StartChar: uni005F
Encoding: 95 95 64
Width: 589
GlyphClass: 2
Flags: W
LayerCount: 2
Fore
SplineSet
516 -9 m 0
 522 -5 523 -5 539 -5 c 0
 552 -6 558 -7 561 -9 c 0
 564 -11 568 -12 572 -12 c 0
 578 -12 579 -13 580 -19 c 0
 581 -22 584 -27 586 -29 c 0
 588 -32 589 -35 589 -36 c 0
 589 -38 587 -41 583 -43 c 1
 580 -46 577 -49 577 -50 c 0
 577 -52 575 -54 572 -55 c 2
 569 -57 562 -58 555 -58 c 0
 546 -58 541 -59 538 -61 c 0
 535 -64 527 -64 480 -65 c 2
 423 -65 l 2
 422 -65 419 -65 416 -64 c 0
 411 -63 410 -64 405 -68 c 1
 403 -71 399 -74 397 -74 c 0
 395 -74 390 -72 386 -69 c 0
 380 -65 378 -64 364 -64 c 0
 355 -64 341 -65 332 -65 c 0
 323 -66 314 -65 312 -64 c 1
 308 -63 304 -64 298 -66 c 0
 290 -68 288 -68 284 -66 c 0
 280 -64 272 -64 247 -64 c 0
 229 -65 213 -65 212 -65 c 0
 210 -65 196 -65 180 -64 c 0
 164 -64 149 -63 148 -63 c 0
 146 -63 134 -64 121 -64 c 0
 109 -65 94 -65 88 -65 c 0
 82 -65 76 -66 74 -68 c 1
 72 -69 68 -71 65 -71 c 0
 60 -72 58 -72 55 -68 c 0
 52 -64 50 -64 36 -64 c 0
 24 -64 20 -63 16 -61 c 0
 13 -59 9 -56 7 -55 c 0
 5 -54 3 -51 2 -48 c 1
 2 -46 1 -42 0 -41 c 1
 -1 -39 1 -35 4 -30 c 0
 8 -25 12 -23 17 -21 c 0
 20 -20 24 -18 25 -16 c 1
 27 -14 30 -13 44 -13 c 0
 59 -13 61 -12 65 -9 c 1
 69 -5 70 -5 88 -6 c 0
 99 -7 108 -9 111 -10 c 1
 112 -11 117 -12 120 -12 c 0
 123 -12 129 -11 132 -9 c 0
 137 -6 140 -5 145 -6 c 0
 149 -7 156 -9 161 -12 c 0
 168 -16 170 -16 174 -15 c 1
 176 -14 188 -13 200 -13 c 0
 219 -13 224 -13 227 -11 c 0
 231 -8 237 -7 252 -7 c 0
 255.667 -6.66699 260.556 -6.55566 266.037 -6.55566 c 0
 277 -6.55566 290.333 -7 301 -7 c 0
 324 -8 332 -9 336 -12 c 1
 341 -14 345 -14 366 -13 c 0
 382 -12 389 -11 391 -10 c 1
 392 -8 397 -7 408 -7 c 0
 419 -7 424 -8 427 -10 c 0
 430 -13 435 -13 470 -13 c 0
 509 -13 509 -13 516 -9 c 0
EndSplineSet
Validated: 33
EndChar

StartChar: uni0061
Encoding: 97 97 66
Width: 469
GlyphClass: 2
Flags: W
LayerCount: 2
Fore
SplineSet
309 252 m 0
 305 258 305 258 272 258 c 0
 240 258 239 258 232 253 c 0
 225 249 223 249 209 250 c 0
 195.995 250.929 193 250 190 248 c 0
 187 246 182 243 178 241 c 0
 173 239 167 237 164 237 c 0
 161 237 156 236 154 235 c 0
 151 234 148 230 145 227 c 1
 143 223 138 218 135 216 c 0
 131 214 128 211 128 209 c 0
 128 207 126 204 125 202 c 0
 123 199 122 196 122 195 c 1
 123 194 121 190 119 187 c 0
 116 184 114 181 114 179 c 2
 114 169 l 2
 114 164 113 160 112 159 c 0
 111 158 111 152 111 147 c 1
 112 142 112 132 113 125 c 2
 113 118 115 109 117 103 c 1
 120 98 125 89 131 83 c 0
 136 77 142 70 145 67 c 0
 150 61 151 61 164 61 c 0
 176 61 178 61 182 57 c 0
 184.667 54.333 186.444 53.4443 189.111 53.4443 c 0
 190.444 53.4443 192 53.667 194 54 c 0
 198 55 206 56 211 56 c 1
 216 55 222 56 225 58 c 0
 227 59 234 61 239 61 c 1
 245 62 251 64 254 66 c 1
 257 67 260 69 260 68 c 1
 261 68 263 69 265 70 c 0
 267 71 269 73 269 75 c 0
 269 77 271 80 274 82 c 1
 277 83 282 87 284 90 c 0
 287 93 292 99 296 103 c 0
 302 109 304 112 303 115 c 1
 303 118 305 123 308 128 c 0
 312 134 313 139 313 147 c 0
 313 153 315 159 317 162 c 0
 319 165 320 172 321 182 c 0
 322 190 322 207 322 220 c 0
 322 235 321 243 319 245 c 0
 318 246 316 247 315 247 c 0
 314 247 311 250 309 252 c 0
222 506 m 1
 223.333 506 225.556 506.444 227.778 506.444 c 0
 228.89 506.444 230.001 506.333 231.001 506 c 0
 234.001 505 249.001 505 264.001 505 c 0
 286.001 504 294.001 504 298.001 501 c 1
 301.001 500 305.001 498 308.001 498 c 0
 310.001 498 314.001 497 316.001 495 c 0
 319.001 493 322.001 491 324.001 491 c 0
 326.001 491 330.001 489 333.001 485 c 0
 335.001 481 339.001 479 343.001 478 c 1
 345.001 477 349.001 475 351.001 473 c 1
 352.001 470 356.001 466 359.001 463 c 0
 363.001 460 365.001 456 365.001 455 c 0
 365.001 454 368.001 450 372.001 446 c 0
 376.001 442 379.001 437 379.001 435 c 0
 379.001 433 381.001 429 384.001 425 c 0
 386.001 422 388.001 418 388.001 415 c 0
 388.001 413 390.001 408 391.001 405 c 1
 393.668 401.667 394.557 398.778 394.557 386.556 c 0
 394.557 380.444 394.334 372 394.001 360 c 0
 394.001 325 394.001 320 397.001 316 c 0
 399.001 313 400.001 310 400.001 308 c 0
 400.001 306 399.001 302 397.001 300 c 1
 395.001 296 394.001 292 395.001 276 c 2
 395.001 251 l 2
 395.001 247 394.788 215.005 394.001 178 c 0
 393.708 164.234 393.587 152.613 393.587 142.886 c 0
 393.587 119.4 394.294 106.95 395.001 102 c 0
 396.001 97 398.001 92 399.001 89 c 0
 400.001 87 401.001 75 401.001 64 c 0
 402.001 52 402.001 41 403.001 39 c 1
 403.001 37 403.001 31 402.001 25 c 2
 402.001 15 402.001 13 398.001 12 c 1
 396.001 11 387.001 9 379.001 7 c 0
 367.001 4 360.001 3 351.001 4 c 0
 341.001 5 337.001 6 334.001 10 c 0
 332.001 12 330.001 17 330.001 24 c 1
 329.001 29 328.001 36 326.001 39 c 1
 325.001 42 322.001 44 319.001 45 c 1
 316.001 45 309.001 46 304.001 46 c 0
 298.001 46 293.001 44 288.001 41 c 0
 284.001 39 280.001 35 279.001 33 c 1
 278.001 32 273.001 28 269.001 25 c 0
 265.001 23 261.001 21 260.001 21 c 0
 259.001 21 256.001 18 254.001 15 c 0
 251.001 12 247.001 10 245.001 10 c 0
 244.001 10 242.001 9 241.001 8 c 1
 241.001 7 238.001 5 235.001 4 c 1
 232.001 2 227.001 0 225.001 -2 c 0
 222.418 -3.9375 220.669 -5.04102 217.062 -5.04102 c 0
 215.082 -5.04102 212.544 -4.70898 209.001 -4 c 0
 204.051 -3.29297 195.601 -2.58594 185.772 -2.58594 c 0
 181.701 -2.58594 177.394 -2.70703 173 -3 c 0
 165.667 -3.33301 160.556 -3.55566 156.741 -3.55566 c 0
 149.111 -3.55566 146.667 -2.66699 142 0 c 0
 139 2 131 3 126 4 c 1
 119 4 115 5 112 8 c 0
 110 10 104 13 100 15 c 0
 96 17 92 21 90 23 c 1
 89 25 84 30 80 33 c 0
 76 36 71 41 70 44 c 0
 69 47 64 53 59 58 c 0
 55 63 49 71 46 76 c 1
 44 81 42 86 42 87 c 0
 42 89 40 93 38 97 c 0
 34 104 34 105 34 135 c 0
 34 157 35 167 36 169 c 1
 37 170 39 175 40 180 c 1
 40 185 42 191 44 194 c 0
 46 197 47 200 47 202 c 0
 47 203 49 206 51 208 c 0
 54 211 55 214 55 216 c 1
 54 219 55 221 58 222 c 1
 61 224 64 227 65 230 c 1
 76 246 l 2
 82 255 86 257 99 264 c 0
 108 268 117 272 120 272 c 0
 124 272 128 274 131 276 c 0
 134 279 138 281 141 281 c 0
 143 281 146 281 146 282 c 1
 147 283 151 285 155 286 c 0
 159 287 164 289 165 291 c 1
 167 292 172 294 180 294 c 0
 187 294 193 295 196 297 c 0
 198 299 204 300 211 300 c 0
 218 300 223 301 228 304 c 0
 235 307 239 307 272 308 c 0
 309 308 309 308 315 313 c 0
 322 319 322 319 322 354 c 0
 322 387 322 389 318 397 c 0
 316 402 314 409 313 412 c 1
 313 415 311 418 310 420 c 1
 308 421 307 424 307 426 c 0
 307 429 308 432 309 433 c 1
 310 435 310 437 308 439 c 0
 306 441 304 442 303 442 c 0
 301 442 298 445 295 447 c 0
 292 450 288 453 287 453 c 0
 286 453 282 455 277 457 c 0
 272 459 266 463 265 464 c 0
 263 467 259 468 252 468 c 1
 245 469 240 468 235 465 c 1
 230 463 224 461 209 461 c 0
 199 460 190 460 189 460 c 0
 188 460 186 458 183 455 c 0
 179 451 177 451 171 452 c 0
 165 453 164 453 154 443 c 0
 147 435 144 430 142 423 c 0
 140 418 137 411 136 409 c 0
 134 406 130 401 127 398 c 0
 124 395 119 390 115 388 c 0
 110 385 107 384 99 384 c 1
 93 385 86 384 84 383 c 1
 81 383 77 383 74 384 c 0
 71 385 67 388 66 390 c 2
 64 392 62 397 62 403 c 0
 61 411 62 414 67 422 c 0
 70 427 72 432 71 433 c 1
 71 436 l 1
 72 437 75 439 78 441 c 1
 81 442 83 445 83 447 c 1
 84 450 85 452 86 453 c 0
 87 454 91 454 94 454 c 0
 97 454 105 456 111 458 c 0
 117 460 123 463 125 465 c 0
 126 466 128 469 129 472 c 0
 130 474 132 478 134 480 c 0
 136 483 139 484 140 484 c 0
 142 484 146 486 149 487 c 0
 151 488 158 491 163 494 c 1
 171 497 175 498 183 498 c 1
 190 497 195 498 200 500 c 1
 203 502 209 504 212 504 c 0
 216 504 220 505 222 506 c 1
EndSplineSet
Validated: 33
EndChar

StartChar: uni0062
Encoding: 98 98 67
Width: 575
GlyphClass: 2
Flags: W
LayerCount: 2
Fore
SplineSet
308 450 m 1
 306 452 304 453 303 453 c 2
 303 453 300 453 298 452 c 0
 296 451 289 450 284 451 c 0
 276 452 271 451 263 448 c 0
 257 446 250 445 248 445 c 0
 245 445 241 443 239 442 c 0
 236 440 232 439 228 439 c 0
 223 439 220 439 216 434 c 0
 214 431 210 429 209 429 c 0
 208 429 203 425 198 421 c 0
 193 417 187 412 186 411 c 2
 184 410 180 405 176 400 c 0
 173 395 170 390 170 389 c 1
 170 389 168 383 165 377 c 2
 163 371 159 363 157 359 c 0
 155 355 154 350 155 349 c 1
 155 348 154 344 152 342 c 0
 148 337 148 335 148 319 c 0
 148 305 147 300 144 296 c 0
 142 292 141 286 140 253 c 2
 140 212 l 2
 140 210 140 202 141 194 c 0
 141 187 143 178 144 174 c 1
 146 171 147 165 148 160 c 0
 148 156 150 150 152 147 c 0
 154 144 156 140 156 138 c 0
 156 136 157 132 159 128 c 0
 161 124 162 119 162 115 c 1
 161 111 162 106 163 104 c 0
 164 102 166 100 167 100 c 0
 168 100 172 98 176 94 c 2
 180 91 188 83 195 78 c 0
 202 73 208 68 210 66 c 1
 211 64 215 62 219 61 c 1
 223 61 227 58 230 56 c 1
 232 53 236 50 239 48 c 0
 241 47 248 46 254 46 c 0
 259 46 266 45 269 43 c 0
 273 41 280 41 297 41 c 0
 314 41 320 41 322 43 c 1
 324 44 328 46 332 47 c 1
 336 47 341 50 344 52 c 0
 348 54 350 55 355 54 c 0
 360 53 362 54 365 57 c 0
 368 60 370 62 371 62 c 0
 372 62 376 65 381 68 c 0
 385 71 390 74 392 74 c 1
 394 75 398 79 401 85 c 0
 404 90 408 97 409 100 c 1
 411 103 414 108 417 111 c 0
 419 114 422 120 424 122 c 1
 425 125 427 130 427 134 c 1
 426 137 428 142 430 145 c 0
 432 149 432.91 155.008 434 167 c 0
 435 178 437 186 438 189 c 1
 441 194 441 201 441 246 c 0
 441 295 441 299 437 309 c 0
 435 314 433 321 433 323 c 0
 433 325 432 333 430 341 c 0
 428 348 424 360 421 368 c 1
 417 375 414 383 413 386 c 0
 412 389 410 393 410 396 c 1
 409 399 406 402 402 404 c 0
 398 406 394 409 393 411 c 1
 391 413 387 416 382 418 c 1
 377 422 374 424 373 429 c 0
 372 432 369 436 367 437 c 1
 365 439 360 439 346 438 c 0
 329 437 327 438 323 441 c 0
 320 443 316 445 314 445 c 1
 312 446 309 448 308 450 c 1
97 718 m 0
 101 720 105 722 107 722 c 0
 108 722 111 720 113 718 c 1
 114 715 117 714 118 714 c 1
 120 715 123 714 126 713 c 1
 129 711 131 709 131 708 c 0
 131 707 133 704 136 701 c 0
 141 696 141 696 141 662 c 0
 141 630 141 628 145 621 c 0
 149 613 149 613 145 605 c 0
 142 598 141 594 141 576 c 0
 140 556 140 555 145 546 c 0
 149 538 149 538 145 526 c 0
 141.545 518.399 140.478 514.618 140.478 506.079 c 0
 140.478 502.26 140.691 497.489 141 491 c 0
 141 472 142 467 144 463 c 0
 146 460 149 456 152 454 c 0
 155 452 159 450 162 450 c 0
 166 450 173 452 179 454 c 0
 185 456 196 461 203 466 c 0
 210 471 216 475 217 475 c 0
 219 475 220 476 221 477 c 0
 223 479 229 482 236 485 c 0
 242 487 251 489 254 490 c 1
 257 490 264 493 269 495 c 0
 274 497 279 499 280 499 c 0
 282 499 286 500 290 502 c 1
 294 503 302 504 308 504 c 1
 314 503 321 504 325 505 c 0
 330 506 332 506 341 502 c 0
 347 499 354 498 359 498 c 0
 362 498 370 497 375 497 c 1
 380 496 385 494 386 493 c 1
 387 491 389 490 391 490 c 0
 393 490 397 489 400 486 c 1
 404 484 410 481 415 479 c 1
 420 478 428 474 433 470 c 0
 438 466 443 461 444 458 c 0
 445 455 448 453 451 453 c 1
 455 452 461 447 469 439 c 0
 475 433 481 425 481 423 c 1
 482 420 486 416 490 413 c 0
 497 408 498 406 499 400 c 0
 500 394 502 391 504 389 c 1
 506 388 509 385 510 382 c 0
 511 380 512 373 512 367 c 0
 512 359 513 354 517 348 c 1
 519 343 521 336 521 332 c 0
 521 326 522 323 524 321 c 0
 526.667 319 527.556 317.444 527.556 299.148 c 0
 527.556 290 527.328 276.667 527 257 c 0
 525.983 196 526 196 521 187 c 0
 517 179 517 177 519 170 c 0
 520 166 520 159 519 154 c 2
 519 149 517 142 515 137 c 0
 514 133 511 127 509 123 c 0
 507 120 505 115 505 114 c 0
 505 113 503 109 499 106 c 1
 496 102 493 97 492 94 c 0
 491 91 489 86 486 81 c 0
 484 77 480 73 478 72 c 0
 476 71 474 69 474 68 c 0
 474 67 468 60 461 52 c 0
 453 45 446 39 444 39 c 0
 442 39 438 37 434 34 c 0
 431 31 426 28 425 28 c 0
 424 28 420 26 416 22 c 1
 412 19 408 16 407 16 c 0
 405 16 401 14 397 11 c 0
 393 8 386 5 382 5 c 1
 378 4 371 2 367 0 c 0
 360 -3 354 -3 327 -4 c 0
 310 -4 293 -5 291 -6 c 0
 289.17 -6.73242 287.876 -7.19629 286.726 -7.19629 c 0
 284.732 -7.19629 283.17 -5.80371 280 -2 c 0
 276 2 273 4 265 5 c 0
 260 5 253 7 250 8 c 0
 246 10 241 11 239 11 c 0
 235 11 232 13 228 17 c 1
 224 20 218 24 213 26 c 0
 209 28 204 30 204 32 c 1
 203 33 202 35 201 36 c 0
 200 37 197 37 194 37 c 0
 190 37 187 39 183 44 c 0
 177 50 176 50 164 51 c 0
 151 52 151 52 148 45 c 0
 146 41 144 35 143 30 c 0
 142 26 139 20 135 16 c 2
 132 12 127 7 125 6 c 0
 123 5 117 4 111 4 c 0
 105 4 97 4 93 5 c 0
 88 6 82 8 79 10 c 0
 76 13 73 17 72 19 c 0
 70 22 69 44 69 104 c 0
 68 149 68 188 68 192 c 2
 68 238 l 1
 68 284 l 2
 68 287 68 313 69 343 c 0
 69 372 70 405 70 416 c 0
 70 427 69 438 68 440 c 0
 67.5 441.5 67.25 443.25 67.25 445 c 0
 67.25 446.75 67.5 448.5 68 450 c 0
 69 453 69 485 69 522 c 0
 68 558 68 590 68 593 c 0
 68 596 69 608 69 620 c 0
 69 632 68 648 68 656 c 0
 68 663 68 675 69 683 c 0
 69 690 70 700 72 703 c 2
 73 706 75 710 76 711 c 1
 76 712 80 713 83 713 c 0
 87 713 93 715 97 718 c 0
EndSplineSet
Validated: 33
EndChar

StartChar: uni0064
Encoding: 100 100 69
Width: 582
GlyphClass: 2
Flags: W
LayerCount: 2
Fore
SplineSet
312 452 m 0
 309 454 301.999 455 287.999 455 c 0
 282.499 455.5 276.499 455.75 271.249 455.75 c 0
 265.999 455.75 261.499 455.5 258.999 455 c 0
 252.999 454 246.999 453 244.999 451 c 0
 241.999 448 239.999 448 234.999 448 c 1
 229.999 449 228.999 449 225.999 445 c 0
 222.999 442 218.999 439 213.999 438 c 0
 209.999 437 201.999 434 196.999 431 c 2
 190.999 429 182.999 424 178.999 420 c 1
 175.999 416 171.999 411 171.999 409 c 1
 170.999 407 167.999 401 163.999 397 c 0
 159.999 393 156.999 388 156.999 386 c 0
 156.999 385 154.999 381 152.999 377 c 1
 149.999 374 147.999 369 147.999 366 c 0
 147.999 363 146.999 359 144.999 357 c 0
 142.999 355 140.999 351 139.999 344 c 1
 139.999 338 137.999 331 136.999 327 c 1
 134.999 324 133.999 317 134.999 309 c 0
 134.999 303 134.999 286 133.999 272 c 0
 133.999 252 134.999 244 136.999 235 c 0
 138.999 227 138.999 223 137.999 220 c 0
 136.999 218 135.999 211 135.999 204 c 0
 135.999 197 135.999 190 137.999 188 c 1
 138.999 185 139.999 174 140.999 161 c 0
 141.999 141 141.999 137 144.999 134 c 0
 146.999 132 148.999 128 148.999 125 c 0
 148.999 122 149.999 119 149.999 118 c 0
 149.999 117 152.999 112 157.999 108 c 0
 161.999 104 166.999 97 168.999 92 c 0
 170.999 86 172.999 83 178.999 79 c 0
 182.999 77 187.999 73 188.999 71 c 0
 189.999 69 196.999 63 203.999 59 c 0
 211.999 54 219.999 51 222.999 51 c 0
 224.999 51 229.999 49 231.999 47 c 1
 233.999 46 240.999 44 246.999 43 c 0
 252.999 42 260.999 40 264.999 38 c 0
 268.169 36.0977 270.937 35.4014 274.322 35.4014 c 0
 276.276 35.4014 278.437 35.6338 280.999 36 c 0
 284.999 36 291.999 38 293.999 40 c 1
 297.999 41 303.999 42 310.999 42 c 0
 317.999 42 328.999 42 335.999 43 c 0
 344.999 44 348.999 45 350.999 47 c 0
 352.999 49 355.999 51 357.999 51 c 0
 360.999 51 364.999 54 370.999 60 c 1
 374.999 66 379.999 69 380.999 69 c 1
 381.999 68 385.999 69 388.999 71 c 2
 391.999 72 396.999 77 399.999 81 c 0
 402.999 85 407.999 92 409.999 97 c 0
 411.999 101 413.999 105 413.999 106 c 0
 413.999 107 414.999 110 416.999 112 c 0
 418.999 115 419.999 118 419.999 120 c 1
 420.999 122 421.999 125 423.999 126 c 0
 425.999 127 426.999 131 427.999 136 c 0
 428.999 141 429.999 146 430.999 147 c 1
 432.999 148 433.999 155 434.999 162 c 0
 435.999 169 436.999 179 435.999 184 c 1
 435.999 204 l 2
 435.999 210 435.999 222 436.999 232 c 0
 436.999 242 435.999 251 434.999 257 c 0
 432.999 264 432.999 266 435.999 274 c 0
 437.171 278.101 437.656 280.828 437.656 283.39 c 0
 437.656 285.201 437.414 286.929 437 289 c 0
 436 293 435 298 435 301 c 0
 435 304 433 307 432 308 c 0
 430 310 429 314 429 317 c 2
 429 331 l 2
 429 336 428 339 426 343 c 1
 424 345 422 350 422 353 c 0
 422 356 420 361 418 365 c 1
 415 368 413 372 413 373 c 0
 413 375 411 379 407 382 c 1
 404 386 400 391 399 395 c 0
 398 398 395 401 392 403 c 0
 390 404 385 409 382 412 c 0
 379 416 374 420 372 420 c 1
 369 421 363 425 358 430 c 0
 353 435 348 439 346 439 c 0
 344 439 340 440 337 442 c 0
 334 444 328 447 324 448 c 0
 319 449 314 451 312 452 c 0
490.999 717 m 1
 491.999 717 493.999 717.999 494.999 717.999 c 0
 495.999 717.999 499.999 715.999 502.999 711.999 c 0
 505.999 708.999 507.999 704.999 507.999 700.999 c 2
 507.999 681.999 l 2
 507.999 672.999 509.999 663.999 511.999 657.999 c 0
 513.463 652.875 514.391 647.751 514.391 639.881 c 0
 514.391 637 514.267 633.751 513.999 630 c 0
 513.999 614 513.999 610 510.999 606 c 0
 508.332 603.333 507.443 601.11 507.443 583.333 c 0
 507.443 574.444 507.666 561.667 507.999 543 c 2
 507.999 482 l 1
 507.999 432 l 2
 507.999 391 507.999 385 510.999 381 c 0
 511.999 379 513.999 375 513.999 372 c 0
 513.999 370 511.999 367 510.999 365 c 1
 508.749 362.75 507.624 357.688 507.624 316.484 c 0
 507.624 302.75 507.749 285 507.999 262 c 2
 507.999 156 l 1
 507.999 99 l 2
 507.666 81.665 507.443 70.1104 507.443 62.1846 c 0
 507.443 46.333 508.332 45 510.999 41 c 0
 513.666 37 514.555 34.7783 514.555 31.0742 c 0
 514.555 29.2227 514.332 27 513.999 24 c 0
 512.999 16 511.999 13 508.999 10 c 0
 505.999 8 500.999 6 496.999 5 c 0
 492.999 4 488.999 2 487.999 1 c 1
 485.999 0 479.999 -1 473.999 -1 c 0
 466.999 -1 461.999 -1 456.999 2 c 2
 452.999 3 447.999 8 443.999 12 c 0
 439.999 16 437.999 21 435.999 28 c 0
 434.999 34 432.999 39 429.999 41 c 0
 426.999 44 421.999 46 417.999 48 c 0
 411.999 50 410.999 49 400.999 45 c 1
 395.999 42 389.999 38 387.999 37 c 1
 386.999 35 383.999 34 380.999 34 c 0
 378.999 34 376.999 33 375.999 33 c 0
 374.999 33 373.999 31 372.999 29 c 0
 371.999 26 369.999 24 367.999 24 c 0
 365.999 24 360.999 22 357.999 18 c 1
 352.999 13 349.999 12 344.999 12 c 0
 341.999 12 337.999 10 334.999 8 c 0
 331.999 5 324.999 1 319.999 -2 c 0
 311.999 -6 307.999 -7 299.999 -7 c 0
 291.999 -7 286.999 -8 280.999 -12 c 0
 276.999 -14 271.999 -16 270.999 -16 c 0
 268.999 -16 265.999 -14 262.999 -12 c 0
 257.999 -8 255.999 -8 233.999 -8 c 0
 212.999 -9 209.999 -8 204.999 -5 c 0
 201.999 -3 197.999 -2 196.999 -3 c 1
 194.999 -3 192.999 -2 189.999 1 c 0
 187.999 3 183.999 5 179.999 6 c 0
 176.999 7 169.999 8 165.999 10 c 2
 160.999 11 156.999 14 155.999 15 c 1
 154.999 17 150.999 19 146.999 20 c 0
 142.999 21 138.999 23 134.999 28 c 0
 131.999 31 128.999 36 127.999 39 c 0
 126.999 41 122.999 48 117.999 53 c 0
 112.999 59 106.999 63 104.999 63 c 1
 100.999 64 98.999 67 92.999 78 c 0
 88.999 85 81.999 95 77.999 100 c 0
 72.999 105 68.999 110 68.999 111 c 0
 68.999 112 67.999 115 65.999 117 c 0
 62.999 120 61.999 125 61.999 130 c 0
 61.999 135 60.999 141 59.999 143 c 0
 58.999 145 56.999 151 56.999 158 c 1
 55.999 165 53.999 170 51.999 172 c 0
 48.999 176 47.999 179 47.999 190 c 0
 47.999 197 48.999 222 48.999 245 c 0
 49.999 283 49.999 288 53.999 295 c 0
 56.999 302 56.999 304 55.999 317 c 0
 53.999 327 53.999 334 55.999 343 c 0
 57.999 355 57.999 356 63.999 358 c 1
 66.999 360 69.999 362 69.999 365 c 1
 70.999 368 72.999 371 74.999 374 c 0
 76.999 377 77.999 381 77.999 387 c 0
 77.999 393 78.999 397 81.999 400 c 1
 82.999 402 84.999 406 84.999 408 c 0
 84.999 410 87.999 415 91.999 418 c 1
 95.999 422 98.999 426 98.999 427 c 0
 98.999 428 100.999 433 103.999 437 c 0
 106.999 442 109.999 446 109.999 448 c 0
 109.999 450 112.999 452 116.999 455 c 0
 120.999 457 125.999 458 128.999 458 c 0
 130.999 458 132.999 460 134.999 463 c 1
 135.999 466 140.999 471 144.999 473 c 0
 148.999 475 157.999 480 163.999 483 c 0
 169.999 486 174.999 489 175.999 490 c 1
 175.999 491 179.999 492 184.999 492 c 0
 191.999 492 193.999 492 196.999 496 c 0
 199.999 500 200.999 500 217.999 499 c 0
 226.999 499 236.999 499 238.999 498 c 1
 241.999 498 245.999 500 247.999 502 c 0
 250.999 504 257.999 506 263.999 507 c 0
 270.999 508 276.999 509 278.999 509 c 0
 279.999 509 283.999 507 287.999 504 c 1
 292.999 499 294.999 499 304.999 499 c 0
 314.999 499 317.999 498 322.999 494 c 0
 325.999 492 330.999 490 332.999 490 c 0
 335.999 490 339.999 489 343.999 487 c 0
 346.999 486 350.999 484 351.999 482 c 1
 352.999 481 355.999 479 358.999 479 c 0
 361.999 479 364.999 478 366.999 475 c 0
 367.999 473 369.999 470 369.999 469 c 0
 369.999 467 370.999 464 372.999 463 c 0
 374.999 462 376.999 458 378.999 454 c 0
 380.999 451 387.999 442 393.999 435 c 0
 405.999 423 405.999 423 417.999 423 c 0
 425.999 422 431.999 423 432.999 424 c 0
 433.999 425 434.999 430 435.999 435 c 1
 435.999 440 435.999 446 434.999 449 c 0
 433.999 452 433.999 456 434.999 458 c 0
 435.999 460 435.999 469 434.999 479 c 0
 433.999 489 433.999 497 434.999 498 c 1
 434.999 499 435.999 512 434.999 526 c 0
 434.999 548 433.999 555 430.999 563 c 0
 427.999 570 426.999 577 426.999 584 c 1
 427.999 590 428.999 600 430.999 608 c 0
 431.999 615 433.999 624 433.999 627 c 0
 434.999 632 433.999 636 429.999 642 c 0
 425.999 650 426.028 651.998 426.999 668 c 0
 428.03 684.998 427.999 686 432.999 689 c 0
 435.999 691 436.999 692 436.999 698 c 0
 436.999 704 437.999 705 445.999 711 c 0
 453.999 716 454.999 716 471.999 716 c 0
 480.999 715 489.999 716 490.999 717 c 1
EndSplineSet
Validated: 33
EndChar

StartChar: uni0066
Encoding: 102 102 71
Width: 380
GlyphClass: 2
Flags: W
LayerCount: 2
Fore
SplineSet
274 726 m 1
 275 727 283 726.999 291 726.999 c 0
 299 725.999 310 724.999 315 723.999 c 0
 319 722.999 325 720.999 328 719.999 c 1
 331 717.999 334 714.999 335 712.999 c 0
 336 710.999 338 707.999 340 705.999 c 0
 342 703.999 344 700.999 344 699.999 c 0
 344 697.999 341 694.999 338 690.999 c 1
 334 687.999 330 684.999 328 684.999 c 0
 327 684.999 323 683.999 320 681.999 c 0
 314 677.999 311 677.999 293 677.999 c 0
 277 677.999 272 677.999 268 674.999 c 0
 265 672.999 260 670.999 256 670.999 c 1
 253 669.999 248 667.999 245 664.999 c 0
 242 662.999 239 660.999 238 660.999 c 0
 236 660.999 234 657.999 232 654.999 c 0
 230 651.999 226 645.999 223 641.999 c 0
 220 638.999 218 633.999 218 631.999 c 0
 218 629.999 215 622.999 213 617.999 c 0
 209.938 611.261 208.751 608.65 208.751 602.582 c 0
 208.751 598.744 209.226 593.522 210 584.999 c 0
 212 568.999 212 560.999 211 558.999 c 0
 210 556.999 209 549.999 209 542.999 c 0
 209 532.999 210 526.999 212 521.999 c 0
 214 516.999 217 512.999 219 510.999 c 0
 221 508.999 228 505.999 235 502.999 c 0
 246 497.999 250 496.999 267 496.999 c 0
 281 496.999 287 495.999 295 492.999 c 0
 301 489.999 308 488.999 311 488.999 c 0
 314 488.999 318 489.999 320 491.999 c 0
 324 495.999 324 495.999 332 491.999 c 1
 336 490.999 341 487.999 341 486.999 c 2
 342 485.999 343 477.999 343 470.999 c 0
 343 456.999 343 456.999 337 450.999 c 1
 323 440.999 l 2
 320 438.999 315 436.999 312 437.999 c 1
 284 437.999 l 2
 269 438.999 259 439.999 257 440.999 c 0
 253 442.999 250 442.999 242 440.999 c 0
 236 439.999 229 436.999 226 434.999 c 0
 223 432.999 219 428.999 218 426.999 c 0
 216 422.999 216 419.999 217 414.999 c 0
 218 410.999 219 406.999 218 404.999 c 2
 218 402.999 215 397.999 213 393.999 c 0
 210 387.999 210 382.999 210 371.999 c 2
 210 351.999 l 1
 210 331.999 l 2
 211 319.999 211 313.999 214 307.999 c 0
 216 303.999 218 297.999 218 294.999 c 0
 218 291.999 215 285.999 213 281.999 c 0
 210 276.999 209 272.999 210 269.999 c 1
 210 267.999 211 261.999 211 256.999 c 1
 210 250.999 211 245.999 214 240.999 c 0
 215.902 237.195 216.599 234.195 216.599 223.081 c 0
 216.599 216.664 216.366 207.542 216 193.999 c 0
 216 171.999 216 152.999 215 151.999 c 0
 214 150.999 215 146.999 217 142.999 c 1
 218 138.999 219 135.999 218 132.999 c 0
 217 130.999 217 122.999 217 114.999 c 0
 217 107.999 218 98.999 218 96.999 c 0
 218 94.999 217 77.999 217 59.999 c 0
 216 41.999 215 25.999 214 21.999 c 0
 213 17.999 210 13.999 209 11.999 c 0
 208 9.99902 205 8.99902 203 8.99902 c 0
 202 8.99902 198 6.99902 195 4.99902 c 1
 193 2.33203 191.444 1.44336 189.74 1.44336 c 0
 188.889 1.44336 188 1.66602 187 1.99902 c 2
 185 1.99902 180 2.99902 176 2.99902 c 0
 171 2.99902 167 3.99902 162 8.99902 c 1
 158 11.999 153 16.999 151 19.999 c 0
 148 22.999 147 27.999 146 36.999 c 0
 146 42.999 145 57.999 145 68.999 c 0
 144.707 71.9277 144.586 75.3711 144.586 78.9775 c 0
 144.586 87.6846 145.293 97.3418 146 102.999 c 0
 147 114.999 147 119.999 145 122.999 c 0
 143 126.999 143 129.999 144 136.999 c 0
 146 144.999 146 146.999 142 154.999 c 0
 138 162.999 138 165.999 138 190.999 c 0
 138 216.999 138 217.999 142 221.999 c 0
 145 224.999 145 227.999 145 238.999 c 0
 145 248.999 144 254.999 142 259.999 c 0
 140 263.999 138 270.999 138 274.999 c 0
 138 278.999 140 282.999 141 284.999 c 1
 143 286.999 144 293.999 146 305.999 c 0
 147 323.999 147 323.999 142 328.999 c 0
 138.545 332.454 137.478 333.521 137.478 345.398 c 0
 137.478 350.71 137.691 358.184 138 368.999 c 0
 138 402.999 138 404.999 135 408.999 c 0
 133 411.999 131 415.999 131 419.999 c 0
 131 423.999 130 426.999 127 429.999 c 0
 124 432.999 120 435.999 117 436.999 c 0
 113 438.999 106 438.999 81 438.999 c 0
 72.7158 438.585 65.6328 438.343 59.8926 438.343 c 0
 51.7744 438.343 46.3428 438.828 44 440 c 1
 40 441 37 444 33 451 c 0
 30 457 27 465 26 469 c 0
 25.6338 471.196 25.4014 472.99 25.4014 474.628 c 0
 25.4014 477.464 26.0977 479.83 28 483 c 0
 30 487 34 492 37 493 c 1
 40 495 47 497 53 497 c 0
 59 497 67 497 71 498 c 1
 75 498 84 497 92 496 c 0
 106 495 107 495 116 501 c 0
 122 504 128 508 129 510 c 0
 131 513 134 516 135 519 c 2
 138 523 138 524 137 532 c 1
 135 539 135 544 137 553 c 0
 138 559 138 567 138 570 c 1
 137 574 138 581 139 587 c 0
 140 595 140 602 138 609 c 1
 137 619 137 621 139 624 c 0
 140 626 144 635 146 644 c 0
 149 653 151 662 151 664 c 0
 151 667 156 674 169 686 c 0
 180 697 189 705 192 706 c 1
 195 706 200 709 203 711 c 0
 206.75 713.25 208.812 714.375 220.156 714.375 c 0
 223.938 714.375 228.75 714.25 235 714 c 0
 262 714 262 714 266 719 c 0
 269 722 272 725 274 726 c 1
EndSplineSet
Validated: 33
EndChar

StartChar: uni0068
Encoding: 104 104 73
Width: 607
GlyphClass: 2
Flags: W
LayerCount: 2
Fore
SplineSet
136 729 m 0
 140 731 145 732 148 732 c 0
 152 732 156 730 161 726 c 0
 166 722 170 717 171 713 c 0
 172 709 173 684 174 657 c 0
 175 630 175 601 175 592 c 2
 175 561 l 2
 175 549 175 546 171 541 c 0
 168 538 166 532 166 529 c 0
 166 526 168 521 170 518 c 0
 172 514 173 508 174 503 c 0
 174 499 174 493 175 489 c 0
 176 486 179 480 181 476 c 0
 184 472 188 468 192 467 c 0
 196 466 199 466 202 467 c 0
 204 468 207 469 208 470 c 1
 208 471 211 472 214 472 c 0
 217 472 222 474 225 475 c 1
 228 477 233 480 236 483 c 0
 240 487 241 488 244 486 c 0
 246 485 250 486 257 489 c 0
 263 491 270 494 273 494 c 1
 276 495 282 498 287 501 c 0
 292 505 297 507 298 507 c 0
 300 507 304 505 307 503 c 0
 310 501 315 499 318 499 c 0
 321 499 326 500 329 502 c 0
 332 504 339 506 345 507 c 1
 351 507 357 508 359 508 c 1
 361 507 365 507 369 507 c 2
 373 506 386 506 398 506 c 0
 420 506 420 506 432 493 c 0
 444 482 446 480 458 476 c 0
 464 474 471 471 472 469 c 1
 473 468 476 465 477 462 c 2
 479 459 484 450 488 442 c 0
 493 434 497 424 498 420 c 1
 498 417 500 411 502 408 c 0
 504 405 505 402 504 400 c 1
 504 398 505 394 507 391 c 0
 511 385 511 383 511 320 c 0
 512 256 512 256 516 252 c 0
 518.469 250.354 520.261 248.709 520.261 247.62 c 0
 520.261 247.601 519.858 247.611 518 164 c 0
 518 120 518 75 517 66 c 0
 517 56 516 45 514 41 c 1
 513 37 512 21 511 17 c 0
 510 13 509 9 508 8 c 1
 508 7 504 6 501 5 c 0
 497 4 490 4 484 3 c 2
 479 3 474 2 473 2 c 2
 461 2 l 2
 453 2 450 3 445 7 c 0
 440 12 440 22 439 82 c 2
 439 154 l 1
 439 245 l 2
 439 287 438 325 438 328 c 1
 437 332 436 335 435 337 c 1
 434 338 433 346 433 357 c 0
 434 373 433 375 430 378 c 0
 428 380 424 388 420 395 c 0
 416 402 412 411 409 414 c 0
 407 417 405 420 405 421 c 0
 405 422 402 427 397 432 c 0
 393 437 387 441 385 442 c 1
 383 442 380 444 377 446 c 0
 374 449 371 449 356 449 c 0
 342 449 338 449 336 452 c 1
 334 453 331 455 329 455 c 0
 327 455 324 453 320 452 c 2
 316 450 310 449 293 449 c 0
 273 449 270 448 265 445 c 1
 262 442 259 441 258 441 c 0
 257 441 254 438 251 435 c 0
 248 431 243 429 237 428 c 0
 232 427 227 425 224 422 c 0
 221 419 217 416 215 416 c 1
 214 415 210 410 207 404 c 0
 204 397 199 388 196 384 c 0
 193 379 191 374 191 372 c 0
 191 371 189 368 186 365 c 0
 182 360 182 359 181 344 c 0
 181 336 180 324 178 319 c 0
 176 313 174 301 174 293 c 2
 174 273 l 1
 173 271 174 265 174 261 c 0
 174 255 172 249 170 244 c 0
 168 238 167 234 168 227 c 2
 168 221 170 214 172 211 c 0
 173.464 208.072 174.392 202.465 174.392 168.678 c 0
 174.392 156.311 174.268 140.168 174 119 c 0
 174 41 174 32 171 28 c 1
 170 25 168 22 168 21 c 0
 168 19 164 14 160 10 c 0
 154 5 148 1 143 0 c 0
 140 -1 137.75 -1.5 135.625 -1.5 c 0
 133.5 -1.5 131.5 -1 129 0 c 0
 125 1 120 2 117 3 c 1
 114 3 112 5 110 9 c 0
 109 12 107 15 105 16 c 0
 103 17 100 20 99 24 c 2
 96 29 96 43 95 103 c 0
 95 130.333 94.5557 155 94.5557 169.296 c 0
 94.5557 176.444 94.667 181 95 182 c 1
 95 186 94 224 94 268 c 2
 94 353 l 1
 95 356 95 377 95 399 c 0
 95 434 95 439 92 444 c 0
 89 450 88 455 88 487 c 2
 88 557 l 1
 88 604 l 2
 88 611 88 620 87 622 c 1
 87 625 88 638 88 651 c 0
 89 670 90 676 93 682 c 1
 96 686 96 690 96 695 c 1
 95 698 95 702 96 703 c 2
 96 705 103 710 111 716 c 0
 119 721 126 725 127 725 c 0
 128 725 132 727 136 729 c 0
EndSplineSet
Validated: 33
EndChar

StartChar: uni0069
Encoding: 105 105 74
Width: 324
GlyphClass: 2
Flags: W
LayerCount: 2
Fore
SplineSet
148 496 m 0
 153 500 157 502 158 502 c 0
 159 502 163 501 168 499 c 0
 172 497 177 495 179 495 c 0
 182 495 185 495 187 494 c 0
 189 493 192 490 193 487 c 0
 194 484 196 476 196 468 c 0
 197 457 196 453 194 450 c 1
 192 449 191 444 190 441 c 0
 189 436 190 432 192 428 c 0
 194 425 196 415 197 406 c 0
 199 398 200 387 200 383 c 1
 201 379 202 374 203 373 c 0
 204 372 204 368 204 364 c 1
 203 361 201 354 199 350 c 0
 197 343 197 337 197 315 c 0
 197 301 198 286 198 282 c 1
 199 278 200 272 202 267 c 0
 203 263 205 258 205 256 c 0
 205 254 203 250 200 248 c 0
 196 244 196 242 196 232 c 1
 197 226 198 218 200 215 c 0
 202 211 203 205 203 199 c 0
 203 192 202 186 200 183 c 0
 198 179 197 170 197 149 c 0
 196 133 195 120 195 119 c 1
 194 118 195 116 196 114 c 0
 197 112 199 108 201 107 c 1
 203 104 204 101 203 93 c 0
 203 86 202 81 200 78 c 1
 197 76 197 71 197 44 c 0
 197 21 196 12 194 10 c 0
 193 9 188 6 184 5 c 0
 179 4 172 3 168 3 c 0
 162 3 157 4 150 8 c 0
 141 12 139 14 135 22 c 0
 132 29 131 34 131 47 c 2
 131 66 l 2
 131 68 131 75 132 82 c 0
 133 92 132 97 130 102 c 0
 128.5 105 127.75 106.75 127.75 108.25 c 0
 127.75 109.75 128.5 111 130 113 c 0
 132 116 132 122 132 153 c 0
 131 173 131 192 131 195 c 0
 131 198 131 209 132 218 c 0
 133 233 133 236 130 240 c 0
 127.856 242.144 126.861 243.426 126.861 245.231 c 0
 126.861 246.795 127.607 248.751 129 252 c 0
 131 258 131 267 131 293 c 2
 131 335 l 1
 131 355 l 1
 131 378 l 1
 131 433 l 2
 132 469 132 477 135 479 c 1
 136 481 138 484 139 486 c 1
 139 488 144 493 148 496 c 0
179 725 m 0
 182 726 185.999 727 187.999 727 c 0
 189.999 727 192.999 726 194.999 724 c 0
 196.999 722 199.999 720 202.999 720 c 0
 205.999 720 207.999 719 210.999 714 c 0
 212.463 710.34 213.391 707.751 213.391 703.488 c 0
 213.391 701.928 213.267 700.144 212.999 698 c 0
 211.999 692 210.999 685 210.999 682 c 0
 210.999 679 211.999 673 211.999 668 c 0
 211.999 662 210.999 660 207.999 656 c 0
 204.999 653 202.999 649 202.999 647 c 0
 202.999 645 199.999 642 193.999 639 c 0
 188.999 637 180.999 634 176.999 633 c 1
 171.999 633 167.999 633 161.999 637 c 0
 153.999 641 151.999 641 141.999 640 c 0
 129.999 639 129.999 639 123.999 646 c 1
 116.999 652 116.999 653 116.999 662 c 0
 116.999 667 114.999 674 112.999 678 c 0
 111.348 681.854 110.605 683.889 110.605 685.607 c 0
 110.605 687.011 111.101 688.202 112 690 c 1
 114 691 117 696 118 701 c 1
 121 707 124 709 134 714 c 0
 143 718 148 719 154 719 c 0
 159 719 166 720 169 721 c 0
 171 722 176 724 179 725 c 0
EndSplineSet
Validated: 33
EndChar

StartChar: uni006B
Encoding: 107 107 76
Width: 555
GlyphClass: 2
Flags: W
LayerCount: 2
Fore
SplineSet
147 733 m 0
 149 734 152 735 154 735 c 0
 156 735 161 734 164 732 c 0
 168 730 173 726 175 723 c 0
 178 720 180 713 181 704 c 0
 182 697 183 684 183 675 c 2
 183 656 l 1
 183 630 l 1
 183 602 l 2
 182.667 600.667 182.556 597.111 182.556 592 c 0
 182.556 581.777 183 565.333 183 548 c 0
 183 522 183 494 182 486 c 2
 182 433 l 2
 183 401 183 395 186 393 c 0
 188 391 189 386 189 365 c 0
 189 351 190 338 191 336 c 1
 191 334 195 331 199 329 c 0
 204 327 210 325 213 325 c 0
 218 324 220 325 224 328 c 2
 234 335 l 1
 237 336 242 340 246 343 c 0
 249 346 255 350 260 352 c 0
 264 354 267 357 267 359 c 0
 267 361 272 366 279 371 c 0
 285 375 292 382 293 385 c 1
 295 388 300 393 304 396 c 2
 308 400 314 403 317 404 c 1
 319 404 322 406 323 408 c 0
 324 410 326 412 327 412 c 0
 329 412 333 415 338 418 c 0
 343 422 346 427 346 429 c 0
 346 430 349 435 353 439 c 0
 357 443 364 451 367 458 c 0
 373 468 375 470 383 472 c 1
 387 474 394 478 397 481 c 0
 400 485 406 489 409 490 c 1
 412 492 419 497 423 501 c 0
 428 505 435 510 440 512 c 0
 444 514 451 516 454 516 c 0
 458 516 470 515 481 515 c 0
 502 514 502 514 504 509 c 0
 506 505 506 504 504 499 c 1
 502 496 501 493 501 492 c 0
 501 491 490 480 477 467 c 0
 465 455 453 444 452 444 c 1
 451 443 448 439 445 434 c 0
 442 430 437 425 435 425 c 1
 432 424 427 420 423 415 c 0
 419 411 414 406 413 404 c 1
 411 402 406 398 401 395 c 1
 396 393 391 390 391 388 c 1
 390 387 387 384 384 382 c 0
 380 380 377 377 376 374 c 0
 375 372 372 369 368 367 c 0
 365 365 360 362 358 359 c 0
 356 356 350 352 345 349 c 1
 340 347 333 343 328 340 c 0
 324 338 316 332 310 327 c 0
 300 318 300 318 300 307 c 0
 300 299 302 293 305 286 c 0
 307 280 310 273 311 270 c 0
 313 265 315 263 321 261 c 1
 327 258 329 256 330 251 c 1
 332 246 333 243 337 242 c 1
 340 240 351 230 362 219 c 0
 373 207 382 198 383 198 c 0
 384 198 389 193 395 187 c 0
 400 182 407 174 410 171 c 0
 413 167 417 163 420 162 c 1
 423 160 425 158 425 157 c 0
 425 155 427 153 428 151 c 1
 430 149 433 146 436 144 c 1
 439 143 444 138 448 133 c 0
 452 129 463 119 471 110 c 0
 479 102 488 94 491 93 c 1
 493 91 497 87 499 84 c 0
 501 80 506 73 511 68 c 0
 516 63 522 58 525 57 c 1
 527 57 531 54 532 52 c 0
 533 50 535 46 537 44 c 0
 539.667 42 540.556 40.4443 540.556 36.3701 c 0
 540.556 34.333 540.333 31.666 540 27.999 c 0
 539 21.999 538 15.999 537 14.999 c 1
 536 14.999 526 13.999 516 14.999 c 0
 497 14.999 496 14.999 488 9.99902 c 0
 483.817 6.8623 481.821 5.36523 480.44 5.36523 c 0
 479.18 5.36523 478.432 6.6123 477 8.99805 c 1
 475 10.998 470 12.998 466 13.998 c 0
 463 14.998 457 15.998 455 17.998 c 1
 452 18.998 448 19.998 447 19.998 c 0
 445 19.998 437 25.998 429 33.998 c 0
 421 40.998 415 48.998 415 49.998 c 0
 415 51.998 413 54.998 410 56.998 c 0
 408 57.998 402 62.998 397 66.998 c 1
 393 71.998 388 77.998 386 81.998 c 0
 384 85.998 380 91.998 375 95.998 c 0
 371 99.998 361 109.998 352 117.998 c 0
 344.055 125.061 337 132.998 337 133.998 c 0
 337 134.998 335 137.998 332 139.998 c 0
 329 142.998 327 146.998 327 148.998 c 0
 327 149.998 323 155.998 318 160.998 c 0
 313 165.998 307 172.998 305 175.998 c 0
 302 179.998 299 183.998 298 185.998 c 1
 297 186.998 295 188.998 294 188.998 c 0
 293 188.998 290 191.998 288 195.998 c 0
 286 199.998 285 203.998 285 204.998 c 0
 285 206.998 283 208.998 281 210.998 c 1
 279 211.998 275 212.998 274 212.998 c 0
 272 212.998 264 219.998 257 226.998 c 0
 249 234.998 241 243.998 239 246.998 c 0
 236 250.998 234 253.998 234 254.998 c 0
 234 255.998 229 258.998 222 260.998 c 0
 215 262.998 208 263.998 203 263.998 c 1
 198 262.998 193 261.998 192 259.998 c 1
 189 256.998 189 247.998 189 170.998 c 0
 188.707 154.303 188.586 139.753 188.586 127.372 c 0
 188.586 97.4834 189.293 80.2412 190 75.999 c 0
 192 68.999 192 67.999 186 56.999 c 0
 181 46.999 181 44.999 181 32.999 c 0
 182 22.999 181 17.999 179 15.999 c 1
 178 13.999 176 12.999 174 12.999 c 0
 173 12.999 170 11.999 168 9.99902 c 0
 166.5 7.74902 164.438 6.62402 158.016 6.62402 c 0
 155.875 6.62402 153.25 6.74902 150 6.99902 c 0
 137 6.99902 133 7.99902 131 9.99902 c 1
 130 11.999 127 13.999 124 14.999 c 0
 122 15.999 117 19.999 115 23.999 c 0
 110 30.999 110 31.999 110 57.999 c 0
 110 80.999 109 84.999 106 89.999 c 1
 104 94.999 103 95.999 105 98.999 c 0
 106 100.999 106 104.999 105 110.999 c 0
 104 115.999 103 157.999 103 204.999 c 0
 103 265.999 102 292.999 101 294.999 c 0
 99 297.999 99 299.999 101 301.999 c 1
 102 303.999 104 307.999 104 310.999 c 0
 104 313.999 105 319.999 107 323.999 c 0
 109 327.999 111 334.999 111 337.999 c 0
 111 340.999 109 346.999 106 350.999 c 0
 103 355.999 102 360.999 102 365.999 c 2
 102 384.999 l 2
 102 390.999 103 401.999 103 408.999 c 0
 103 415.999 103 426.999 102 432.999 c 1
 102 458.999 l 2
 103 466.999 103 478.999 102 485.999 c 1
 102 491.999 102 507.999 103 520.999 c 0
 103 542.999 103 544.999 99 551.999 c 0
 97 555.999 96 557.999 96 559.624 c 0
 96 561.249 97 562.499 99 564.999 c 0
 102 569.999 103 572.999 103 581.999 c 0
 103 588.999 102 600.999 102 608.999 c 0
 102 620.999 101 626.999 98 630.999 c 0
 96.5361 633.195 95.6084 636.463 95.6084 641.195 c 0
 95.6084 642.928 95.7324 644.856 96 647 c 0
 96 656 97 659 100 661 c 0
 102 663 103 666 103 684 c 0
 103 695 104 707 105 711 c 0
 106 716 110 721 114 725 c 0
 121 731 122 732 132 732 c 0
 138 732 145 732 147 733 c 0
EndSplineSet
Validated: 33
EndChar

StartChar: uni006C
Encoding: 108 108 77
Width: 304
GlyphClass: 2
Flags: W
LayerCount: 2
Fore
SplineSet
139 735 m 1
 144 736 151.999 737 156.999 737 c 0
 161.999 737 167.999 737 169.999 736 c 1
 171.999 734 176.999 730 180.999 726 c 0
 186.999 719 186.999 718 184.999 711 c 0
 183.999 705 183.999 695 184.999 680 c 0
 184.999 668 185.999 654 185.999 649 c 0
 185.999 644 184.999 627 184.999 610 c 0
 184.999 583 184.999 580 187.999 574 c 1
 190.999 570 190.999 565 190.999 550 c 0
 191.999 533 190.999 532 187.999 528 c 0
 184.999 525 183.999 522 183.999 516 c 0
 183.999 512 184.999 507 185.999 506 c 0
 186.999 505 186.999 503 185.999 499 c 0
 184.999 495 183.999 489 183.999 484 c 0
 183.999 477 183.999 474 187.999 471 c 1
 190.999 467 191.999 466 190.999 457 c 0
 190.999 452 190.999 444 191.999 439 c 0
 193.171 435.485 193.656 432.657 193.656 430.716 c 0
 193.656 429.343 193.414 428.414 193 428 c 0
 192.293 427.293 191.586 416.586 191.586 399.414 c 0
 191.586 392.302 191.707 384.08 192 375 c 0
 192 324 192 324 188 318 c 0
 184 312 183 310 184 299 c 0
 185 292 186 284 188 281 c 0
 191 276 191 267 191 211 c 2
 191 109 l 2
 191 88 191 70 192 68 c 1
 192 67 192 59 191 52 c 0
 190 43 190 36 191 33 c 1
 193 30 192 26 190 20 c 0
 188 16 183 9 179 5 c 0
 175.014 1.01367 173.298 -0.702148 171.081 -0.702148 c 0
 169.405 -0.702148 167.444 0.27832 164 2 c 0
 160 4 153 6 148 6 c 1
 142 7 136 9 132 13 c 2
 128 15 124 20 122 22 c 1
 120 26 120 33 120 45 c 0
 120 61 119 63 115 68 c 0
 112 72 112 75 112 79 c 1
 113 82 115 86 117 89 c 0
 119 92 120 96 120 108 c 0
 120 119 120 124 118 127 c 0
 115 131 115 132 118 139 c 0
 119 142 120 148 120 152 c 0
 120 155 119 159 117 160 c 1
 115 162 114 167 113 174 c 0
 112 184 113 186 116 192 c 1
 121 198 121 198 117 214 c 0
 115 222 113 232 113 236 c 0
 112 241 112 244 115 250 c 0
 119 257 119 259 119 313 c 0
 119 362 119 368 116 373 c 0
 115 375 113 381 113 385 c 0
 113 389 115 395 117 399 c 0
 120 406 120 409 119 424 c 0
 118 434 116 446 115 451 c 0
 114 457 113 493 112 532 c 0
 112 571 111 605 111 607 c 0
 111 609 112 620 113 631 c 0
 113 645 113 655 112 658 c 0
 111 661 111 670 112 684 c 0
 113 696 114 709 116 713 c 2
 117 718 120 722 124 726 c 1
 128 729 135 733 139 735 c 1
EndSplineSet
Validated: 33
EndChar

StartChar: uni0074
Encoding: 116 116 85
Width: 389
GlyphClass: 2
Flags: W
LayerCount: 2
Fore
SplineSet
198 636 m 1
 201 637 205.999 639 207.999 639 c 1
 209.999 638 213.999 636 214.999 634 c 0
 217.999 630 218.999 626 218.999 614 c 0
 218.999 606 217.999 594 216.999 587 c 0
 214.999 578 214.999 575 216.999 569 c 0
 217.999 565 218.999 555 218.999 543 c 0
 218.999 525 218.999 522 221.999 517 c 0
 224.999 513 227.999 510 231.999 509 c 0
 235.999 508 242.999 507 248.999 506 c 0
 256.999 505 259.999 506 264.999 509 c 0
 271.999 513 273.999 513 300.999 514 c 0
 321.999 514 331.999 513 334.999 512 c 1
 337.999 510 339.999 507 340.999 502 c 0
 341.999 498 342.999 493 342.999 491 c 0
 342.999 489 343.999 483 343.999 478 c 0
 343.999 470 343.999 467 339.999 461 c 0
 335.999 456 332.999 453 327.999 451 c 0
 323.999 450 307.999 449 284.999 449 c 0
 263.999 448 243.999 448 238.999 448 c 0
 231.999 448 227.999 447 224.999 444 c 0
 219.999 439 219.999 439 218.999 343 c 2
 218.999 242 l 1
 218.999 211 l 2
 217.999 189 217.999 184 214.999 180 c 0
 212.999 176 211.999 171 211.999 163 c 0
 211.999 156 212.999 147 215.999 138 c 0
 218.999 129 220.999 120 220.999 114 c 0
 219.999 106 220.999 103 223.999 100 c 0
 225.999 97 227.999 94 227.999 92 c 0
 227.999 91 228.999 86 231.999 81 c 0
 233.999 77 236.999 72 236.999 72 c 2
 237.999 71 260.999 71 288.999 71 c 0
 339.999 71 339.999 71 346.999 65 c 0
 350.999 62 352.999 58 353.999 55 c 1
 353.999 40.085 355.348 43.8135 355.348 36.3564 c 0
 355.348 31.6973 353.875 28.7529 349.999 21 c 0
 345.999 15 341.999 9 338.999 8 c 0
 336.999 7 327.999 6 316.999 6 c 0
 305.999 5 295.999 4 290.999 3 c 1
 286.999 1 276.999 0 265.999 -0 c 0
 263.07 -0.292969 259.884 -0.414062 256.691 -0.414062 c 0
 248.984 -0.414062 241.242 0.292969 237 1 c 0
 232 2 224 5 221 8 c 1
 217 10 212 12 208 12 c 0
 205 12 200 14 195 17 c 0
 191 20 182 27 175 33 c 0
 167 39 160 46 158 49 c 0
 156 51 152 58 150 63 c 2
 147 68 144 76 142 80 c 1
 141 84 140 91 140 96 c 0
 140 102 138 108 136 112 c 0
 132 120 132 120 137 128 c 0
 141 136 141 136 141 177 c 0
 141 218 141 218 137 224 c 0
 133 230 133 232 134 241 c 0
 134 247 136 255 138 259 c 0
 141 264 141 266 140 272 c 0
 139 275 139 281 139 284 c 1
 140 286 140 309 140 334 c 0
 140 360 139 382 139 384 c 0
 139 386 140 397 140 409 c 0
 141 431 141 431 134 438 c 0
 130 442 125 447 124 449 c 0
 121 453 120 454 106 454 c 0
 98 455 87 455 81 455 c 2
 66 455 l 1
 64 454 58 455 54 456 c 2
 49 456 43 458 40 460 c 0
 36 462 33 465 31 470 c 0
 29 474 27 481 27 485 c 2
 27 498 l 2
 27 501 29 503 32 504 c 0
 35 505 39 508 41 510 c 0
 45 513 48 513 82 513 c 0
 115 514 120 514 124 517 c 1
 127 518 132 524 135 529 c 0
 142 539 142 539 141 558 c 0
 140 568 140 579 140 581 c 2
 140 596 l 2
 141 604 142 607 145 609 c 0
 147 611 153 615 158 619 c 0
 163 624 167 627 169 626 c 0
 171 625 174 627 176 629 c 0
 180 633 182 633 186 633 c 1
 190 632 194 633 198 636 c 1
EndSplineSet
Validated: 33
EndChar

StartChar: uni0075
Encoding: 117 117 86
Width: 625
GlyphClass: 2
Flags: W
LayerCount: 2
Fore
SplineSet
115 519 m 0
 119 522 124.999 524.998 126.999 524.998 c 0
 128.999 524.998 132.999 521.998 134.999 519.998 c 0
 138.999 514.998 139.999 514.998 153.999 515.998 c 0
 161.999 516.998 170.999 516.998 173.999 515.998 c 1
 176.999 515.998 180.999 512.998 183.999 507.998 c 0
 187.999 502.998 188.999 498.998 188.999 492.998 c 0
 188.999 488.998 189.999 483.998 190.999 482.998 c 1
 191.999 480.998 191.999 469.998 190.999 456.998 c 0
 189.999 440.998 188.999 433.998 185.999 429.998 c 0
 183.999 425.998 182.999 420.998 182.999 385.998 c 0
 182.999 349.998 183.999 345.998 186.999 340.998 c 0
 188.999 337.998 189.999 334.998 188.999 327.998 c 0
 187.999 322.998 185.999 316.998 184.999 314.998 c 0
 182.999 310.998 181.999 307.998 182.999 300.998 c 1
 182.999 295.998 182.999 285.998 181.999 278.998 c 0
 180.999 265.998 180.999 265.998 185.999 260.998 c 1
 191.999 256.998 191.999 256.998 189.999 241.998 c 0
 189.999 233.998 188.999 225.998 188.999 223.998 c 2
 188.999 184.998 l 2
 188.999 147.998 188.999 147.998 194.999 140.998 c 1
 196.999 136.998 202.924 126.964 206.999 117.998 c 0
 211.999 106.998 216.999 99.998 223.999 91.998 c 0
 231.999 83.998 236.999 80.998 246.999 76.998 c 0
 257.999 72.998 260.999 72.998 282.999 72.998 c 2
 318.999 72.998 l 2
 325.999 72.998 334.999 74.998 340.999 76.998 c 0
 345.999 78.998 352.999 79.998 355.999 79.998 c 0
 357.999 79.998 364.999 82.998 369.999 85.998 c 0
 375.999 88.998 383.999 92.998 388.999 94.998 c 0
 393.999 96.998 400.999 101.998 404.999 104.998 c 1
 410.999 110.998 411.999 112.998 411.999 118.998 c 0
 411.999 122.998 412.999 128.998 414.999 130.998 c 1
 415.999 132.998 418.999 135.998 420.999 135.998 c 1
 424.999 136.998 425.999 138.998 425.999 142.998 c 1
 426.999 144.998 427.999 148.998 428.999 149.998 c 1
 429.999 151.998 431.999 155.998 432.999 159.998 c 1
 432.999 163.998 433.999 171.998 434.999 176.998 c 0
 435.999 181.998 436.999 187.998 438.999 189.998 c 0
 440.999 191.998 440.999 207.998 441.999 282.998 c 0
 441.999 331.998 440.999 381.998 439.999 391.998 c 0
 439.585 397.797 439.343 403.596 439.343 409.537 c 0
 439.343 417.939 439.828 426.626 441 435.999 c 0
 443 458.999 443 458.999 438 464.999 c 0
 434 469.999 434 470.999 435 477.999 c 1
 435 482.999 437 487.999 438 489.999 c 0
 439 491.999 441 495.999 441 497.999 c 0
 441 499.999 442 503.999 443 506.999 c 1
 445 509.999 448 512.999 450 513.999 c 0
 452 514.999 465 515.999 486 516.999 c 0
 518 516.999 518 516.999 526 509.999 c 0
 534 501.999 534 501.999 534 474.999 c 2
 534 439.999 l 1
 533 435.999 534 421.999 534 408.999 c 0
 536 386.999 535 385.999 532 382.999 c 0
 528 378.999 528 378.999 528 322.999 c 0
 528 273.999 528 265.999 531 262.999 c 0
 533 260.999 533 254.999 534 235.999 c 2
 534 209.999 l 1
 534 159.999 l 2
 535 118.999 536 112.999 538 108.999 c 0
 541 103.999 541 99.999 541 67.999 c 0
 541 47.999 541 29.999 540 27.999 c 0
 539 25.999 534 19.999 528 15.999 c 0
 519 9.99902 516 7.99902 512 8.99902 c 0
 509 9.99902 506 8.99902 502 5.99902 c 0
 496 1.99902 496 1.99902 489 5.99902 c 0
 484 8.99902 479 9.99902 473 9.99902 c 1
 467 8.99902 460 10.999 454 12.999 c 0
 445 16.999 444 17.999 440 26.999 c 0
 437 31.999 435 36.999 435 38.999 c 0
 435 39.999 434 41.999 433 41.999 c 2
 432 42.999 425 43.999 416 43.999 c 0
 406 43.999 399 42.999 396 40.999 c 2
 393 39.999 388 35.999 385 32.999 c 0
 383 29.999 379 26.999 379 26.999 c 1
 378 26.999 375 25.999 373 23.999 c 0
 370 21.999 365 19.999 362 19.999 c 0
 358 19.999 351 18.999 347 16.999 c 0
 343 14.999 336 9.99902 333 5.99902 c 0
 329.09 1.4375 327.303 -0.151367 325.148 -0.151367 c 0
 323.997 -0.151367 322.741 0.302734 321 0.999023 c 0
 318.657 2.1709 314.599 2.65625 307.216 2.65625 c 0
 301.995 2.65625 295.113 2.41406 286.001 2 c 0
 276.001 1.66699 269.334 1.44434 264.741 1.44434 c 0
 255.556 1.44434 254.667 2.33301 252 5 c 0
 248 10 246 10 238 9 c 0
 233 9 226 9 222 10 c 0
 217 11 213 14 209 18 c 0
 206 21 203 24 201 24 c 0
 200 24 196 23 193 22 c 0
 188 21 186 21 178 26 c 0
 173 30 168 34 167 35 c 0
 165 37 163 38 161 38 c 0
 158 38 153 41 149 44 c 0
 146 47 141 50 140 50 c 0
 139 50 137 52 136 54 c 0
 135 56 133 61 132 65 c 0
 131 69 129 73 124 77 c 0
 120 80 117 83 117 85 c 0
 117 87 116 91 114 93 c 0
 111 97 110 99 111 104 c 0
 112 108 111 111 109 114 c 0
 107 116 105 122 105 128 c 1
 104 134 103 140 101 141 c 1
 100 143 99 148 99 154 c 2
 98 159 98 183 97 206 c 0
 97 221.333 96.5557 238 96.5557 250.37 c 0
 96.5557 256.556 96.667 261.667 97 265 c 2
 97 297 l 2
 97 306 97 316 96 320 c 1
 96 324 97 339 97 354 c 0
 98 369 98 385 98 388 c 2
 98 403 l 1
 98 413 l 2
 98 415 98 425 97 435 c 0
 97 449 95 457 93 462 c 0
 90 468 90 472 90 477 c 1
 91 480 93 486 95 490 c 0
 97 493 98 499 98 501 c 0
 98 504 100 508 102 510 c 0
 104 512 110 516 115 519 c 0
EndSplineSet
Validated: 33
EndChar
